<svg width="812" height="620" viewBox="0 0 812 620" fill="none" xmlns="http://www.w3.org/2000/svg">
<path d="M74.9133 619.032L74.8755 619.278C74.8305 619.038 74.7873 618.793 74.7462 618.552C74.6711 618.162 74.6059 617.772 74.5445 617.379C72.1069 602.034 73.4483 586.325 78.4524 571.615C79.4143 568.744 80.5098 565.925 81.739 563.159C86.4397 552.448 93.1037 542.711 101.387 534.451C104.076 531.698 107.145 529.344 110.499 527.458C110.992 527.197 111.487 526.95 111.993 526.722C115.096 525.217 118.589 524.711 121.991 525.273C123.227 525.506 124.425 525.908 125.551 526.468C125.946 526.66 126.326 526.871 126.699 527.096C128.973 528.587 130.915 530.532 132.402 532.808C133.89 535.085 134.892 537.644 135.345 540.325C135.991 544.325 135.844 548.414 134.91 552.356C134.83 552.733 134.744 553.108 134.652 553.482C133.99 556.11 133.159 558.692 132.163 561.213C122.194 586.862 100.771 609.619 74.9133 619.032Z" fill="#F2F2F2"/>
<path d="M125.484 526.551C117.706 537.729 110.358 549.19 103.44 560.935C96.5316 572.67 90.0744 584.655 84.0691 596.892C80.7096 603.738 77.497 610.654 74.4313 617.639C74.0919 618.412 75.2369 619.084 75.5807 618.301C81.0558 605.832 86.9973 593.583 93.4053 581.553C99.8093 569.535 106.663 557.771 113.967 546.262C118.053 539.824 122.276 533.474 126.634 527.213C127.121 526.513 125.97 525.853 125.484 526.551Z" fill="white"/>
<path d="M133.807 552.424C127.962 560.021 119.358 565.007 109.861 566.303C107.212 566.664 104.529 566.717 101.867 566.461C101.016 566.381 101.01 567.708 101.854 567.788C111.76 568.621 121.594 565.513 129.223 559.139C131.362 557.351 133.287 555.32 134.957 553.087C135.468 552.406 134.315 551.748 133.807 552.424Z" fill="white"/>
<path d="M83.884 593.632C82.525 591.696 81.3959 589.608 80.5193 587.411C78.517 582.402 77.8062 576.971 78.4524 571.615C79.4143 568.744 80.5098 565.925 81.739 563.159C81.8134 563.268 81.8582 563.394 81.869 563.526C81.8797 563.657 81.856 563.789 81.8002 563.908C80.9347 565.983 80.3125 568.152 79.946 570.37C78.6303 578.28 80.4567 586.391 85.0358 592.974C85.0937 593.045 85.1322 593.131 85.1477 593.222C85.1631 593.313 85.1549 593.406 85.1239 593.493C85.0727 593.609 84.9921 593.709 84.8903 593.783C84.7885 593.858 84.6689 593.904 84.5435 593.918C84.4182 593.932 84.2913 593.913 84.1756 593.863C84.0599 593.812 83.9593 593.733 83.884 593.632Z" fill="white"/>
<path d="M110.698 526.619C109.098 532.994 109.575 539.713 112.058 545.798C112.146 545.95 112.29 546.061 112.46 546.108C112.629 546.154 112.81 546.131 112.963 546.045C113.112 545.955 113.222 545.811 113.268 545.642C113.314 545.474 113.293 545.294 113.21 545.14C110.885 539.366 110.453 533.003 111.978 526.968C112.017 526.8 111.99 526.624 111.902 526.476C111.815 526.328 111.673 526.22 111.507 526.175C111.341 526.129 111.164 526.15 111.013 526.233C110.862 526.316 110.749 526.454 110.698 526.619Z" fill="white"/>
<path d="M74.7494 586.997L74.83 587.232C74.6791 587.041 74.527 586.844 74.3785 586.65C74.1309 586.339 73.8918 586.024 73.6549 585.704C64.3681 573.248 58.2591 558.714 55.8575 543.363C55.3755 540.373 55.0363 537.368 54.8399 534.348C54.027 522.678 55.4052 510.96 58.9034 499.798C60.0065 496.111 61.6302 492.6 63.7252 489.372C64.0402 488.913 64.3639 488.463 64.7062 488.026C66.7545 485.252 69.6127 483.181 72.8871 482.099C74.0895 481.731 75.3371 481.53 76.5944 481.504C77.0332 481.491 77.4677 481.501 77.9023 481.527C80.609 481.791 83.2319 482.611 85.6069 483.936C87.9819 485.261 90.0578 487.062 91.7046 489.226C94.1349 492.468 95.9031 496.157 96.9082 500.082C97.0122 500.453 97.1102 500.825 97.2022 501.199C97.8369 503.833 98.3001 506.506 98.589 509.201C101.676 536.546 93.2753 566.65 74.7494 586.997Z" fill="#F2F2F2"/>
<path d="M76.5742 481.608C74.8782 495.12 73.6952 508.683 73.0251 522.297C72.3579 535.898 72.2074 549.512 72.5734 563.138C72.7786 570.761 73.1461 578.377 73.6759 585.987C73.7344 586.829 75.0608 586.893 75.0015 586.04C74.0579 572.455 73.6294 558.847 73.7158 545.217C73.8044 531.599 74.4095 517.998 75.5311 504.414C76.159 496.814 76.9486 489.229 77.8998 481.661C78.0061 480.814 76.6801 480.764 76.5742 481.608Z" fill="white"/>
<path d="M95.9642 500.654C94.3167 510.096 89.0137 518.509 81.205 524.068C79.0266 525.619 76.6757 526.912 74.1996 527.921C73.408 528.246 74.0193 529.424 74.8041 529.102C83.9633 525.239 91.2288 517.918 95.0233 508.73C96.0875 506.153 96.8481 503.46 97.2899 500.707C97.4266 499.867 96.1001 499.819 95.9642 500.654Z" fill="white"/>
<path d="M70.8945 560.337C68.7918 559.254 66.8221 557.93 65.0254 556.392C60.9255 552.886 57.7728 548.406 55.8574 543.364C55.3754 540.374 55.0362 537.369 54.8398 534.349C54.9563 534.41 55.0547 534.501 55.1252 534.613C55.1958 534.724 55.2361 534.852 55.2421 534.984C55.4396 537.223 55.8958 539.433 56.6016 541.567C59.1109 549.183 64.496 555.518 71.6088 559.22C71.6935 559.257 71.7674 559.314 71.8233 559.388C71.8792 559.461 71.9154 559.548 71.9283 559.639C71.9365 559.765 71.9115 559.891 71.856 560.004C71.8004 560.117 71.7162 560.214 71.6116 560.285C71.5071 560.355 71.3859 560.397 71.2601 560.407C71.1343 560.416 71.0082 560.392 70.8945 560.337Z" fill="white"/>
<path d="M63.5111 488.537C65.0556 494.926 68.5988 500.655 73.6248 504.89C73.7733 504.984 73.9527 505.015 74.1242 504.977C74.2957 504.94 74.4454 504.836 74.5408 504.688C74.6313 504.539 74.6609 504.361 74.6234 504.19C74.5858 504.02 74.484 503.87 74.3391 503.772C69.5977 499.739 66.2597 494.305 64.8065 488.252C64.7638 488.085 64.658 487.942 64.5115 487.851C64.3649 487.761 64.189 487.731 64.021 487.768C63.8529 487.805 63.7058 487.906 63.6106 488.05C63.5155 488.193 63.4798 488.368 63.5111 488.537Z" fill="white"/>
<path d="M75.3238 619.195L75.5183 619.35C75.2884 619.27 75.0542 619.186 74.8243 619.102C74.4484 618.974 74.0771 618.837 73.7055 618.696C59.1717 613.201 46.1971 604.245 35.9061 592.604C33.8898 590.345 31.9856 587.996 30.1935 585.556C23.2238 576.162 18.074 565.546 15.0099 554.257C13.9538 550.556 13.4312 546.724 13.458 542.876C13.4757 542.318 13.5066 541.766 13.5597 541.213C13.7914 537.772 15.0844 534.488 17.2606 531.813C18.0753 530.855 19.0186 530.014 20.0637 529.315C20.4262 529.067 20.7977 528.842 21.178 528.629C23.6008 527.394 26.2526 526.673 28.9672 526.51C31.6818 526.347 34.4008 526.747 36.954 527.683C40.7478 529.106 44.2244 531.262 47.1852 534.028C47.4726 534.285 47.7556 534.545 48.0344 534.811C49.988 536.689 51.8179 538.692 53.5125 540.806C70.8404 562.184 79.9753 592.074 75.3238 619.195Z" fill="#F2F2F2"/>
<path d="M20.1022 529.414C25.9502 541.712 32.2579 553.777 39.0253 565.609C45.7883 577.428 52.9933 588.98 60.6401 600.264C64.9186 606.577 69.3302 612.796 73.8749 618.923C74.3777 619.601 75.5296 618.94 75.0202 618.253C66.9087 607.315 59.219 596.08 51.9511 584.549C44.6919 573.027 37.8768 561.241 31.5057 549.191C27.9416 542.449 24.5222 535.634 21.2476 528.744C20.8812 527.974 19.7372 528.646 20.1022 529.414Z" fill="white"/>
<path d="M165.862 444.248C167.157 443.36 168.242 442.199 169.04 440.847C169.838 439.494 170.33 437.983 170.481 436.419C170.632 434.856 170.438 433.279 169.913 431.799C169.388 430.318 168.546 428.971 167.444 427.852L171.611 334.834L150.396 337.215L151.628 428.2C149.87 430.175 148.899 432.727 148.896 435.371C148.894 438.015 149.862 440.568 151.617 442.546C153.371 444.525 155.791 445.791 158.416 446.104C161.042 446.418 163.691 445.758 165.862 444.248Z" fill="#FFB8B8"/>
<path d="M204.564 601.708L216.639 603.83L228.573 558.267L212.752 555.134L204.564 601.708Z" fill="#FFB8B8"/>
<path d="M237.955 619.137L200.006 612.465L202.584 597.803L225.871 601.897C227.796 602.236 229.636 602.95 231.285 604C232.935 605.049 234.361 606.413 235.483 608.014C236.605 609.615 237.401 611.421 237.825 613.33C238.25 615.238 238.294 617.211 237.955 619.137Z" fill="#2F2E41"/>
<path d="M171.422 607.752L183.682 607.751L189.514 560.463L171.42 560.464L171.422 607.752Z" fill="#FFB8B8"/>
<path d="M207.326 619.135L168.795 619.137L168.795 604.25L192.439 604.249C196.387 604.248 200.173 605.817 202.965 608.608C205.757 611.4 207.326 615.187 207.326 619.135Z" fill="#2F2E41"/>
<path d="M223.575 594.803C223.384 594.803 223.193 594.792 223.003 594.769L208.573 593.582C207.916 593.504 207.281 593.294 206.708 592.964C206.135 592.634 205.634 592.191 205.238 591.662C204.841 591.132 204.556 590.528 204.4 589.885C204.244 589.242 204.22 588.574 204.33 587.922L217.655 513.241L208.651 465.767C208.578 465.381 208.367 465.035 208.059 464.793C207.75 464.55 207.364 464.427 206.972 464.446C206.58 464.466 206.208 464.626 205.925 464.899C205.642 465.171 205.467 465.536 205.432 465.927L194.177 592.555C194.053 593.825 193.441 594.998 192.469 595.826C191.497 596.654 190.241 597.072 188.967 596.992L175.372 596.486C174.181 596.401 173.062 595.884 172.226 595.03C171.39 594.177 170.895 593.047 170.836 591.855L169.922 440.087L240.403 431.277L245.327 507.318L245.307 507.398L228.316 591.073C228.058 592.136 227.45 593.081 226.59 593.757C225.73 594.433 224.669 594.802 223.575 594.803Z" fill="#2F2E41"/>
<path d="M193.159 274.558C206.723 274.558 217.72 263.561 217.72 249.997C217.72 236.432 206.723 225.436 193.159 225.436C179.594 225.436 168.598 236.432 168.598 249.997C168.598 263.561 179.594 274.558 193.159 274.558Z" fill="#FFB8B8"/>
<path d="M216.301 451.179C212.459 451.202 208.692 450.124 205.444 448.073C193.546 440.637 180.033 443.592 173.037 446.016C172.343 446.259 171.602 446.342 170.872 446.259C170.141 446.176 169.438 445.928 168.816 445.535C168.202 445.149 167.682 444.629 167.297 444.014C166.912 443.399 166.671 442.705 166.592 441.983L153.869 328.358C151.737 309.32 163.205 291.421 181.137 285.798C181.811 285.587 182.496 285.387 183.192 285.197C188.773 283.684 194.617 283.413 200.313 284.401C206.01 285.39 211.42 287.615 216.164 290.92C220.997 294.261 225.038 298.621 228.004 303.692C230.97 308.763 232.788 314.423 233.331 320.273L244.042 434.66C244.115 435.4 244.015 436.148 243.75 436.843C243.485 437.539 243.062 438.163 242.514 438.667C238.76 442.14 227.863 451.178 216.301 451.179Z" fill="#D32A3D"/>
<path d="M177.56 352.725L148.856 349.569C148.039 349.479 147.252 349.214 146.547 348.793C145.842 348.371 145.236 347.802 144.77 347.125C144.304 346.448 143.99 345.679 143.849 344.869C143.708 344.06 143.742 343.23 143.951 342.435L151.257 314.589C151.74 310.413 153.859 306.599 157.15 303.983C160.441 301.368 164.635 300.164 168.812 300.635C172.989 301.107 176.808 303.216 179.433 306.5C182.058 309.783 183.273 313.973 182.813 318.152L183.898 346.827C183.929 347.648 183.782 348.466 183.468 349.226C183.154 349.985 182.681 350.668 182.079 351.227C181.478 351.787 180.763 352.21 179.983 352.469C179.203 352.727 178.376 352.815 177.56 352.725Z" fill="#D32A3D"/>
<path d="M243.927 440.266C245.106 439.228 246.043 437.945 246.672 436.506C247.302 435.067 247.608 433.507 247.569 431.937C247.53 430.367 247.148 428.825 246.449 427.419C245.749 426.012 244.75 424.777 243.522 423.798L236.449 330.956L215.66 335.636L227.863 426.05C226.356 428.223 225.699 430.873 226.016 433.498C226.332 436.123 227.601 438.541 229.581 440.293C231.561 442.045 234.115 443.01 236.759 443.005C239.403 443 241.954 442.026 243.927 440.266Z" fill="#FFB8B8"/>
<path d="M207.69 346.888C207.088 346.329 206.614 345.646 206.3 344.887C205.986 344.127 205.84 343.309 205.871 342.488L206.956 313.813C206.496 309.635 207.711 305.444 210.336 302.161C212.961 298.877 216.78 296.768 220.957 296.297C225.134 295.825 229.328 297.029 232.619 299.645C235.91 302.26 238.029 306.074 238.512 310.25L245.818 338.096C246.027 338.891 246.062 339.721 245.92 340.531C245.779 341.34 245.465 342.109 244.999 342.786C244.534 343.463 243.928 344.032 243.222 344.454C242.517 344.875 241.73 345.14 240.913 345.23L212.21 348.386C211.393 348.476 210.566 348.389 209.786 348.131C209.006 347.872 208.291 347.448 207.69 346.888Z" fill="#D32A3D"/>
<path d="M191.697 275.483C191.26 275.482 190.825 275.431 190.4 275.331L190.276 275.301C168.681 271.997 163.909 259.49 162.861 254.266C161.777 248.858 163.012 243.637 165.801 241.61C164.28 236.807 164.525 232.549 166.529 228.948C170.024 222.668 177.61 220.544 178.627 220.284C184.685 215.815 191.934 218.799 193.252 219.404C204.971 215.068 209.45 218.677 210.26 219.483C215.498 220.424 218.691 222.447 219.751 225.498C221.742 231.229 215.446 238.358 215.177 238.659L215.037 238.815L205.657 239.261C204.767 239.304 203.896 239.533 203.1 239.934C202.304 240.335 201.601 240.898 201.037 241.588C200.473 242.278 200.061 243.079 199.826 243.939C199.592 244.798 199.54 245.698 199.676 246.578C199.93 247.715 200.25 248.835 200.636 249.934C202.238 254.94 203.438 259.217 201.89 260.843C201.54 261.158 201.107 261.367 200.643 261.448C200.179 261.528 199.701 261.476 199.265 261.298C197.799 260.907 196.803 260.989 196.307 261.543C195.536 262.402 195.771 264.577 196.969 267.668C197.344 268.646 197.445 269.707 197.261 270.738C197.077 271.768 196.614 272.729 195.923 273.515C195.402 274.129 194.755 274.623 194.026 274.963C193.296 275.302 192.502 275.48 191.697 275.483Z" fill="#2F2E41"/>
<path d="M481.76 354H360.76C356.253 353.994 351.932 352.202 348.745 349.015C345.557 345.828 343.765 341.507 343.76 337V155.168C343.765 150.661 345.557 146.34 348.745 143.153C351.932 139.966 356.253 138.173 360.76 138.168H481.76C486.267 138.173 490.588 139.966 493.775 143.153C496.962 146.34 498.755 150.661 498.76 155.168V337C498.755 341.507 496.962 345.828 493.775 349.015C490.588 352.202 486.267 353.994 481.76 354ZM360.76 140.168C356.783 140.172 352.97 141.754 350.158 144.566C347.346 147.378 345.764 151.191 345.76 155.168V337C345.764 340.976 347.346 344.789 350.158 347.601C352.97 350.413 356.783 351.995 360.76 352H481.76C485.737 351.995 489.549 350.413 492.361 347.601C495.173 344.789 496.755 340.976 496.76 337V155.168C496.755 151.191 495.173 147.378 492.361 144.566C489.549 141.754 485.737 140.172 481.76 140.168H360.76Z" fill="#3F3D56"/>
<path d="M463.26 225.584H379.26C377.006 225.581 374.846 224.685 373.252 223.092C371.659 221.498 370.762 219.338 370.76 217.084V177.084C370.762 174.83 371.659 172.67 373.252 171.076C374.846 169.483 377.006 168.587 379.26 168.584H463.26C465.513 168.587 467.674 169.483 469.267 171.076C470.861 172.67 471.757 174.83 471.76 177.084V217.084C471.757 219.338 470.861 221.498 469.267 223.092C467.674 224.685 465.513 225.581 463.26 225.584Z" fill="#D32A3D"/>
<path d="M457.26 263.084H385.26C383.138 263.084 381.103 262.241 379.603 260.741C378.103 259.241 377.26 257.206 377.26 255.084C377.26 252.962 378.103 250.927 379.603 249.427C381.103 247.927 383.138 247.084 385.26 247.084H457.26C459.382 247.084 461.416 247.927 462.917 249.427C464.417 250.927 465.26 252.962 465.26 255.084C465.26 257.206 464.417 259.241 462.917 260.741C461.416 262.241 459.382 263.084 457.26 263.084Z" fill="#CCCCCC"/>
<path d="M457.26 293.084H385.26C383.138 293.084 381.103 292.241 379.603 290.741C378.103 289.241 377.26 287.206 377.26 285.084C377.26 282.962 378.103 280.927 379.603 279.427C381.103 277.927 383.138 277.084 385.26 277.084H457.26C459.382 277.084 461.416 277.927 462.917 279.427C464.417 280.927 465.26 282.962 465.26 285.084C465.26 287.206 464.417 289.241 462.917 290.741C461.416 292.241 459.382 293.084 457.26 293.084Z" fill="#CCCCCC"/>
<path d="M457.26 323.084H385.26C383.138 323.084 381.103 322.241 379.603 320.741C378.103 319.241 377.26 317.206 377.26 315.084C377.26 312.962 378.103 310.927 379.603 309.427C381.103 307.927 383.138 307.084 385.26 307.084H457.26C459.382 307.084 461.416 307.927 462.917 309.427C464.417 310.927 465.26 312.962 465.26 315.084C465.26 317.206 464.417 319.241 462.917 320.741C461.416 322.241 459.382 323.084 457.26 323.084Z" fill="#CCCCCC"/>
<path d="M776.76 456H655.76C651.253 455.994 646.932 454.202 643.745 451.015C640.557 447.828 638.765 443.507 638.76 439V257.168C638.765 252.661 640.557 248.34 643.745 245.153C646.932 241.966 651.253 240.173 655.76 240.168H776.76C781.267 240.173 785.588 241.966 788.775 245.153C791.962 248.34 793.755 252.661 793.76 257.168V439C793.755 443.507 791.962 447.828 788.775 451.015C785.588 454.202 781.267 455.994 776.76 456ZM655.76 242.168C651.783 242.172 647.97 243.754 645.158 246.566C642.346 249.378 640.764 253.191 640.76 257.168V439C640.764 442.976 642.346 446.789 645.158 449.601C647.97 452.413 651.783 453.995 655.76 454H776.76C780.737 453.995 784.549 452.413 787.361 449.601C790.173 446.789 791.755 442.976 791.76 439V257.168C791.755 253.191 790.173 249.378 787.361 246.566C784.549 243.754 780.737 242.172 776.76 242.168H655.76Z" fill="#3F3D56"/>
<path d="M752.26 285.084H680.26C678.138 285.084 676.103 284.241 674.603 282.741C673.103 281.241 672.26 279.206 672.26 277.084C672.26 274.962 673.103 272.927 674.603 271.427C676.103 269.927 678.138 269.084 680.26 269.084H752.26C754.382 269.084 756.416 269.927 757.917 271.427C759.417 272.927 760.26 274.962 760.26 277.084C760.26 279.206 759.417 281.241 757.917 282.741C756.416 284.241 754.382 285.084 752.26 285.084Z" fill="#CCCCCC"/>
<path d="M752.26 315.084H680.26C678.138 315.084 676.103 314.241 674.603 312.741C673.103 311.241 672.26 309.206 672.26 307.084C672.26 304.962 673.103 302.927 674.603 301.427C676.103 299.927 678.138 299.084 680.26 299.084H752.26C754.382 299.084 756.416 299.927 757.917 301.427C759.417 302.927 760.26 304.962 760.26 307.084C760.26 309.206 759.417 311.241 757.917 312.741C756.416 314.241 754.382 315.084 752.26 315.084Z" fill="#CCCCCC"/>
<path d="M758.26 391.584H674.26C672.006 391.581 669.846 390.685 668.252 389.091C666.659 387.498 665.762 385.337 665.76 383.084V343.084C665.762 340.83 666.659 338.67 668.252 337.077C669.846 335.483 672.006 334.587 674.26 334.584H758.26C760.513 334.587 762.674 335.483 764.267 337.077C765.861 338.67 766.757 340.83 766.76 343.084V383.084C766.757 385.337 765.861 387.498 764.267 389.091C762.674 390.685 760.513 391.581 758.26 391.584Z" fill="#E6E6E6"/>
<path d="M752.26 427.084H680.26C678.138 427.084 676.103 426.241 674.603 424.741C673.103 423.241 672.26 421.206 672.26 419.084C672.26 416.962 673.103 414.927 674.603 413.427C676.103 411.927 678.138 411.084 680.26 411.084H752.26C754.382 411.084 756.416 411.927 757.917 413.427C759.417 414.927 760.26 416.962 760.26 419.084C760.26 421.206 759.417 423.241 757.917 424.741C756.416 426.241 754.382 427.084 752.26 427.084Z" fill="#CCCCCC"/>
<path d="M702.76 167H581.76C577.253 166.994 572.932 165.202 569.745 162.015C566.557 158.828 564.765 154.507 564.76 150V37.168C564.765 32.6608 566.557 28.3398 569.745 25.1528C572.932 21.9657 577.253 20.173 581.76 20.168H702.76C707.267 20.173 711.588 21.9657 714.775 25.1528C717.962 28.3398 719.755 32.6608 719.76 37.168V150C719.755 154.507 717.962 158.828 714.775 162.015C711.588 165.202 707.267 166.994 702.76 167ZM581.76 22.168C577.783 22.1725 573.97 23.7543 571.158 26.5663C568.346 29.3784 566.764 33.1911 566.76 37.168V150C566.764 153.976 568.346 157.789 571.158 160.601C573.97 163.413 577.783 164.995 581.76 165H702.76C706.737 164.995 710.549 163.413 713.361 160.601C716.173 157.789 717.755 153.976 717.76 150V37.168C717.755 33.1911 716.173 29.3784 713.361 26.5663C710.549 23.7543 706.737 22.1725 702.76 22.168H581.76Z" fill="#3F3D56"/>
<path d="M678.26 131.584H606.26C604.138 131.584 602.103 130.741 600.603 129.241C599.103 127.741 598.26 125.706 598.26 123.584C598.26 121.462 599.103 119.427 600.603 117.927C602.103 116.427 604.138 115.584 606.26 115.584H678.26C680.382 115.584 682.416 116.427 683.917 117.927C685.417 119.427 686.26 121.462 686.26 123.584C686.26 125.706 685.417 127.741 683.917 129.241C682.416 130.741 680.382 131.584 678.26 131.584Z" fill="#CCCCCC"/>
<path d="M678.26 101.584H606.26C604.138 101.584 602.103 100.741 600.603 99.2408C599.103 97.7406 598.26 95.7057 598.26 93.584C598.26 91.4623 599.103 89.4274 600.603 87.9271C602.103 86.4268 604.138 85.584 606.26 85.584H678.26C680.382 85.584 682.416 86.4268 683.917 87.9271C685.417 89.4274 686.26 91.4623 686.26 93.584C686.26 95.7057 685.417 97.7406 683.917 99.2408C682.416 100.741 680.382 101.584 678.26 101.584Z" fill="#CCCCCC"/>
<path d="M678.26 71.584H606.26C604.138 71.584 602.103 70.7411 600.603 69.2408C599.103 67.7406 598.26 65.7057 598.26 63.584C598.26 61.4623 599.103 59.4274 600.603 57.9271C602.103 56.4268 604.138 55.584 606.26 55.584H678.26C680.382 55.584 682.416 56.4268 683.917 57.9271C685.417 59.4274 686.26 61.4623 686.26 63.584C686.26 65.7057 685.417 67.7406 683.917 69.2408C682.416 70.7411 680.382 71.584 678.26 71.584Z" fill="#CCCCCC"/>
<path d="M488.76 166C501.462 166 511.76 155.703 511.76 143C511.76 130.297 501.462 120 488.76 120C476.057 120 465.76 130.297 465.76 143C465.76 155.703 476.057 166 488.76 166Z" fill="#D32A3D"/>
<path d="M486.48 151.774C485.962 151.775 485.459 151.607 485.044 151.297L485.019 151.278L479.614 147.139C479.362 146.948 479.151 146.709 478.992 146.436C478.833 146.162 478.729 145.86 478.687 145.547C478.645 145.234 478.666 144.915 478.747 144.61C478.828 144.305 478.969 144.018 479.161 143.767C479.353 143.516 479.593 143.306 479.867 143.148C480.141 142.99 480.443 142.888 480.756 142.847C481.07 142.806 481.388 142.827 481.693 142.909C481.999 142.992 482.284 143.134 482.535 143.327L486.036 146.011L494.309 135.221C494.501 134.971 494.74 134.761 495.013 134.603C495.287 134.446 495.588 134.343 495.901 134.302C496.213 134.261 496.531 134.281 496.836 134.363C497.14 134.444 497.426 134.585 497.676 134.777L497.625 134.847L497.677 134.778C498.182 135.166 498.513 135.738 498.596 136.37C498.679 137.001 498.509 137.639 498.122 138.145L488.39 150.836C488.165 151.129 487.876 151.366 487.544 151.528C487.213 151.691 486.849 151.775 486.48 151.774Z" fill="white"/>
<path d="M788.76 269C801.462 269 811.76 258.703 811.76 246C811.76 233.297 801.462 223 788.76 223C776.057 223 765.76 233.297 765.76 246C765.76 258.703 776.057 269 788.76 269Z" fill="#3F3D56"/>
<path d="M786.48 254.774C785.962 254.775 785.459 254.607 785.044 254.297L785.019 254.278L779.614 250.139C779.362 249.948 779.151 249.709 778.992 249.436C778.833 249.162 778.729 248.86 778.687 248.547C778.645 248.234 778.666 247.915 778.747 247.61C778.828 247.305 778.969 247.018 779.161 246.767C779.353 246.516 779.593 246.306 779.867 246.148C780.141 245.99 780.443 245.888 780.756 245.847C781.07 245.806 781.388 245.827 781.693 245.909C781.999 245.992 782.284 246.134 782.535 246.327L786.036 249.011L794.309 238.221C794.501 237.971 794.74 237.761 795.013 237.603C795.287 237.446 795.588 237.343 795.901 237.302C796.213 237.261 796.531 237.281 796.836 237.363C797.14 237.444 797.426 237.585 797.676 237.777L797.625 237.847L797.677 237.778C798.182 238.166 798.513 238.738 798.596 239.37C798.679 240.001 798.509 240.639 798.122 241.145L788.39 253.836C788.165 254.129 787.876 254.366 787.544 254.528C787.213 254.691 786.849 254.775 786.48 254.774Z" fill="white"/>
<path d="M715.76 46C728.462 46 738.76 35.7025 738.76 23C738.76 10.2975 728.462 0 715.76 0C703.057 0 692.76 10.2975 692.76 23C692.76 35.7025 703.057 46 715.76 46Z" fill="#3F3D56"/>
<path d="M713.48 31.7736C712.962 31.7745 712.459 31.6072 712.044 31.2968L712.019 31.2775L706.614 27.1392C706.362 26.9478 706.151 26.7087 705.992 26.4355C705.833 26.1623 705.729 25.8604 705.687 25.5472C705.645 25.2339 705.666 24.9154 705.747 24.61C705.828 24.3046 705.969 24.0182 706.161 23.7673C706.353 23.5164 706.593 23.3059 706.867 23.1479C707.141 22.99 707.443 22.8876 707.756 22.8466C708.07 22.8057 708.388 22.827 708.693 22.9094C708.999 22.9918 709.284 23.1337 709.535 23.3268L713.036 26.0114L721.309 15.2215C721.501 14.9712 721.74 14.7612 722.013 14.6034C722.287 14.4456 722.588 14.3432 722.901 14.3019C723.213 14.2606 723.531 14.2813 723.836 14.3629C724.14 14.4444 724.426 14.5851 724.676 14.777L724.625 14.8469L724.677 14.778C725.182 15.166 725.513 15.7384 725.596 16.3696C725.679 17.0008 725.509 17.6392 725.122 18.1449L715.39 30.8364C715.165 31.1288 714.876 31.3655 714.544 31.528C714.213 31.6906 713.849 31.7746 713.48 31.7736Z" fill="white"/>
<path d="M382 620H1C0.734784 620 0.480429 619.895 0.292892 619.707C0.105356 619.52 0 619.265 0 619C0 618.735 0.105356 618.48 0.292892 618.293C0.480429 618.105 0.734784 618 1 618H382C382.265 618 382.52 618.105 382.707 618.293C382.895 618.48 383 618.735 383 619C383 619.265 382.895 619.52 382.707 619.707C382.52 619.895 382.265 620 382 620Z" fill="#3F3D56"/>
</svg>
