<svg width="114" height="114" viewBox="0 0 114 114" fill="currentColor" xmlns="http://www.w3.org/2000/svg">
<path d="M47.4926 85.5C47.4926 66.1289 62.0098 50.1645 80.7352 47.8266C80.7352 47.6262 80.7352 47.4926 80.7352 47.4926C81.9598 45.7113 85.4777 42.75 85.4777 37.9852C85.4777 33.2203 80.7352 28.4777 80.7352 26.1176C80.7574 7.125 71.0719 0 57 0C43.5293 0 33.2426 7.125 33.2426 26.1176C33.2426 28.5 28.5 33.2426 28.5 37.9852C28.5 42.7277 31.8844 45.8672 33.2426 47.4926C33.2426 47.4926 33.2426 52.2352 35.625 59.3602C35.625 61.7426 40.3676 64.1027 42.75 66.4852C42.75 68.8676 42.75 71.2277 40.3676 75.9926L14.25 80.7574C4.74258 83.1176 0 99.75 0 114H60.4289C52.5246 107.031 47.4926 96.8555 47.4926 85.5ZM85.5 57C69.7582 57 57 69.7582 57 85.5C57 101.242 69.7582 114 85.5 114C101.242 114 114 101.242 114 85.5C114 69.7582 101.242 57 85.5 57ZM104.493 90.2426H90.2426V104.493H80.7352V90.2426H66.4852V80.7352H80.7352V66.4852H90.2426V80.7352H104.493V90.2426Z" />
</svg>
