<svg width="139" height="127" viewBox="0 0 139 127" fill="currentColor" xmlns="http://www.w3.org/2000/svg">
<path d="M110.775 44.1001H28.225C24.718 44.1001 21.875 46.9431 21.875 50.4501V113.95C21.875 117.457 24.718 120.3 28.225 120.3H110.775C114.282 120.3 117.125 117.457 117.125 113.95V50.4501C117.125 46.9431 114.282 44.1001 110.775 44.1001Z" fill="currentColor" stroke="currentColor" stroke-width="12"/>
<path d="M47.2758 75.8499C50.7828 75.8499 53.6258 73.0069 53.6258 69.4999C53.6258 65.9929 50.7828 63.1499 47.2758 63.1499C43.7688 63.1499 40.9258 65.9929 40.9258 69.4999C40.9258 73.0069 43.7688 75.8499 47.2758 75.8499Z" fill="none"/>
<path d="M91.725 75.8499C95.232 75.8499 98.075 73.0069 98.075 69.4999C98.075 65.9929 95.232 63.1499 91.725 63.1499C88.218 63.1499 85.375 65.9929 85.375 69.4999C85.375 73.0069 88.218 75.8499 91.725 75.8499Z" fill="none"/>
<path d="M56.7992 88.5498C53.2921 88.5498 50.4492 91.3927 50.4492 94.8998C50.4492 98.4069 53.2921 101.25 56.7992 101.25V88.5498ZM82.1992 101.25C85.7063 101.25 88.5491 98.4069 88.5491 94.8998C88.5491 91.3927 85.7063 88.5498 82.1992 88.5498V101.25ZM56.7992 101.25H82.1992V88.5498H56.7992V101.25Z" fill="none"/>
<path d="M69.5 18.7V44.0999" stroke="currentColor" stroke-width="12" stroke-linecap="round" stroke-linejoin="round"/>
<path d="M6 69.5V94.8999" stroke="currentColor" stroke-width="12" stroke-linecap="round" stroke-linejoin="round"/>
<path d="M133 69.5V94.8999" stroke="currentColor" stroke-width="12" stroke-linecap="round" stroke-linejoin="round"/>
<path d="M69.5004 18.7C73.0074 18.7 75.8504 15.857 75.8504 12.35C75.8504 8.84299 73.0074 6 69.5004 6C65.9934 6 63.1504 8.84299 63.1504 12.35C63.1504 15.857 65.9934 18.7 69.5004 18.7Z" stroke="currentColor" stroke-width="12"/>
</svg>
