<svg width="62" height="62" viewBox="0 0 62 62" fill="none" xmlns="http://www.w3.org/2000/svg">
<path d="M4.375 0H0V56.875C0 58.0353 0.460936 59.1481 1.28141 59.9686C2.10188 60.7891 3.21468 61.25 4.375 61.25H61.25V56.875H4.375V0Z" fill="#F32845"/>
<path d="M61.25 15.3125H45.9375V19.6875H53.7906L37.1875 36.2906L27.8031 26.8844C27.5998 26.6793 27.3578 26.5166 27.0913 26.4056C26.8247 26.2945 26.5388 26.2373 26.25 26.2373C25.9612 26.2373 25.6753 26.2945 25.4087 26.4056C25.1422 26.5166 24.9002 26.6793 24.6969 26.8844L8.75 42.8531L11.8344 45.9375L26.25 31.5219L35.6344 40.9281C35.8377 41.1332 36.0797 41.2959 36.3462 41.407C36.6128 41.518 36.8987 41.5752 37.1875 41.5752C37.4763 41.5752 37.7622 41.518 38.0288 41.407C38.2953 41.2959 38.5373 41.1332 38.7406 40.9281L56.875 22.7719V30.625H61.25V15.3125Z" fill="#F32845"/>
</svg>
