<svg width="108" height="114" viewBox="0 0 108 114" fill="currentColor" xmlns="http://www.w3.org/2000/svg">
<path d="M105.316 86.384L90.3613 68.3568C88.0606 65.6719 84.993 64.1377 81.542 64.1377H27.0926C23.6416 64.1377 20.574 65.6719 18.2733 68.3568L3.31889 86.384C1.40166 88.3018 0.634766 90.9867 0.634766 93.6716V102.493C0.634766 109.014 5.61957 114 12.1382 114H96.4964C103.015 114 108 109.014 108 102.493V93.6716C108 90.9867 107.233 88.3018 105.316 86.384ZM24.4085 73.3431C25.1754 72.1924 25.9422 71.8088 27.0926 71.8088H81.1586C82.3089 71.8088 83.4593 72.1924 84.2262 73.3431L95.7295 87.1511H12.5216L24.4085 73.3431Z" />
<path d="M55.9513 0.287585C54.801 -0.0958617 53.6506 -0.0958617 52.5003 0.287585L29.877 11.791L54.4175 22.5275L78.9581 11.791L55.9513 0.287585Z" />
<path d="M27.5762 42.0832C27.5762 43.617 28.3431 44.7673 29.8769 45.5342L50.583 55.8873V29.046L27.5762 19.0764V42.0832Z" />
<path d="M58.252 29.046V55.8873L78.9581 45.5342C80.1084 44.7673 81.2588 43.617 81.2588 42.0832V19.0764L58.252 29.046Z" />
</svg>
