<svg width="61" height="81" viewBox="0 0 61 81" fill="none" xmlns="http://www.w3.org/2000/svg">
<path d="M3.38329 58.6643C3.93409 57.5075 5.09328 56.7631 6.3744 56.7435L36.2845 56.2862C38.7743 56.2482 40.4458 58.8284 39.3932 61.0851C38.8468 62.2565 37.6792 63.0127 36.3868 63.0321L6.47665 63.4825C3.97801 63.5201 2.30903 60.9205 3.38329 58.6643Z" fill="#EFEFEF"/>
<path d="M7.81583 48.8691C8.36872 47.7079 9.53366 46.962 10.8197 46.9457L40.6231 46.5685C43.1123 46.537 44.7791 49.1175 43.7268 51.3736C43.1784 52.5493 42.0051 53.3071 40.7078 53.3232L10.9043 53.6937C8.40624 53.7248 6.74184 51.1248 7.81583 48.8691Z" fill="#EFEFEF"/>
<path d="M17.0533 28.8601C17.6039 27.7036 18.7627 26.9593 20.0434 26.9395L49.4535 26.4838C51.9434 26.4452 53.6152 29.0254 52.5626 31.2822C52.0164 32.4532 50.8493 33.2093 49.5573 33.229L20.147 33.6778C17.6484 33.716 15.979 31.1164 17.0533 28.8601Z" fill="#EFEFEF"/>
<path d="M12.3158 38.8692C12.8687 37.7079 14.0337 36.962 15.3197 36.9457L45.123 36.5685C47.6123 36.537 49.2791 39.1175 48.2268 41.3736C47.6784 42.5493 46.505 43.3071 45.2078 43.3232L15.4043 43.6937C12.9062 43.7248 11.2418 41.1248 12.3158 38.8692Z" fill="#EFEFEF"/>
<path d="M21.5533 18.8601C22.1039 17.7036 23.2627 16.9593 24.5434 16.9395L53.9535 16.4838C56.4434 16.4452 58.1152 19.0254 57.0626 21.2822C56.5164 22.4532 55.3493 23.2093 54.0573 23.229L24.647 23.6778C22.1484 23.716 20.479 21.1164 21.5533 18.8601Z" fill="#EFEFEF"/>
</svg>
