<svg width="85" height="114" viewBox="0 0 85 114" fill="currentColor" xmlns="http://www.w3.org/2000/svg">
<path fill-rule="evenodd" clip-rule="evenodd" d="M52.5956 17.3286C66.6397 18.681 77.6528 22.8679 78.8733 35.34C79.7021 44.4324 75.7722 49.8424 69.274 52.8912C79.7651 55.4455 86.1472 61.4511 84.8283 74.7727C83.2225 91.4708 70.4165 95.8078 52.1076 96.7226L52.1359 113.962L41.3529 113.975L41.3246 96.7362C40.1459 96.7191 38.9134 96.7369 37.6498 96.754C35.9611 96.7775 34.2165 96.8024 32.4676 96.7476L32.4967 113.986L21.7331 114L21.7044 96.7611L0.140251 96.345L1.95748 83.7466C1.95748 83.7466 10.1019 83.9212 9.95087 83.83C12.9492 83.8143 13.839 81.7409 14.0607 80.3793L14.0071 52.7444L14.0917 33.0764C13.7606 31.0263 12.3304 28.5665 7.92235 28.4918C8.1624 28.2818 0.0272707 28.5017 0.0272707 28.5017L0 16.9518L22.0978 16.924L22.0697 0.0382622L33.2022 0.0242952L33.2305 16.9101C35.3796 16.852 37.4996 16.8687 39.643 16.8854C40.3471 16.891 41.0533 16.8965 41.7638 16.8994L41.7354 0.0136068L52.5673 0L52.5956 17.3286ZM31.9052 49.0993L32.452 49.1221C39.0055 49.4006 58.4379 50.2271 58.4677 38.735C58.4379 27.8242 41.8998 28.1762 34.2158 28.3398C33.3084 28.3591 32.5243 28.3758 31.9052 28.371V49.0993ZM32.8232 82.9486C32.479 82.9351 32.1623 82.9223 31.8747 82.9116V62.1836C32.5597 62.19 33.4203 62.1793 34.4155 62.1672C43.4971 62.0567 63.7809 61.8102 63.6845 72.8098C63.7865 84.1869 40.8918 83.2714 32.8232 82.9486Z" />
</svg>
