<svg width="84" height="114" viewBox="0 0 84 114" fill="currentColor" xmlns="http://www.w3.org/2000/svg">
<path fill-rule="evenodd" clip-rule="evenodd" d="M46.5497 28.1295L55.9123 37.506L46.5497 46.8825V28.1295ZM46.5497 85.8705L55.9123 76.494L46.5497 67.1175V85.8705ZM36.5183 57.0641L16.1853 36.5726L22.0689 30.6803L38.2543 46.8825V8.037L67.6866 37.506L48.2856 57.0713L67.8147 76.6294L38.3894 106.105V67.1175L22.0689 83.3197L16.1853 77.4274L36.5183 57.0713V57.0641ZM41.9964 114C66.8827 114 84 102.208 84 56.9287C84 11.7919 66.8827 0 42.0036 0C17.1244 0 0 11.7919 0 57.0713C0 102.201 17.1173 114 41.9964 114Z" />
</svg>
