<svg width="76" height="90" viewBox="0 0 76 90" fill="none" xmlns="http://www.w3.org/2000/svg">
<path d="M29.0865 43.6336H23.2692V37.8163H29.0865V43.6336ZM52.3558 43.6336H46.5385V37.8163H52.3558V43.6336ZM75.625 37.8163V49.4509H69.8077V63.9942C69.8077 65.2061 69.5805 66.3423 69.126 67.4028C68.6715 68.4632 68.0504 69.3873 67.2626 70.1751C66.4749 70.9628 65.5508 71.5839 64.4903 72.0384C63.4299 72.4929 62.2937 72.7201 61.0817 72.7201H49.0835L29.0865 89.8085V72.7201H14.5433C13.3313 72.7201 12.1951 72.4929 11.1347 72.0384C10.0742 71.5839 9.15014 70.9628 8.36238 70.1751C7.57462 69.3873 6.9535 68.4632 6.49902 67.4028C6.04455 66.3423 5.81731 65.2061 5.81731 63.9942V49.4509H0V37.8163H5.81731V29.0903C5.81731 27.8784 6.04455 26.7422 6.49902 25.6817C6.9535 24.6213 7.57462 23.6972 8.36238 22.9094C9.15014 22.1217 10.0742 21.5006 11.1347 21.0461C12.1951 20.5916 13.3313 20.3644 14.5433 20.3644H34.9038V10.8658C34.0252 10.3507 33.3283 9.6387 32.8133 8.72975C32.2982 7.82079 32.0255 6.85124 31.9952 5.82109C31.9952 5.00304 32.1467 4.24557 32.4497 3.54871C32.7527 2.85184 33.1617 2.24587 33.6768 1.7308C34.1918 1.21573 34.813 0.791548 35.5401 0.458264C36.2673 0.124981 37.0247 -0.0265112 37.8125 0.00378731C38.6306 0.00378731 39.388 0.15528 40.0849 0.458264C40.7817 0.761249 41.3877 1.17028 41.9028 1.68535C42.4179 2.20043 42.842 2.82155 43.1753 3.54871C43.5086 4.27587 43.6601 5.03333 43.6298 5.82109C43.6298 6.85124 43.3723 7.82079 42.8572 8.72975C42.3421 9.6387 41.6301 10.3507 40.7212 10.8658V20.3644H61.0817C62.2937 20.3644 63.4299 20.5916 64.4903 21.0461C65.5508 21.5006 66.4749 22.1217 67.2626 22.9094C68.0504 23.6972 68.6715 24.6213 69.126 25.6817C69.5805 26.7422 69.8077 27.8784 69.8077 29.0903V37.8163H75.625ZM63.9904 29.0903C63.9904 28.3026 63.7025 27.6208 63.1269 27.0452C62.5512 26.4695 61.8695 26.1817 61.0817 26.1817H14.5433C13.7555 26.1817 13.0738 26.4695 12.4981 27.0452C11.9225 27.6208 11.6346 28.3026 11.6346 29.0903V63.9942C11.6346 64.7819 11.9225 65.4637 12.4981 66.0393C13.0738 66.615 13.7555 66.9028 14.5433 66.9028H34.9038V77.174L46.902 66.9028H61.0817C61.8695 66.9028 62.5512 66.615 63.1269 66.0393C63.7025 65.4637 63.9904 64.7819 63.9904 63.9942V29.0903ZM25.3144 50.0872C26.9808 51.7536 28.8896 53.0261 31.0408 53.9048C33.192 54.7834 35.4492 55.2379 37.8125 55.2682C40.1758 55.2682 42.433 54.8289 44.5842 53.9502C46.7354 53.0716 48.6442 51.7839 50.3106 50.0872L54.4009 54.2229C52.1891 56.4347 49.6592 58.1314 46.8111 59.3131C43.9631 60.4947 40.9635 61.0855 37.8125 61.0855C34.6918 61.0855 31.7074 60.4947 28.8593 59.3131C26.0112 58.1314 23.4662 56.4347 21.2241 54.2229L25.3144 50.0872Z" fill="white"/>
</svg>
