<svg width="50" height="52" viewBox="0 0 50 52" fill="none" xmlns="http://www.w3.org/2000/svg">
<path d="M33.2486 17.7208L21.4403 29.983L16.8218 25.1713C16.3517 24.6841 15.7141 24.4105 15.0493 24.4105C14.3844 24.4105 13.7469 24.6841 13.2768 25.1713C12.8067 25.6584 12.5426 26.3191 12.5426 27.008C12.5426 27.3491 12.6074 27.6869 12.7334 28.0021C12.8593 28.3172 13.044 28.6036 13.2768 28.8448L19.6677 35.4674C19.8998 35.7099 20.1759 35.9024 20.4802 36.0337C20.7844 36.165 21.1107 36.2327 21.4403 36.2327C21.7698 36.2327 22.0961 36.165 22.4003 36.0337C22.7046 35.9024 22.9807 35.7099 23.2128 35.4674L36.7936 21.3943C37.0264 21.1531 37.211 20.8667 37.337 20.5516C37.463 20.2364 37.5278 19.8987 37.5278 19.5575C37.5278 19.2164 37.463 18.8786 37.337 18.5635C37.211 18.2483 37.0264 17.962 36.7936 17.7208C36.5608 17.4796 36.2845 17.2882 35.9804 17.1577C35.6763 17.0272 35.3503 16.96 35.0211 16.96C34.6919 16.96 34.366 17.0272 34.0618 17.1577C33.7577 17.2882 33.4814 17.4796 33.2486 17.7208ZM25.0352 0C21.7568 0 18.5104 0.669141 15.4816 1.96922C12.4527 3.26929 9.70059 5.17485 7.38239 7.57708C2.70058 12.4286 0.0703668 19.0087 0.0703668 25.8698C0.0485421 31.8434 2.04457 37.6367 5.71242 42.2453L0.719452 47.4193C0.373046 47.783 0.138386 48.245 0.0450823 48.7469C-0.0482215 49.2487 0.00401159 49.7679 0.195191 50.2391C0.402543 50.7045 0.738685 51.0957 1.16095 51.3628C1.58321 51.63 2.07255 51.7611 2.56685 51.7395H25.0352C31.6563 51.7395 38.0062 49.014 42.688 44.1624C47.3698 39.3109 50 32.7308 50 25.8698C50 19.0087 47.3698 12.4286 42.688 7.57708C38.0062 2.72556 31.6563 0 25.0352 0ZM25.0352 46.5656H8.58337L10.9051 44.1597C11.3701 43.675 11.6311 43.0193 11.6311 42.3358C11.6311 41.6524 11.3701 40.9967 10.9051 40.512C7.63617 37.1284 5.60051 32.6749 5.14494 27.9103C4.68938 23.1458 5.84209 18.365 8.40669 14.3823C10.9713 10.3997 14.7891 7.46176 19.2097 6.06897C23.6303 4.67618 28.3801 4.91475 32.65 6.74402C36.9199 8.57329 40.4456 11.8801 42.6265 16.1011C44.8074 20.322 45.5085 25.196 44.6104 29.8925C43.7123 34.5891 41.2706 38.8177 37.7012 41.8579C34.1318 44.8981 29.6556 46.5618 25.0352 46.5656Z" fill="#D32A3D" fill-opacity="0.8"/>
</svg>
