<svg width="224" height="206" viewBox="0 0 224 206" fill="none" xmlns="http://www.w3.org/2000/svg">
<mask id="path-1-outside-1_217_552" maskUnits="userSpaceOnUse" x="141.079" y="0" width="83" height="83" fill="black">
<rect fill="white" x="141.079" width="83" height="83"/>
<path d="M217.913 36.6271L213.175 35.9167C212.479 35.8102 211.903 35.2845 211.747 34.6026C210.987 31.1928 209.637 28.0033 207.84 25.1405C207.471 24.5509 207.499 23.7766 207.918 23.2225L210.767 19.3652C211.356 18.5767 211.264 17.4756 210.568 16.7795L209.95 16.1615L207.456 13.6681L206.838 13.0501C206.142 12.3539 205.041 12.2758 204.253 12.8512L200.409 15.6855C199.834 16.1046 199.074 16.133 198.491 15.7637C195.629 13.938 192.432 12.5883 189.008 11.8282C188.312 11.6719 187.8 11.1037 187.694 10.4004L186.984 5.70488C186.841 4.71037 185.989 4 185.009 4H184.128H180.597H179.717C178.722 4 177.891 4.71037 177.749 5.69067L177.038 10.3862C176.932 11.0823 176.406 11.6577 175.724 11.814C172.3 12.5883 169.111 13.938 166.241 15.7494C165.651 16.1188 164.877 16.0904 164.323 15.6713L160.48 12.8369C159.691 12.2473 158.59 12.3397 157.894 13.0359L157.276 13.6539L154.733 16.133L154.115 16.7511C153.419 17.4472 153.341 18.5483 153.916 19.3368L156.765 23.1941C157.184 23.7553 157.212 24.5296 156.843 25.1121C155.031 27.9748 153.696 31.1715 152.936 34.5741C152.779 35.2703 152.211 35.796 151.508 35.8883L146.77 36.5987C145.797 36.7407 145.079 37.5932 145.079 38.5664V39.4472V42.9778V43.8586C145.079 44.8531 145.789 45.6843 146.77 45.8263L151.543 46.5509C152.24 46.6575 152.815 47.1689 152.971 47.8651C153.746 51.2606 155.095 54.436 156.907 57.2845C157.276 57.8741 157.248 58.62 156.829 59.1741L153.93 63.1095C153.341 63.898 153.433 64.9991 154.129 65.6953L154.747 66.3133L157.241 68.8067L157.859 69.4247C158.555 70.1208 159.656 70.199 160.444 69.6236L164.394 66.7111C164.955 66.3062 165.694 66.2778 166.284 66.6329C169.132 68.4302 172.293 69.7585 175.689 70.5399C176.385 70.6962 176.896 71.2645 177.003 71.9678L177.727 76.7841C177.87 77.7573 178.722 78.4747 179.695 78.4747H180.576H184.107H184.987C185.982 78.4747 186.813 77.7644 186.955 76.7841L187.68 71.9678C187.786 71.2716 188.312 70.6962 188.994 70.5399C192.389 69.7799 195.543 68.4515 198.399 66.6329C198.989 66.2635 199.735 66.292 200.289 66.7111L204.238 69.6236C205.027 70.2132 206.128 70.1208 206.824 69.4247L207.442 68.8067L209.935 66.3133L210.553 65.6953C211.25 64.9991 211.328 63.898 210.752 63.1095L207.826 59.1883C207.421 58.6271 207.392 57.8883 207.748 57.2987C209.559 54.4502 210.909 51.2748 211.683 47.8793C211.839 47.1831 212.408 46.6717 213.111 46.5651L217.884 45.8405C218.858 45.6985 219.575 44.846 219.575 43.8728V42.992V39.4614V38.5806C219.604 37.6145 218.872 36.7763 217.913 36.6271ZM182.345 65.0488C169.175 65.063 158.505 54.3933 158.519 41.2232C158.533 28.2732 169.359 17.4259 182.316 17.4259C195.487 17.4117 206.156 28.0814 206.142 41.2516C206.142 54.2086 195.295 65.0488 182.345 65.0488Z"/>
</mask>
<path d="M217.913 36.6271L213.175 35.9167C212.479 35.8102 211.903 35.2845 211.747 34.6026C210.987 31.1928 209.637 28.0033 207.84 25.1405C207.471 24.5509 207.499 23.7766 207.918 23.2225L210.767 19.3652C211.356 18.5767 211.264 17.4756 210.568 16.7795L209.95 16.1615L207.456 13.6681L206.838 13.0501C206.142 12.3539 205.041 12.2758 204.253 12.8512L200.409 15.6855C199.834 16.1046 199.074 16.133 198.491 15.7637C195.629 13.938 192.432 12.5883 189.008 11.8282C188.312 11.6719 187.8 11.1037 187.694 10.4004L186.984 5.70488C186.841 4.71037 185.989 4 185.009 4H184.128H180.597H179.717C178.722 4 177.891 4.71037 177.749 5.69067L177.038 10.3862C176.932 11.0823 176.406 11.6577 175.724 11.814C172.3 12.5883 169.111 13.938 166.241 15.7494C165.651 16.1188 164.877 16.0904 164.323 15.6713L160.48 12.8369C159.691 12.2473 158.59 12.3397 157.894 13.0359L157.276 13.6539L154.733 16.133L154.115 16.7511C153.419 17.4472 153.341 18.5483 153.916 19.3368L156.765 23.1941C157.184 23.7553 157.212 24.5296 156.843 25.1121C155.031 27.9748 153.696 31.1715 152.936 34.5741C152.779 35.2703 152.211 35.796 151.508 35.8883L146.77 36.5987C145.797 36.7407 145.079 37.5932 145.079 38.5664V39.4472V42.9778V43.8586C145.079 44.8531 145.789 45.6843 146.77 45.8263L151.543 46.5509C152.24 46.6575 152.815 47.1689 152.971 47.8651C153.746 51.2606 155.095 54.436 156.907 57.2845C157.276 57.8741 157.248 58.62 156.829 59.1741L153.93 63.1095C153.341 63.898 153.433 64.9991 154.129 65.6953L154.747 66.3133L157.241 68.8067L157.859 69.4247C158.555 70.1208 159.656 70.199 160.444 69.6236L164.394 66.7111C164.955 66.3062 165.694 66.2778 166.284 66.6329C169.132 68.4302 172.293 69.7585 175.689 70.5399C176.385 70.6962 176.896 71.2645 177.003 71.9678L177.727 76.7841C177.87 77.7573 178.722 78.4747 179.695 78.4747H180.576H184.107H184.987C185.982 78.4747 186.813 77.7644 186.955 76.7841L187.68 71.9678C187.786 71.2716 188.312 70.6962 188.994 70.5399C192.389 69.7799 195.543 68.4515 198.399 66.6329C198.989 66.2635 199.735 66.292 200.289 66.7111L204.238 69.6236C205.027 70.2132 206.128 70.1208 206.824 69.4247L207.442 68.8067L209.935 66.3133L210.553 65.6953C211.25 64.9991 211.328 63.898 210.752 63.1095L207.826 59.1883C207.421 58.6271 207.392 57.8883 207.748 57.2987C209.559 54.4502 210.909 51.2748 211.683 47.8793C211.839 47.1831 212.408 46.6717 213.111 46.5651L217.884 45.8405C218.858 45.6985 219.575 44.846 219.575 43.8728V42.992V39.4614V38.5806C219.604 37.6145 218.872 36.7763 217.913 36.6271ZM182.345 65.0488C169.175 65.063 158.505 54.3933 158.519 41.2232C158.533 28.2732 169.359 17.4259 182.316 17.4259C195.487 17.4117 206.156 28.0814 206.142 41.2516C206.142 54.2086 195.295 65.0488 182.345 65.0488Z" fill="#F8334E"/>
<path d="M217.913 36.6271L218.528 32.6746L218.517 32.6729L218.506 32.6713L217.913 36.6271ZM213.175 35.9167L212.57 39.8707L212.582 39.8725L213.175 35.9167ZM211.747 34.6026L207.843 35.4729L207.845 35.4845L207.848 35.4961L211.747 34.6026ZM207.84 25.1405L204.45 27.2641L204.452 27.2673L207.84 25.1405ZM207.918 23.2225L211.108 25.6356L211.122 25.6172L211.136 25.5987L207.918 23.2225ZM210.767 19.3652L207.563 16.9698L207.556 16.9794L207.549 16.989L210.767 19.3652ZM210.568 16.7795L207.739 19.6079L207.739 19.6079L210.568 16.7795ZM209.95 16.1615L212.778 13.333L212.778 13.333L209.95 16.1615ZM207.456 13.6681L204.628 16.4965L204.628 16.4965L207.456 13.6681ZM206.838 13.0501L209.667 10.2216L209.667 10.2216L206.838 13.0501ZM204.253 12.8512L201.895 9.61999L201.886 9.62596L201.878 9.63198L204.253 12.8512ZM200.409 15.6855L202.765 18.9187L202.774 18.9117L202.784 18.9047L200.409 15.6855ZM198.491 15.7637L196.341 19.1362L196.349 19.1417L198.491 15.7637ZM189.008 11.8282L188.132 15.7311L188.141 15.7332L189.008 11.8282ZM187.694 10.4004L183.739 10.9987L183.739 10.9996L187.694 10.4004ZM186.984 5.70488L183.024 6.27056L183.026 6.2869L183.029 6.30321L186.984 5.70488ZM177.749 5.69067L181.704 6.28901L181.706 6.2767L181.707 6.26439L177.749 5.69067ZM177.038 10.3862L180.992 10.9914L180.993 10.9845L177.038 10.3862ZM175.724 11.814L176.607 15.7155L176.618 15.713L175.724 11.814ZM166.241 15.7494L168.365 19.1392L168.376 19.132L166.241 15.7494ZM164.323 15.6713L166.736 12.4811L166.717 12.4665L166.697 12.4521L164.323 15.6713ZM160.48 12.8369L158.084 16.0404L158.095 16.0483L158.106 16.0561L160.48 12.8369ZM157.894 13.0359L155.066 10.2074L155.066 10.2074L157.894 13.0359ZM157.276 13.6539L160.068 16.5181L160.087 16.5003L160.105 16.4823L157.276 13.6539ZM154.733 16.133L151.941 13.2688L151.923 13.2866L151.905 13.3046L154.733 16.133ZM154.115 16.7511L156.943 19.5795L156.943 19.5795L154.115 16.7511ZM153.916 19.3368L150.685 21.6947L150.692 21.7039L150.698 21.713L153.916 19.3368ZM156.765 23.1941L153.547 25.5703L153.553 25.579L153.56 25.5876L156.765 23.1941ZM156.843 25.1121L153.465 22.9699L153.463 22.9733L156.843 25.1121ZM152.936 34.5741L156.839 35.4503L156.84 35.4462L152.936 34.5741ZM151.508 35.8883L150.987 31.9224L150.951 31.9271L150.915 31.9325L151.508 35.8883ZM146.77 36.5987L147.348 40.5567L147.355 40.5556L147.363 40.5545L146.77 36.5987ZM146.77 45.8263L147.37 41.8716L147.357 41.8696L147.343 41.8677L146.77 45.8263ZM151.543 46.5509L152.149 42.5969L152.144 42.5962L151.543 46.5509ZM152.971 47.8651L149.068 48.7412L149.071 48.7544L152.971 47.8651ZM156.907 57.2845L160.296 55.1609L160.289 55.1495L160.282 55.1381L156.907 57.2845ZM156.829 59.1741L153.638 56.761L153.623 56.7815L153.608 56.8021L156.829 59.1741ZM153.93 63.1095L157.134 65.5049L157.142 65.4932L157.151 65.4815L153.93 63.1095ZM154.129 65.6953L151.301 68.5237L151.301 68.5237L154.129 65.6953ZM154.747 66.3133L157.576 63.4848L157.576 63.4848L154.747 66.3133ZM157.241 68.8067L154.412 71.6351L154.412 71.6351L157.241 68.8067ZM160.444 69.6236L162.802 72.8547L162.81 72.8488L162.818 72.8429L160.444 69.6236ZM164.394 66.7111L162.053 63.4673L162.037 63.4794L162.02 63.4917L164.394 66.7111ZM166.284 66.6329L168.418 63.25L168.383 63.2279L168.348 63.2066L166.284 66.6329ZM175.689 70.5399L174.792 74.4381L174.802 74.4405L174.813 74.4428L175.689 70.5399ZM177.003 71.9678L180.958 71.3727L180.958 71.3686L177.003 71.9678ZM177.727 76.7841L181.686 76.2062L181.684 76.1976L181.683 76.189L177.727 76.7841ZM186.955 76.7841L183 76.189L182.998 76.1997L182.996 76.2103L186.955 76.7841ZM187.68 71.9678L183.726 71.3626L183.724 71.3727L187.68 71.9678ZM188.994 70.5399L188.12 66.6365L188.11 66.6388L188.1 66.641L188.994 70.5399ZM198.399 66.6329L196.275 63.2432L196.263 63.2511L196.251 63.259L198.399 66.6329ZM200.289 66.7111L197.876 69.9012L197.895 69.9159L197.915 69.9304L200.289 66.7111ZM204.238 69.6236L206.634 66.4201L206.623 66.4121L206.612 66.4042L204.238 69.6236ZM206.824 69.4247L203.996 66.5962L203.996 66.5962L206.824 69.4247ZM207.442 68.8067L210.27 71.6351L210.271 71.6351L207.442 68.8067ZM209.935 66.3133L212.764 69.1417H212.764L209.935 66.3133ZM210.553 65.6953L207.725 62.8668L207.725 62.8668L210.553 65.6953ZM210.752 63.1095L213.984 60.7516L213.971 60.7342L213.958 60.717L210.752 63.1095ZM207.826 59.1883L204.582 61.5288L204.601 61.555L204.62 61.5809L207.826 59.1883ZM207.748 57.2987L204.372 55.1523L204.346 55.1932L204.321 55.2347L207.748 57.2987ZM211.683 47.8793L215.583 48.7686L215.586 48.7554L211.683 47.8793ZM213.111 46.5651L213.71 50.52L213.711 50.5198L213.111 46.5651ZM217.884 45.8405L217.307 41.8825L217.295 41.8841L217.284 41.8858L217.884 45.8405ZM219.575 38.5806L215.577 38.463L215.575 38.5218V38.5806H219.575ZM182.345 65.0488V61.0488L182.341 61.0488L182.345 65.0488ZM158.519 41.2232L154.519 41.2188V41.2188L158.519 41.2232ZM182.316 17.4259V21.4259L182.321 21.4259L182.316 17.4259ZM206.142 41.2516L202.142 41.2473V41.2516H206.142ZM218.506 32.6713L213.768 31.9609L212.582 39.8725L217.32 40.5829L218.506 32.6713ZM213.78 31.9628C214.668 32.0988 215.427 32.7557 215.646 33.709L207.848 35.4961C208.379 37.8133 210.289 39.5216 212.57 39.8707L213.78 31.9628ZM215.651 33.7322C214.787 29.8573 213.256 26.245 211.228 23.0137L204.452 27.2673C206.018 29.7615 207.186 32.5283 207.843 35.4729L215.651 33.7322ZM211.23 23.0168C211.727 23.81 211.708 24.8427 211.108 25.6356L204.728 20.8094C203.29 22.7105 203.214 25.2917 204.45 27.2641L211.23 23.0168ZM211.136 25.5987L213.984 21.7414L207.549 16.989L204.7 20.8463L211.136 25.5987ZM213.97 21.7606C215.781 19.3393 215.462 16.0173 213.396 13.951L207.739 19.6079C207.065 18.9339 206.932 17.8141 207.563 16.9698L213.97 21.7606ZM213.396 13.9511L212.778 13.333L207.121 18.9899L207.739 19.6079L213.396 13.9511ZM212.778 13.333L210.285 10.8396L204.628 16.4965L207.121 18.9899L212.778 13.333ZM210.285 10.8397L209.667 10.2216L204.01 15.8785L204.628 16.4965L210.285 10.8397ZM209.667 10.2216C207.565 8.11959 204.261 7.89325 201.895 9.61999L206.61 16.0823C205.821 16.6583 204.72 16.5882 204.01 15.8785L209.667 10.2216ZM201.878 9.63198L198.035 12.4663L202.784 18.9047L206.627 16.0703L201.878 9.63198ZM198.054 12.4523C198.767 11.9336 199.788 11.8496 200.634 12.3856L196.349 19.1417C198.36 20.4165 200.902 20.2757 202.765 18.9187L198.054 12.4523ZM200.642 12.3911C197.394 10.3198 193.764 8.7867 189.875 7.92329L188.141 15.7332C191.1 16.3899 193.863 17.5562 196.341 19.1362L200.642 12.3911ZM189.884 7.92536C190.856 8.14346 191.517 8.93397 191.649 9.80117L183.739 10.9996C184.084 13.2733 185.768 15.2004 188.132 15.7311L189.884 7.92536ZM191.649 9.80206L190.939 5.10654L183.029 6.30321L183.739 10.9987L191.649 9.80206ZM190.943 5.13919C190.512 2.12203 187.927 0 185.009 0V8C184.051 8 183.171 7.2987 183.024 6.27056L190.943 5.13919ZM185.009 0H184.128V8H185.009V0ZM184.128 0H180.597V8H184.128V0ZM180.597 0H179.717V8H180.597V0ZM179.717 0C176.766 0 174.222 2.1391 173.79 5.11695L181.707 6.26439C181.56 7.28164 180.678 8 179.717 8V0ZM173.794 5.09233L173.083 9.78785L180.993 10.9845L181.704 6.28901L173.794 5.09233ZM173.084 9.78099C173.22 8.89262 173.877 8.13357 174.831 7.91509L176.618 15.713C178.935 15.1819 180.643 13.2721 180.992 10.9914L173.084 9.78099ZM174.842 7.91254C170.961 8.79009 167.35 10.3194 164.106 12.3669L168.376 19.132C170.872 17.5566 173.639 16.3865 176.607 15.7155L174.842 7.91254ZM164.117 12.3598C164.91 11.8628 165.943 11.8815 166.736 12.4811L161.91 18.8615C163.811 20.2994 166.392 20.3749 168.365 19.1391L164.117 12.3598ZM166.697 12.4521L162.854 9.61777L158.106 16.0561L161.949 18.8905L166.697 12.4521ZM162.875 9.63349C160.454 7.82299 157.132 8.14114 155.066 10.2074L160.723 15.8643C160.049 16.5382 158.929 16.6717 158.084 16.0404L162.875 9.63349ZM155.066 10.2074L154.448 10.8254L160.105 16.4823L160.723 15.8643L155.066 10.2074ZM154.484 10.7897L151.941 13.2688L157.525 18.9972L160.068 16.5181L154.484 10.7897ZM151.905 13.3046L151.287 13.9226L156.943 19.5795L157.561 18.9615L151.905 13.3046ZM151.287 13.9226C149.185 16.0246 148.958 19.3284 150.685 21.6947L157.147 16.9789C157.723 17.7682 157.653 18.8698 156.943 19.5795L151.287 13.9226ZM150.698 21.713L153.547 25.5703L159.982 20.8178L157.134 16.9606L150.698 21.713ZM153.56 25.5876C152.991 24.8264 152.941 23.7965 153.465 22.9699L160.221 27.2542C161.484 25.2627 161.376 22.6841 159.969 20.8006L153.56 25.5876ZM153.463 22.9733C151.407 26.2219 149.893 29.8467 149.032 33.7021L156.84 35.4462C157.498 32.4963 158.656 29.7277 160.223 27.2509L153.463 22.9733ZM149.033 33.698C149.238 32.7848 149.998 32.0522 150.987 31.9224L152.029 39.8543C154.424 39.5397 156.321 37.7558 156.839 35.4503L149.033 33.698ZM150.915 31.9325L146.177 32.6429L147.363 40.5545L152.101 39.8441L150.915 31.9325ZM146.192 32.6406C143.211 33.0758 141.079 35.6509 141.079 38.5664H149.079C149.079 39.5355 148.382 40.4057 147.348 40.5567L146.192 32.6406ZM141.079 38.5664V39.4472H149.079V38.5664H141.079ZM141.079 39.4472V42.9778H149.079V39.4472H141.079ZM141.079 42.9778V43.8586H149.079V42.9778H141.079ZM141.079 43.8586C141.079 46.8096 143.218 49.3534 146.196 49.785L147.343 41.8677C148.361 42.0151 149.079 42.8967 149.079 43.8586H141.079ZM146.169 49.781L150.943 50.5056L152.144 42.5962L147.37 41.8716L146.169 49.781ZM150.938 50.5049C150.083 50.3739 149.29 49.7263 149.068 48.7412L156.874 46.9889C156.34 44.6116 154.396 42.941 152.149 42.5969L150.938 50.5049ZM149.071 48.7544C149.95 52.6064 151.48 56.2056 153.531 59.4309L160.282 55.1381C158.71 52.6663 157.541 49.9148 156.871 46.9758L149.071 48.7544ZM153.517 59.4082C153.017 58.6102 153.042 57.5495 153.638 56.761L160.019 61.5872C161.453 59.6906 161.535 57.138 160.296 55.1609L153.517 59.4082ZM153.608 56.8021L150.709 60.7375L157.151 65.4815L160.049 61.5461L153.608 56.8021ZM150.727 60.7141C148.916 63.1354 149.234 66.4574 151.301 68.5237L156.958 62.8668C157.632 63.5408 157.765 64.6606 157.134 65.5049L150.727 60.7141ZM151.301 68.5237L151.919 69.1417L157.576 63.4848L156.958 62.8668L151.301 68.5237ZM151.919 69.1417L154.412 71.6351L160.069 65.9782L157.576 63.4848L151.919 69.1417ZM154.412 71.6351L155.03 72.2531L160.687 66.5962L160.069 65.9782L154.412 71.6351ZM155.03 72.2531C157.132 74.3551 160.436 74.5815 162.802 72.8547L158.086 66.3924C158.876 65.8165 159.977 65.8865 160.687 66.5962L155.03 72.2531ZM162.818 72.8429L166.768 69.9304L162.02 63.4917L158.07 66.4042L162.818 72.8429ZM166.734 69.9549C165.992 70.4907 164.997 70.5278 164.219 70.0593L168.348 63.2066C166.391 62.0277 163.918 62.1216 162.053 63.4673L166.734 69.9549ZM164.149 70.0159C167.377 72.0525 170.956 73.5555 174.792 74.4381L176.586 66.6418C173.63 65.9616 170.887 64.8078 168.418 63.25L164.149 70.0159ZM174.813 74.4428C173.841 74.2247 173.179 73.4342 173.048 72.567L180.958 71.3686C180.613 69.0949 178.929 67.1677 176.565 66.6371L174.813 74.4428ZM173.047 72.5629L173.772 77.3791L181.683 76.189L180.958 71.3727L173.047 72.5629ZM173.769 77.3619C174.205 80.343 176.78 82.4747 179.695 82.4747V74.4747C180.664 74.4747 181.534 75.1715 181.686 76.2062L173.769 77.3619ZM179.695 82.4747H180.576V74.4747H179.695V82.4747ZM180.576 82.4747H184.107V74.4747H180.576V82.4747ZM184.107 82.4747H184.987V74.4747H184.107V82.4747ZM184.987 82.4747C187.938 82.4747 190.482 80.3356 190.914 77.3578L182.996 76.2103C183.144 75.1931 184.025 74.4747 184.987 74.4747V82.4747ZM190.911 77.3791L191.635 72.5629L183.724 71.3727L183 76.189L190.911 77.3791ZM191.634 72.573C191.498 73.4614 190.841 74.2204 189.887 74.4389L188.1 66.641C185.783 67.172 184.075 69.0819 183.726 71.3626L191.634 72.573ZM189.868 74.4433C193.723 73.5804 197.307 72.0706 200.548 70.0069L196.251 63.259C193.78 64.8323 191.056 65.9793 188.12 66.6365L189.868 74.4433ZM200.523 70.0226C199.725 70.5226 198.664 70.4976 197.876 69.9012L202.702 63.5209C200.805 62.0863 198.253 62.0045 196.275 63.2432L200.523 70.0226ZM197.915 69.9304L201.864 72.8429L206.612 66.4042L202.663 63.4917L197.915 69.9304ZM201.843 72.827C204.264 74.6375 207.586 74.3194 209.652 72.2531L203.996 66.5962C204.67 65.9223 205.789 65.7888 206.634 66.4201L201.843 72.827ZM209.652 72.2531L210.27 71.6351L204.614 65.9782L203.996 66.5962L209.652 72.2531ZM210.271 71.6351L212.764 69.1417L207.107 63.4849L204.614 65.9782L210.271 71.6351ZM212.764 69.1417L213.382 68.5237L207.725 62.8668L207.107 63.4849L212.764 69.1417ZM213.382 68.5237C215.484 66.4216 215.71 63.1179 213.984 60.7516L207.521 65.4674C206.945 64.6781 207.015 63.5765 207.725 62.8668L213.382 68.5237ZM213.958 60.717L211.031 56.7957L204.62 61.5809L207.547 65.5021L213.958 60.717ZM211.069 56.8478C211.605 57.5905 211.642 58.5851 211.174 59.3628L204.321 55.2347C203.142 57.1916 203.236 59.6637 204.582 61.5288L211.069 56.8478ZM211.123 59.4451C213.174 56.2198 214.704 52.6206 215.583 48.7686L207.783 46.99C207.113 49.9291 205.944 52.6805 204.372 55.1523L211.123 59.4451ZM215.586 48.7554C215.368 49.727 214.577 50.3886 213.71 50.52L212.512 42.6102C210.238 42.9547 208.311 44.6393 207.78 47.0031L215.586 48.7554ZM213.711 50.5198L218.485 49.7952L217.284 41.8858L212.511 42.6104L213.711 50.5198ZM218.462 49.7986C221.443 49.3634 223.575 46.7884 223.575 43.8728H215.575C215.575 42.9037 216.272 42.0335 217.307 41.8825L218.462 49.7986ZM223.575 43.8728V42.992H215.575V43.8728H223.575ZM223.575 42.992V39.4614H215.575V42.992H223.575ZM223.575 39.4614V38.5806H215.575V39.4614H223.575ZM223.573 38.6982C223.664 35.6087 221.371 33.1169 218.528 32.6746L217.298 40.5796C216.373 40.4357 215.543 39.6203 215.577 38.463L223.573 38.6982ZM182.341 61.0488C171.383 61.0606 162.507 52.1851 162.519 41.2275L154.519 41.2188C154.503 56.6015 166.966 69.0654 182.349 69.0488L182.341 61.0488ZM162.519 41.2275C162.531 30.4785 171.573 21.4259 182.316 21.4259V13.4259C167.146 13.4259 154.536 26.0678 154.519 41.2188L162.519 41.2275ZM182.321 21.4259C193.278 21.4141 202.154 30.2896 202.142 41.2473L210.142 41.2559C210.159 25.8732 197.695 13.4093 182.312 13.4259L182.321 21.4259ZM202.142 41.2516C202.142 51.9987 193.086 61.0488 182.345 61.0488V69.0488C197.503 69.0488 210.142 56.4185 210.142 41.2516H202.142Z" fill="white" mask="url(#path-1-outside-1_217_552)"/>
<path d="M77.1626 139.119L77.15 139.117L77.1374 139.115L72.5814 138.432C71.7778 134.936 70.3948 131.665 68.5714 128.719L71.2963 125.029C71.2978 125.027 71.2993 125.025 71.3008 125.023C72.4959 123.419 72.2894 121.211 70.9099 119.832L70.2919 119.214L68.9563 120.549L70.2919 119.213L67.7985 116.72L67.1805 116.102C65.7814 114.703 63.579 114.551 62.0016 115.702L61.9934 115.708L58.3084 118.426C55.3577 116.573 52.0784 115.19 48.5722 114.388L47.8906 109.882C47.8903 109.88 47.89 109.878 47.8898 109.877C47.5987 107.902 45.8864 106.48 43.9439 106.48H43.063H39.5183H38.6374C36.6671 106.48 34.9814 107.902 34.6915 109.877L34.0089 114.389C30.5017 115.205 27.2293 116.587 24.2737 118.426L20.5924 115.711C18.988 114.516 16.7803 114.723 15.4008 116.102L14.7918 116.711L12.2578 119.181L12.2487 119.19L12.2397 119.199L11.6216 119.817L13.0358 121.232L11.6216 119.817C10.2225 121.216 10.0703 123.419 11.2214 124.996L11.2213 124.996L11.2281 125.005L13.9598 128.704C12.1194 131.657 10.7517 134.935 9.95019 138.418L5.40401 139.1C3.4006 139.383 2 141.113 2 143.047V143.928V147.458V148.339C2 150.309 3.42087 151.995 5.39577 152.285C5.39845 152.285 5.40113 152.286 5.40382 152.286L9.98652 152.982C10.801 156.454 12.1797 159.707 14.0139 162.638L11.2494 166.392C11.2477 166.395 11.2461 166.397 11.2444 166.399C10.05 168.003 10.2566 170.211 11.6358 171.59L12.2539 172.208L13.6681 170.794L12.2539 172.208L14.7472 174.701L15.3653 175.319C16.7643 176.718 18.9667 176.871 20.5442 175.72L20.5522 175.714L24.3317 172.927C27.2662 174.749 30.5057 176.106 33.9731 176.926L34.6694 181.553C34.6696 181.555 34.6699 181.557 34.6702 181.559C34.9611 183.533 36.6735 184.955 38.6161 184.955H39.497H43.0275H43.9083C45.8788 184.955 47.5647 183.534 47.8544 181.558C47.8547 181.556 47.855 181.554 47.8554 181.551L48.5511 176.927C52.0213 176.127 55.2546 174.768 58.1935 172.927L61.9615 175.706C61.9637 175.707 61.9658 175.709 61.968 175.711C63.5723 176.905 65.7798 176.699 67.1592 175.319L67.7772 174.701L70.2706 172.208L68.9308 170.868L70.2706 172.208L70.8886 171.59C72.2877 170.191 72.4399 167.988 71.2889 166.411L71.2825 166.402L71.2761 166.394L68.4829 162.651C70.3167 159.72 71.6952 156.468 72.5095 152.996L77.0943 152.3C77.0965 152.3 77.0987 152.299 77.1009 152.299C79.0746 152.008 80.496 150.296 80.496 148.353V147.472V143.942V143.085C80.5375 141.067 79.0492 139.427 77.1626 139.119ZM72.3321 153.023C72.3318 153.023 72.3316 153.023 72.3313 153.023L72.3318 153.023L72.3321 153.023ZM41.2729 167.515H41.2707C29.2068 167.528 19.4342 157.756 19.4472 145.692C19.4602 133.842 29.3943 123.892 41.2445 123.892L41.2466 123.892C53.3105 123.879 63.0831 133.652 63.0701 145.716V145.717C63.0636 157.571 53.1177 167.515 41.2729 167.515Z" fill="#F8334E" stroke="white" stroke-width="4"/>
<path d="M108.069 106.545L107.918 106.197L107.65 105.93L98.0811 96.361C96.9655 95.2454 96.9655 93.4287 98.0811 92.3131C99.1967 91.1974 101.013 91.1974 102.129 92.3131L109.538 99.7222L110.952 101.136L112.367 99.7222L128.165 83.9237C129.281 82.808 131.097 82.808 132.213 83.9237C133.329 85.0393 133.329 86.8488 132.213 87.9645L112.976 107.201L114.296 108.521L112.976 107.201L112.728 107.45C111.612 108.565 109.795 108.565 108.68 107.45C108.421 107.191 108.217 106.885 108.069 106.545ZM115.648 61.1875C96.8055 61.1875 81.5322 76.4607 81.5322 95.3031C81.5322 114.146 96.8055 129.419 115.648 129.419C134.49 129.419 149.763 114.146 149.763 95.3031C149.763 76.4607 134.49 61.1875 115.648 61.1875Z" fill="#F8334E" stroke="white" stroke-width="4"/>
<path d="M24.9727 110.285V112.721L27.3623 112.247L30.4382 111.636L31.4951 111.426L31.9011 110.428L34.541 103.938H38.2177H40.2177V101.938V53.5804H142.563L143.279 49.7128L140.152 48.5144V40.4561V38.4561H138.152H40.0292C31.7144 38.4561 24.9727 45.1978 24.9727 53.5126V110.285Z" fill="#F8334E" stroke="white" stroke-width="4"/>
<path d="M190.857 82.7749L190.744 83.0977V83.4399V136.685H87.5456H85.5456V138.685V180.962H65.6877C58.8291 180.962 53.2666 186.525 53.2666 193.383V202V204H55.2666H175.567H177.567V202V193.681C177.567 186.823 172.004 181.26 165.146 181.26H145.586V163.978H190.591C198.991 163.978 205.804 157.165 205.804 148.765V77.2739V75.9447L204.579 75.43L200.046 73.5262L199.256 73.1942L198.471 73.5376L194.116 75.4414L193.32 75.7895L193.031 76.6089L190.857 82.7749Z" fill="#F8334E" stroke="white" stroke-width="4"/>
</svg>
