<svg width="124" height="112" viewBox="0 0 124 112" fill="currentColor" xmlns="http://www.w3.org/2000/svg">
<path d="M62 90.2222C69.75 90.2222 76.3385 87.501 81.7656 82.0587C87.1885 76.6121 89.9 70 89.9 62.2222C89.9 54.4444 87.1885 47.8323 81.7656 42.3858C76.3385 36.9434 69.75 34.2222 62 34.2222C54.25 34.2222 47.6615 36.9434 42.2344 42.3858C36.8115 47.8323 34.1 54.4444 34.1 62.2222C34.1 70 36.8115 76.6121 42.2344 82.0587C47.6615 87.501 54.25 90.2222 62 90.2222ZM12.4 112C8.99 112 6.07187 110.783 3.6456 108.348C1.2152 105.908 0 102.978 0 99.5556V24.8889C0 21.4667 1.2152 18.5381 3.6456 16.1031C6.07187 13.664 8.99 12.4444 12.4 12.4444H31.93L43.4 0H80.6L92.07 12.4444H111.6C115.01 12.4444 117.93 13.664 120.361 16.1031C122.787 18.5381 124 21.4667 124 24.8889V99.5556C124 102.978 122.787 105.908 120.361 108.348C117.93 110.783 115.01 112 111.6 112H12.4Z" />
</svg>
