<svg width="63" height="54" viewBox="0 0 63 54" fill="none" xmlns="http://www.w3.org/2000/svg">
<path d="M0 54V47.25H8.58375C5.90625 44.775 3.80625 41.7938 2.28375 38.3063C0.76125 34.8188 0 31.05 0 27C0 20.7 1.785 15.1447 5.355 10.3342C8.925 5.526 13.44 2.3625 18.9 0.84375V7.93125C15.225 9.3375 12.2063 11.7698 9.84375 15.228C7.48125 18.6885 6.3 22.6125 6.3 27C6.3 30.0375 6.86385 32.8365 7.99155 35.397C9.12135 37.9552 10.6575 40.1625 12.6 42.0188V33.75H18.9V54H0ZM34.65 54C32.025 54 29.7938 53.0156 27.9563 51.0469C26.1188 49.0781 25.2 46.6875 25.2 43.875C25.2 41.175 26.0662 38.8552 27.7987 36.9157C29.5312 34.974 31.6575 33.9469 34.1775 33.8344C35.07 31.8094 36.3962 30.1635 38.156 28.8968C39.9137 27.6323 41.895 27 44.1 27C46.8825 27 49.2849 27.9709 51.3072 29.9126C53.3274 31.8521 54.5475 34.2562 54.9675 37.125C57.1725 37.125 59.0625 37.9406 60.6375 39.5719C62.2125 41.2031 63 43.1719 63 45.4781C63 47.8406 62.2388 49.851 60.7163 51.5092C59.1938 53.1697 57.33 54 55.125 54H34.65ZM43.785 23.625C43.4175 21.3188 42.7088 19.1813 41.6588 17.2125C40.6088 15.2438 39.3225 13.5 37.8 11.9813V20.25H31.5V0H50.4V6.75H41.8162C44.0737 8.8875 45.9249 11.3906 47.3697 14.2594C48.8124 17.1281 49.7437 20.25 50.1637 23.625H43.785ZM34.65 47.25H55.125C55.545 47.25 55.9125 47.0813 56.2275 46.7438C56.5425 46.4062 56.7 46.0125 56.7 45.5625C56.7 45.1125 56.5425 44.7188 56.2275 44.3812C55.9125 44.0437 55.545 43.875 55.125 43.875H49.6125V39.6562C49.6125 38.025 49.0749 36.6323 47.9997 35.478C46.9224 34.326 45.6225 33.75 44.1 33.75C42.5775 33.75 41.2787 34.326 40.2035 35.478C39.1262 36.6323 38.5875 38.025 38.5875 39.6562V40.5H34.65C33.7575 40.5 33.0099 40.824 32.4072 41.472C31.8024 42.1178 31.5 42.9188 31.5 43.875C31.5 44.8312 31.8024 45.6322 32.4072 46.278C33.0099 46.926 33.7575 47.25 34.65 47.25Z" fill="#D32A3D"/>
</svg>
