<svg width="143" height="114" viewBox="0 0 143 114" fill="currentColor" xmlns="http://www.w3.org/2000/svg">
<path fill-rule="evenodd" clip-rule="evenodd" d="M0 28.5C0 12.7599 12.8046 0 28.6 0H114.4C130.195 0 143 12.7599 143 28.5V32.0625C143 34.03 141.399 35.625 139.425 35.625H3.575C1.6006 35.625 0 34.03 0 32.0625V28.5ZM3.575 49.875C1.6006 49.875 0 51.4703 0 53.4375V85.5C0 101.24 12.8046 114 28.6 114H114.4C130.195 114 143 101.24 143 85.5V53.4375C143 51.4703 141.399 49.875 139.425 49.875H3.575ZM78.65 78.375C78.65 74.4399 81.8511 71.25 85.8 71.25H107.25C111.199 71.25 114.4 74.4399 114.4 78.375C114.4 82.3101 111.199 85.5 107.25 85.5H85.8C81.8511 85.5 78.65 82.3101 78.65 78.375Z" />
</svg>
