<svg width="127" height="114" viewBox="0 0 127 114" fill="currentColor" xmlns="http://www.w3.org/2000/svg">
<path d="M63.5 0C55.1611 0 46.9039 1.63817 39.1997 4.82096C31.4956 8.00376 24.4955 12.6689 18.599 18.5499C6.6905 30.4272 0.000385639 46.5363 0.000385639 63.3333C-0.0328839 72.8026 2.08691 82.1562 6.20037 90.6907C10.3138 99.2251 16.3138 106.718 23.7492 112.607C24.8664 113.501 26.2539 113.992 27.6862 114H99.3138C100.746 113.992 102.134 113.501 103.251 112.607C110.686 106.718 116.686 99.2251 120.8 90.6907C124.913 82.1562 127.033 72.8026 127 63.3333C127 46.5363 120.309 30.4272 108.401 18.5499C96.4925 6.6726 80.3411 0 63.5 0ZM94.1703 41.4833L75.1204 70.3633C75.9284 72.1287 76.2986 74.062 76.1999 76C76.1999 78.5052 75.4551 80.9542 74.0596 83.0372C72.6641 85.1203 70.6807 86.7438 68.36 87.7025C66.0394 88.6612 63.4859 88.912 61.0224 88.4233C58.5588 87.9345 56.2959 86.7281 54.5198 84.9567C52.7437 83.1852 51.5341 80.9282 51.0441 78.4711C50.5541 76.0141 50.8056 73.4672 51.7668 71.1527C52.728 68.8382 54.3558 66.8599 56.4443 65.4681C58.5328 64.0762 60.9882 63.3333 63.5 63.3333H64.3255L83.3754 34.4533C84.3679 33.2244 85.7846 32.4093 87.3481 32.1676C88.9116 31.926 90.5093 32.2752 91.8282 33.1468C93.147 34.0185 94.0922 35.3499 94.4784 36.8801C94.8647 38.4104 94.6642 40.0294 93.9163 41.42L94.1703 41.4833Z" />
</svg>
