<svg width="220" height="220" viewBox="0 0 220 220" fill="none" xmlns="http://www.w3.org/2000/svg">
<path d="M33.5817 189.122C23.0756 178.975 14.6955 166.837 8.93055 153.416C3.16556 139.996 0.131073 125.562 0.00415324 110.956C-0.122767 96.3501 2.66042 81.8654 8.19132 68.3468C13.7222 54.8282 21.8901 42.5465 32.2183 32.2183C42.5465 21.8901 54.8282 13.7222 68.3468 8.19132C81.8654 2.66042 96.3501 -0.122767 110.956 0.00415324C125.562 0.131073 139.996 3.16556 153.416 8.93055C166.837 14.6955 178.975 23.0756 189.122 33.5817C209.159 54.3279 220.246 82.1142 219.996 110.956C219.745 139.797 208.177 167.387 187.782 187.782C167.387 208.177 139.797 219.745 110.956 219.996C82.1142 220.246 54.3279 209.159 33.5817 189.122ZM100.352 56.3517V122.352H122.352V56.3517H100.352ZM100.352 144.352V166.352H122.352V144.352H100.352Z" fill="#D32A3D"/>
</svg>
