<svg width="50" height="46" viewBox="0 0 50 46" fill="none" xmlns="http://www.w3.org/2000/svg">
<path d="M49.5611 30.75C49.7961 31.0434 49.9436 31.397 49.9868 31.7704C50.0299 32.1438 49.967 32.5217 49.8052 32.861C49.6433 33.2002 49.3892 33.487 49.0718 33.6885C48.7544 33.8899 48.3867 33.9979 48.0108 34H4.0009V44C4.0009 44.5304 3.79014 45.0391 3.41498 45.4142C3.03982 45.7893 2.531 46 2.00045 46C1.4699 46 0.961075 45.7893 0.585918 45.4142C0.210761 45.0391 0 44.5304 0 44V2C0 1.46957 0.210761 0.96086 0.585918 0.585787C0.961075 0.210714 1.4699 0 2.00045 0H48.0108C48.3867 0.00210932 48.7544 0.11008 49.0718 0.311537C49.3892 0.512993 49.6433 0.799781 49.8052 1.13902C49.967 1.47827 50.0299 1.85623 49.9868 2.2296C49.9436 2.60296 49.7961 2.95661 49.5611 3.25L38.5587 17L49.5611 30.75Z" fill="#D32A3D"/>
</svg>
