<svg width="143" height="109" viewBox="0 0 143 109" fill="currentColor" xmlns="http://www.w3.org/2000/svg">
<path d="M142.992 88.4041C142.966 87.2999 142.966 86.1957 142.96 85.0851C142.758 46.4848 130.353 18.2442 130.353 18.2442C119.909 -3.97549 99.839 0.337244 99.839 0.337244C98.3841 0.473641 96.4485 1.24656 94.6494 2.13638C92.1033 3.38993 89.7196 4.96824 87.5048 6.74789C80.1524 12.6584 75.9631 13.7756 75.9631 13.7756C69.2277 16.1788 59.6669 9.911 54.9125 6.28025C52.5483 4.47461 50.0022 2.92229 47.3392 1.61028C46.4494 1.16861 45.5011 0.837366 44.5269 0.636018C27.0941 -2.95576 17.0916 11.1126 17.0916 11.1126C5.89411 24.3236 1.78272 60.735 0.879907 70.2763C0.762995 71.5169 0.646084 72.7444 0.509687 73.985C-0.159306 80.2008 -2.05587 105.174 10.5186 108.078C24.8922 111.397 33.18 97.5751 33.18 97.5751C35.0246 94.2302 36.9276 91.6321 38.7008 89.6252C42.1951 85.6632 46.9885 83.0976 52.1911 82.1753C67.5974 79.4538 81.4969 80.5905 86.55 81.1685C87.5763 81.2855 88.596 81.4024 89.6222 81.4868C99.157 82.2467 104.821 90.2747 104.821 90.2747L111.868 99.8354C114.615 103.655 118.779 105.908 121.578 107.084C123.54 107.902 125.611 108.441 127.729 108.584C142.609 109.617 143.083 92.4375 142.992 88.4041ZM39.7465 66.5611C28.9841 66.5611 20.2612 57.8382 20.2612 47.0759C20.2612 36.3135 28.9841 27.5906 39.7465 27.5906C50.5088 27.5906 59.2317 36.3135 59.2317 47.0759C59.2317 57.8382 50.5023 66.5611 39.7465 66.5611ZM121.552 50.3234H108.562V63.3136H102.067V50.3234H89.0766V43.8283H102.067V30.8382H108.562V43.8283H121.552V50.3234Z" />
</svg>
