<svg width="50" height="54" viewBox="0 0 50 54" fill="none" xmlns="http://www.w3.org/2000/svg">
<path d="M34.5238 25.7143C34.5238 23.9657 34.381 22.2686 34.1905 20.5714H42.2381C42.619 22.2171 42.8571 23.94 42.8571 25.7143C42.8571 26.6657 42.7857 27.5914 42.6667 28.4914C44.3095 28.7486 45.8333 29.3143 47.2381 30.1371C47.4762 28.6971 47.619 27.2314 47.619 25.7143C47.619 11.5714 36.9048 0 23.8095 0C10.6429 0 0 11.5714 0 25.7143C0 39.8571 10.7143 51.4286 23.8095 51.4286C25.2143 51.4286 26.5714 51.2743 27.9048 51.0171C26.7739 48.7772 26.1843 46.2655 26.1905 43.7143C26.1905 42.9686 26.2619 42.2486 26.3571 41.5286C25.5952 43.1486 24.7619 44.7171 23.8095 46.1829C21.8333 43.0971 20.2381 39.6771 19.2619 36H28.119C29.549 33.3163 31.6993 31.1644 34.2857 29.8286C34.4286 28.4657 34.5238 27.1029 34.5238 25.7143ZM23.8095 5.22C25.7857 8.30571 27.381 11.7514 28.3571 15.4286H19.2619C20.2381 11.7514 21.8333 8.30571 23.8095 5.22ZM5.38095 30.8571C5 29.2114 4.7619 27.4886 4.7619 25.7143C4.7619 23.94 5 22.2171 5.38095 20.5714H13.4286C13.2381 22.2686 13.0952 23.9657 13.0952 25.7143C13.0952 27.4629 13.2381 29.16 13.4286 30.8571H5.38095ZM7.33333 36H14.2857C15.119 39.2143 16.1905 42.3 17.619 45.1543C13.2824 43.5386 9.63059 40.2884 7.33333 36ZM14.2857 15.4286H7.33333C9.61632 11.1271 13.2733 7.87239 17.619 6.27429C16.1905 9.12857 15.119 12.2143 14.2857 15.4286ZM29.381 30.8571H18.2381C18 29.16 17.8571 27.4629 17.8571 25.7143C17.8571 23.9657 18 22.2429 18.2381 20.5714H29.381C29.5952 22.2429 29.7619 23.9657 29.7619 25.7143C29.7619 27.4629 29.5952 29.16 29.381 30.8571ZM29.9762 6.27429C34.3571 7.89429 38 11.16 40.2857 15.4286H33.2619C32.5167 12.2437 31.4133 9.16945 29.9762 6.27429ZM50 41.1429V46.2857H42.8571V54H38.0952V46.2857H30.9524V41.1429H38.0952V33.4286H42.8571V41.1429H50Z" fill="#D32A3D"/>
</svg>
