<svg width="51" height="54" viewBox="0 0 51 54" fill="none" xmlns="http://www.w3.org/2000/svg">
<path d="M36.0732 27C36.0732 25.164 35.9239 23.382 35.7249 21.6H44.1337C44.5317 23.328 44.7805 25.137 44.7805 27C44.7805 27.999 44.7059 28.971 44.5815 29.916C46.298 30.186 47.8902 30.78 49.358 31.644C49.6068 30.132 49.7561 28.593 49.7561 27C49.7561 12.15 38.561 0 24.878 0C11.1205 0 0 12.15 0 27C0 41.85 11.1951 54 24.878 54C26.3459 54 27.7639 53.838 29.1571 53.568C27.9754 51.2161 27.3594 48.5788 27.3659 45.9C27.3659 45.117 27.4405 44.361 27.54 43.605C26.7439 45.306 25.8732 46.953 24.878 48.492C22.8132 45.252 21.1463 41.661 20.1263 37.8H29.381C30.8751 34.9822 33.1219 32.7226 35.8244 31.32C35.9737 29.889 36.0732 28.458 36.0732 27ZM24.878 5.481C26.9429 8.721 28.6098 12.339 29.6298 16.2H20.1263C21.1463 12.339 22.8132 8.721 24.878 5.481ZM5.62244 32.4C5.22439 30.672 4.97561 28.863 4.97561 27C4.97561 25.137 5.22439 23.328 5.62244 21.6H14.0312C13.8322 23.382 13.6829 25.164 13.6829 27C13.6829 28.836 13.8322 30.618 14.0312 32.4H5.62244ZM7.66244 37.8H14.9268C15.7976 41.175 16.9171 44.415 18.4098 47.412C13.8785 45.7155 10.0628 42.3028 7.66244 37.8ZM14.9268 16.2H7.66244C10.0479 11.6835 13.869 8.26601 18.4098 6.588C16.9171 9.585 15.7976 12.825 14.9268 16.2ZM30.6995 32.4H19.0566C18.8078 30.618 18.6585 28.836 18.6585 27C18.6585 25.164 18.8078 23.355 19.0566 21.6H30.6995C30.9234 23.355 31.0976 25.164 31.0976 27C31.0976 28.836 30.9234 30.618 30.6995 32.4ZM31.3215 6.588C35.899 8.289 39.7054 11.718 42.0937 16.2H34.7546C33.976 12.8559 32.823 9.62792 31.3215 6.588ZM51 41.175L39.1829 54L32.3415 45.9L35.2273 42.768L39.1829 47.061L48.1141 37.368L51 41.175Z" fill="#D32A3D"/>
</svg>
