<svg width="172" height="114" viewBox="0 0 172 114" fill="currentColor" xmlns="http://www.w3.org/2000/svg">
<path d="M47.1354 65.3529C56.402 65.3389 63.9457 57.7837 63.9457 48.5115V43.5528C63.9457 43.053 63.9222 42.5488 63.8761 42.043H61.6077C57.6167 42.043 56.1587 38.1769 55.499 35.8739C51.6651 37.6839 42.2641 41.8347 30.3887 42.0355C30.3422 42.544 30.3184 43.051 30.3184 43.5528V48.5115C30.3184 57.7837 37.8625 65.3389 47.1354 65.3529Z" />
<path d="M163.913 0H7.95245C3.56747 0 0 3.56747 0 7.95245V106.048C0 110.433 3.56747 114 7.95245 114H163.913C168.298 114 171.865 110.433 171.865 106.048V7.95245C171.865 3.56747 168.298 0 163.913 0ZM97.3981 57.3793H110.298V69.4877H97.3981V57.3793ZM72.8278 85.1827L72.7984 96.9841H21.4669L21.4366 85.0304V75.5865C21.4366 70.7096 26.6729 68.8675 30.8806 67.3867C31.8321 67.0519 32.912 66.6718 33.7828 66.2889C33.6273 66.1179 33.4703 65.9457 33.3108 65.7708C29.6742 61.7818 25.5532 57.2628 25.5262 49.2821L25.0383 43.047C23.9432 28.9585 30.9688 26.7942 41.6037 23.5178C43.1639 23.0371 44.7775 22.54 46.5067 21.9671C48.7386 21.2275 50.9315 20.8525 53.0238 20.8525C57.468 20.8525 61.3556 22.5154 64.2658 25.6606C68.0201 29.7183 69.782 35.893 69.2261 43.0474L68.7382 49.2825C68.7112 57.2628 64.5906 61.7822 60.9544 65.7708C60.7949 65.9457 60.6375 66.1183 60.482 66.2893C61.352 66.6722 62.4327 67.0523 63.3842 67.3871C67.5919 68.8675 72.8282 70.71 72.8282 75.5869L72.8278 85.1827ZM127.218 96.1002H97.3981V83.9918H127.218V96.1002ZM133.668 69.4877H120.768V57.3793H133.668V69.4877ZM157.038 69.4877H144.139V57.3793H157.038V69.4877ZM157.038 42.8753H97.3981V30.7669H157.038V42.8753Z" />
<path d="M47.1329 85.8631L60.2668 71.9324H33.999L47.1329 85.8631Z" />
</svg>
