<svg width="121" height="111" viewBox="0 0 121 111" fill="currentColor" xmlns="http://www.w3.org/2000/svg">
<path d="M116.441 98.4308L87.1797 111V53.1771L116.116 40.7503C118.418 39.7602 120.982 41.45 120.982 43.9586V91.5437C120.982 94.5401 119.196 97.2491 116.441 98.4308Z" />
<path d="M59.3589 69.5994L52.8261 61.4058H42.2545C41.3951 61.4058 40.6982 62.1026 40.6982 62.962V95.9456C40.6982 97.0227 41.3777 97.9809 42.3939 98.3409L77.6944 110.768C78.9603 111.212 80.2843 110.274 80.2843 108.933V62.962C80.2843 62.1026 79.5874 61.4058 78.728 61.4058H68.5891L62.062 69.5994C61.371 70.4675 60.0528 70.4675 59.3589 69.5994Z" />
<path d="M60.7026 0C39.1704 0 27.1819 24.8886 40.6076 41.7259L52.8254 57.0505L59.3583 65.2441C60.0493 66.1122 61.3704 66.1122 62.0614 65.2441L68.5884 57.0505L80.8033 41.7172C94.2174 24.8799 82.229 0 60.7026 0ZM60.7026 32.908C55.8915 32.908 51.9921 29.0087 51.9921 24.1976C51.9921 19.3865 55.8915 15.4872 60.7026 15.4872C65.5136 15.4872 69.413 19.3865 69.413 24.1976C69.413 29.0087 65.5107 32.908 60.7026 32.908Z" />
<path d="M3.86743 51.5164C1.52142 52.5239 0 54.8322 0 57.3873V104.932C0 107.803 2.93832 109.74 5.57468 108.605L33.8023 96.4826V44.1242C32.8006 42.626 31.9789 41.1452 31.3053 39.7312L3.86743 51.5164Z" />
</svg>
