<svg width="136" height="114" viewBox="0 0 136 114" fill="currentColor" xmlns="http://www.w3.org/2000/svg">
<path d="M108.988 66.8614V10.1543C108.988 4.55038 104.455 3.39621e-06 98.8518 3.39621e-06H10.1359C4.53756 -0.00453789 0 4.54583 0 10.1543V66.8614C0 72.4699 4.53756 77.0157 10.1359 77.0157H27.0395V100.344L52.8959 77.0157H98.8473C104.455 77.0157 108.988 72.4699 108.988 66.8614ZM125.864 22.2932H113.181C113.181 22.2932 113.181 67.5789 113.181 71.8341C113.181 76.0893 107.669 81.5616 103.421 81.5616C99.1737 81.5616 53.8071 81.8113 53.8071 81.8113C53.8071 87.4198 58.3446 90.8303 63.9429 90.8303H83.4758L108.96 114L108.929 90.8303H125.864C131.467 90.8303 136 87.4198 136 81.8113V32.166C136 26.562 131.467 22.2932 125.864 22.2932Z" />
</svg>
