<svg width="173" height="156" viewBox="0 0 173 156" fill="none" xmlns="http://www.w3.org/2000/svg">
<circle cx="89.5658" cy="70.5658" r="70.5658" fill="black"/>
<circle cx="146.822" cy="142.342" r="3.98355" stroke="#FF7A2E" stroke-width="1.13816"/>
<circle cx="42.1123" cy="153.724" r="2.27632" fill="black"/>
<path d="M8.35759 5.52386C8.30978 4.99774 8.94229 4.69609 9.32104 5.06436L13.1115 8.74989C13.2306 8.86568 13.3943 8.92366 13.5597 8.90863L18.8249 8.43023C19.351 8.38243 19.6526 9.01494 19.2844 9.39369L15.5988 13.1841C15.483 13.3032 15.4251 13.4669 15.4401 13.6323L15.9185 18.8975C15.9663 19.4236 15.3338 19.7253 14.955 19.357L11.1646 15.6715C11.0455 15.5557 10.8818 15.4977 10.7164 15.5127L5.45121 15.9911C4.9251 16.0389 4.62344 15.4064 4.99171 15.0277L8.67724 11.2372C8.79303 11.1181 8.85101 10.9544 8.83598 10.789L8.35759 5.52386Z" fill="#D32A3D"/>
<g clip-path="url(#clip0_650_3428)">
<path d="M134.067 55.7538H45.9339C45.9395 55.7385 45.9459 55.7235 45.9531 55.7088C46.0634 55.4508 46.1838 55.1956 46.3133 54.9468C46.4656 54.6503 46.6316 54.3592 46.8104 54.0765C47.442 53.0685 48.2201 52.1615 49.1187 51.3856L86.0163 19.479C87.1271 18.5244 88.5398 17.9999 90.0005 17.9999C91.4611 17.9999 92.8738 18.5244 93.9846 19.479L130.881 51.3856C131.779 52.161 132.557 53.0674 133.189 54.0746C133.371 54.3574 133.533 54.6484 133.686 54.945C133.82 55.202 133.943 55.4664 134.057 55.7336L134.067 55.7538Z" fill="#D32A3D"/>
<path d="M134.067 55.7538L133.043 56.6397L97.6774 87.2225L97.2214 87.6145L93.3079 84.986C92.3296 84.3253 91.1781 83.9725 90 83.9725C88.8219 83.9725 87.6704 84.3253 86.6921 84.986L82.7786 87.6181L82.3226 87.228L46.9563 56.6425L45.9312 55.7575H134.067V55.7538Z" fill="#577BC1"/>
<path d="M121.674 26.9962H58.3255C52.8478 26.9962 48.4073 31.4661 48.4073 36.9802V82.4127C48.4073 87.9267 52.8478 92.3967 58.3255 92.3967H121.674C127.152 92.3967 131.593 87.9267 131.593 82.4127V36.9802C131.593 31.4661 127.152 26.9962 121.674 26.9962Z" fill="white"/>
<g style="mix-blend-mode:multiply" opacity="0.68">
<g style="mix-blend-mode:multiply" opacity="0.68">
<path d="M134.075 55.7776C132.702 57.0997 131.32 58.4134 129.931 59.7189C128.444 61.1266 126.948 62.5245 125.444 63.9127C122.441 66.6963 119.421 69.4596 116.383 72.2028L114.103 74.2621L111.817 76.3112C110.297 77.6797 108.77 79.0422 107.236 80.3985C104.257 83.0486 101.263 85.6859 98.2547 88.3104L97.2214 87.6181L93.3079 84.9897C92.3296 84.329 91.1781 83.9762 90 83.9762C88.8219 83.9762 87.6704 84.329 86.6921 84.9897L82.7786 87.6181L82.3226 87.228L46.9563 56.6425L45.9312 55.7574C45.9368 55.7421 45.9432 55.7271 45.9503 55.7125L46.006 55.7574L46.8003 56.3937C47.1989 56.7159 47.6084 57.0271 48.0115 57.3439C48.8214 57.9755 49.6212 58.6172 50.4274 59.2535C52.0381 60.5265 53.6411 61.8078 55.2365 63.0974C58.4304 65.6717 61.6067 68.2661 64.7653 70.8808L67.1366 72.8409L69.4987 74.8092C71.0756 76.1184 72.6406 77.4423 74.2102 78.7569L78.9034 82.7276L82.8644 86.1052L85.4946 84.3241L85.9205 84.0367C85.9853 83.9927 86.0765 83.933 86.1631 83.877C86.2498 83.821 86.3391 83.7705 86.4267 83.7173C86.7856 83.5087 87.1623 83.3327 87.5521 83.1912C88.5333 82.8338 89.5799 82.6957 90.6194 82.7866C91.6589 82.8774 92.6662 83.195 93.5715 83.7173C93.6627 83.7705 93.7539 83.821 93.8369 83.8779C93.9199 83.9348 94.0138 83.9927 94.0776 84.0367L94.5036 84.3241L97.1347 86.1061C100.009 83.6481 102.893 81.1999 105.784 78.7615C107.352 77.4441 108.916 76.123 110.492 74.8138L112.851 72.8473L115.222 70.8891C118.378 68.2805 121.551 65.6885 124.741 63.113C126.335 61.8277 127.936 60.5482 129.543 59.2746C131.032 58.0903 132.529 56.9154 134.036 55.7501C134.043 55.7429 134.052 55.7367 134.061 55.7317L134.068 55.7501C134.067 55.7611 134.072 55.7694 134.075 55.7776Z" fill="#E2E2E2"/>
</g>
</g>
<path d="M82.7786 87.6181L47.1998 111.525L47.1578 111.489L47.146 111.479C46.4744 110.906 45.9346 110.192 45.5641 109.388C45.1935 108.584 45.001 107.709 45 106.822V60.3515C45.0004 58.7736 45.3181 57.2121 45.9339 55.7611L46.9581 56.647L82.3262 87.2316L82.7786 87.6181Z" fill="#D32A3D"/>
<path d="M135 60.3515V106.879C134.99 107.756 134.794 108.62 134.423 109.413C134.053 110.206 133.517 110.91 132.853 111.476C132.849 111.481 132.844 111.484 132.838 111.487C132.827 111.498 132.814 111.511 132.8 111.522L113.392 98.4798L97.2214 87.6181L97.6774 87.2261L133.046 56.6434L134.069 55.7574C134.073 55.7649 134.076 55.7729 134.078 55.7813C134.688 57.2268 135.001 58.7812 135 60.3515Z" fill="#D32A3D"/>
<path d="M132.8 111.522L132.76 111.555C132.755 111.56 132.75 111.564 132.744 111.568C132.722 111.587 132.7 111.606 132.678 111.623C131.556 112.518 130.165 113.004 128.733 113H51.2665C49.8357 113.003 48.4462 112.517 47.3247 111.623L47.2545 111.566L47.239 111.553L47.1989 111.52L82.7786 87.6181L86.6921 84.9888C87.6707 84.3287 88.822 83.9762 90 83.9762C91.178 83.9762 92.3294 84.3287 93.3079 84.9888L97.2214 87.6181L113.392 98.4835L132.8 111.522Z" fill="#D32A3D"/>
<ellipse cx="75.5" cy="48.5" rx="3" ry="2.5" fill="black"/>
<ellipse cx="106.5" cy="48.5" rx="3" ry="2.5" fill="black"/>
<path d="M77.5 40.5L75 40L72.5 40.5L71 42L70 44" stroke="black"/>
<path d="M109 40.5L106.5 40L104 40.5L102.5 42L101.5 44" stroke="black"/>
<path d="M98.5 57L96.5 59.5L94 60.5L92 61H89.5L87 60L84.5 57" stroke="black" stroke-width="1.2"/>
</g>
<circle cx="147.961" cy="97.954" r="25.0395" fill="#161616"/>
<path fill-rule="evenodd" clip-rule="evenodd" d="M145.829 104.624L143.283 106.322C142.943 106.492 142.547 106.265 142.547 105.926V102.19L152.961 94.3803L140.51 101.002L137.284 98.7947C136.831 98.4551 136.944 97.776 137.453 97.6061L158.394 90.0223C158.676 89.9091 158.903 90.2487 158.733 90.5317L149.282 106.152C149.112 106.435 148.659 106.548 148.32 106.322L145.829 104.624L145.829 104.624Z" fill="white"/>
<defs>
<clipPath id="clip0_650_3428">
<rect width="90" height="95" fill="white" transform="translate(45 18)"/>
</clipPath>
</defs>
</svg>
