<svg width="198" height="210" viewBox="0 0 198 210" fill="none" xmlns="http://www.w3.org/2000/svg">
<path d="M15.7156 59.0014H27.026C34.6055 59.0014 40.7416 52.8653 40.7416 45.2859C40.7416 37.7127 34.5992 31.5703 27.026 31.5703H15.7156C8.14243 31.5703 2 37.7127 2 45.2859C2 52.866 8.14313 59.0014 15.7156 59.0014Z" fill="#F8334E" stroke="white" stroke-width="4"/>
<path d="M15.7156 119.498H27.026C34.6062 119.498 40.7416 113.354 40.7416 105.782C40.7416 98.2088 34.5992 92.0664 27.026 92.0664H15.7156C8.14243 92.0664 2 98.2088 2 105.782C2 113.355 8.14243 119.498 15.7156 119.498Z" fill="#F8334E" stroke="white" stroke-width="4"/>
<path d="M15.7156 178.562H27.026C34.6062 178.562 40.7416 172.419 40.7416 164.846C40.7416 157.273 34.5992 151.131 27.026 151.131H15.7156C8.14243 151.131 2 157.273 2 164.846C2 172.42 8.14243 178.562 15.7156 178.562Z" fill="#F8334E" stroke="white" stroke-width="4"/>
<path d="M173.398 160.132H169.74V155.992C169.74 151.671 166.235 148.176 161.923 148.176L161.919 148.176C157.603 148.184 154.106 151.678 154.106 155.999V168.6C154.106 172.737 157.464 176.094 161.6 176.094H173.398C177.807 176.094 181.379 172.522 181.379 168.113C181.379 163.705 177.807 160.132 173.398 160.132Z" fill="#F8334E" stroke="white" stroke-width="4"/>
<path d="M195.55 136.755L192.273 134.037C185.055 128.051 175.787 124.453 165.676 124.453C142.64 124.453 123.965 143.128 123.965 166.163C123.965 183.077 134.035 197.628 148.506 204.178L147.681 208H44.235C33.8516 208 25.4307 199.579 25.4307 189.196V188.455V186.247L27.6277 186.465C28.2148 186.523 28.7872 186.556 29.3611 186.556C40.051 186.556 49.0263 176.97 49.0263 164.739C49.0263 152.509 40.045 142.922 29.3611 142.922C28.7872 142.922 28.2148 142.955 27.6277 143.014L25.4307 143.231V141.023V129.023V126.815L27.6277 127.033C28.2148 127.091 28.7872 127.124 29.3611 127.124C40.051 127.124 49.0263 117.537 49.0263 105.307C49.0263 93.0769 40.045 83.4898 29.3611 83.4898C28.7872 83.4898 28.2148 83.5232 27.6277 83.5813L25.4307 83.7988V81.591V69.078V66.8702L27.6277 67.0877C28.2148 67.1459 28.7872 67.1793 29.3611 67.1793C40.051 67.1793 49.0263 57.5925 49.0263 45.3621C49.0263 33.132 40.045 23.5449 29.3611 23.5449C28.7872 23.5449 28.2148 23.5783 27.6277 23.6364L25.4307 23.8539V21.6461V20.8043C25.4307 10.421 33.8516 2 44.235 2H176.752C187.135 2 195.557 10.421 195.55 20.8057M195.55 136.755V20.8057M195.55 136.755V132.498M195.55 136.755V132.498M195.55 20.8057V132.498M195.55 20.8057V132.498M76.5128 106.952L76.6646 107.308C76.8595 107.766 77.142 108.195 77.511 108.564C79.0844 110.137 81.641 110.137 83.2144 108.564L107.391 84.3877L76.5128 106.952ZM76.5128 106.952L76.2388 106.678M76.5128 106.952L76.2388 106.678M76.2388 106.678L64.3587 94.7975C62.7852 93.2241 62.7852 90.6675 64.3587 89.0941C65.9321 87.5206 68.4887 87.5206 70.0621 89.0941L79.2523 98.2842L80.6665 99.6984M76.2388 106.678L80.6665 99.6984M80.6665 99.6984L82.0807 98.2842M80.6665 99.6984L82.0807 98.2842M82.0807 98.2842L101.689 78.676M82.0807 98.2842L101.689 78.676M101.689 78.676C103.262 77.1031 105.817 77.1025 107.391 78.6744M101.689 78.676L107.391 78.6744M107.391 78.6744C108.966 80.254 108.966 82.8056 107.392 84.3858L107.391 78.6744ZM128.162 97.3131H128.158C125.938 97.3173 124.13 95.5144 124.13 93.2813C124.13 91.0566 125.937 89.2494 128.162 89.2494H163.498C165.723 89.2494 167.53 91.0566 167.53 93.2813C167.53 95.5059 165.723 97.3131 163.498 97.3131H128.162ZM79.17 50.0612L80.5842 51.4754L81.9984 50.0612L101.607 30.453C103.18 28.8795 105.737 28.8795 107.31 30.453C108.884 32.0264 108.884 34.583 107.31 36.1565L83.436 60.0306L84.8502 61.4448L83.436 60.0306L83.1322 60.3344C81.5587 61.9079 79.0021 61.9079 77.4287 60.3344C77.0598 59.9655 76.7772 59.5363 76.5823 59.0788L76.4304 58.722L76.1561 58.4479L64.2764 46.5745C64.2763 46.5744 64.2762 46.5743 64.2761 46.5742C62.7029 45.0007 62.703 42.4444 64.2764 40.871C65.8498 39.2976 68.4064 39.2976 69.9799 40.871L79.17 50.0612ZM107.312 132.17L107.31 132.172L83.436 156.046L83.1322 156.35C81.5587 157.924 79.0021 157.924 77.4287 156.35C77.0597 155.981 76.7772 155.552 76.5823 155.094L76.4305 154.738L76.1565 154.464L64.2764 142.584C62.7029 141.01 62.7029 138.454 64.2764 136.88C65.8498 135.307 68.4064 135.307 69.9799 136.88L79.17 146.071L80.5842 147.485L81.9984 146.071L101.607 126.462C103.18 124.889 105.737 124.889 107.31 126.462C108.891 128.043 108.888 130.598 107.312 132.17ZM128.162 41.229H163.498C165.723 41.229 167.53 43.0361 167.53 45.2608C167.53 47.4854 165.723 49.2926 163.498 49.2926H128.162C125.937 49.2926 124.13 47.4854 124.13 45.2608C124.13 43.0361 125.937 41.229 128.162 41.229Z" fill="#F8334E" stroke="white" stroke-width="4"/>
</svg>
