<svg width="100" height="119" viewBox="0 0 100 119" fill="currentColor" xmlns="http://www.w3.org/2000/svg">
<path d="M95.2438 39.7117H78.3383V7.99731C78.3383 3.5788 74.7761 0 70.3781 0C65.9801 0 62.4179 3.5788 62.4179 7.99731V39.7117H37.5771V7.99731C37.5771 3.5788 34.0149 0 29.6169 0C25.2189 0 21.6567 3.5788 21.6567 7.99731V39.7117H4.75622C2.12935 39.7117 0 41.8509 0 44.4851V51.8526C0 54.4917 2.12935 56.631 4.75622 56.631H8.9602V74.7849C8.9602 91.4942 22.4428 105.04 39.0746 105.04H42.0398V118.958H57.9602V105.04H60.9254C77.5572 105.04 91.0398 91.4942 91.0398 74.7849V56.631H95.2438C97.8707 56.631 100 54.4917 100 51.8526V44.4851C100 41.8509 97.8707 39.7117 95.2438 39.7117Z" />
</svg>
