<svg width="54" height="54" viewBox="0 0 54 54" fill="none" xmlns="http://www.w3.org/2000/svg">
<path d="M20.0185 45.0001C20.0185 44.5227 20.1942 44.0648 20.5071 43.7273C20.8199 43.3897 21.2442 43.2001 21.6866 43.2001H31.6958C32.1382 43.2001 32.5625 43.3897 32.8754 43.7273C33.1882 44.0648 33.364 44.5227 33.364 45.0001C33.364 45.4775 33.1882 45.9353 32.8754 46.2729C32.5625 46.6104 32.1382 46.8001 31.6958 46.8001H21.6866C21.2442 46.8001 20.8199 46.6104 20.5071 46.2729C20.1942 45.9353 20.0185 45.4775 20.0185 45.0001ZM10.0093 29.0233C10.0093 24.3361 14.1297 20.7541 18.4504 21.1897C23.9323 21.7418 29.4501 21.7418 34.9321 21.1897C39.2527 20.7541 43.3731 24.3361 43.3731 29.0233V33.1885C43.3867 33.985 43.1375 34.7608 42.67 35.3774C42.2025 35.994 41.547 36.4112 40.8208 36.5545C38.0015 37.0837 33.0136 37.8001 26.6912 37.8001C20.3688 37.8001 15.3809 37.0801 12.5616 36.5545C11.8354 36.4112 11.18 35.994 10.7124 35.3774C10.2449 34.7608 9.99569 33.985 10.0093 33.1885V29.0233ZM25.1631 26.0461C25.0331 26.0222 24.8997 26.032 24.7739 26.0745C24.648 26.1171 24.5333 26.1912 24.4392 26.2909L21.3697 29.5309C19.2819 29.3966 17.1996 29.1769 15.1273 28.8721C14.9126 28.8491 14.6979 28.9168 14.5284 29.0609C14.359 29.2051 14.2479 29.4145 14.2185 29.6452C14.1891 29.8759 14.2438 30.1099 14.3709 30.298C14.4981 30.4861 14.6879 30.6138 14.9005 30.6541C16.7355 30.9277 19.0109 31.1905 21.6399 31.3489C21.7557 31.3559 21.8716 31.3368 21.9802 31.2928C22.0888 31.2488 22.1876 31.1809 22.2705 31.0933L24.7861 28.4437L27.6121 34.5997C27.6716 34.7288 27.759 34.8406 27.867 34.9257C27.9749 35.0108 28.1002 35.0666 28.2324 35.0885C28.3645 35.1104 28.4995 35.0977 28.6262 35.0514C28.7528 35.0052 28.8673 34.9268 28.9599 34.8229L32.0695 31.3309C34.2142 31.1935 36.3532 30.9677 38.482 30.6541C38.6945 30.6138 38.8843 30.4861 39.0115 30.298C39.1386 30.1099 39.1933 29.8759 39.1639 29.6452C39.1345 29.4145 39.0234 29.2051 38.854 29.0609C38.6845 28.9168 38.4698 28.8491 38.2551 28.8721C36.4601 29.1385 34.2281 29.3941 31.6491 29.5525C31.4391 29.5651 31.2413 29.6628 31.0952 29.8261L28.5796 32.6521L25.7704 26.5321C25.7118 26.4052 25.6262 26.2951 25.5207 26.2106C25.4152 26.1261 25.2927 26.0698 25.1631 26.0461Z" fill="#D32A3D"/>
<path d="M28.3592 6.71768C28.9953 6.32144 29.4924 5.70981 29.7734 4.97765C30.0545 4.24549 30.1038 3.43373 29.9137 2.66825C29.7236 1.90277 29.3048 1.22636 28.7221 0.743927C28.1394 0.261494 27.4255 0 26.691 0C25.9566 0 25.2426 0.261494 24.66 0.743927C24.0773 1.22636 23.6584 1.90277 23.4683 2.66825C23.2782 3.43373 23.3276 4.24549 23.6086 4.97765C23.8897 5.70981 24.3868 6.32144 25.0228 6.71768V10.8001H18.3501C14.3682 10.8001 10.5494 12.5068 7.73379 15.5449C4.91817 18.583 3.33638 22.7035 3.33638 27V28.8C2.45152 28.8 1.60289 29.1793 0.977203 29.8545C0.35151 30.5296 0 31.4453 0 32.4L0 39.6C0 40.5548 0.35151 41.4705 0.977203 42.1456C1.60289 42.8207 2.45152 43.2 3.33638 43.2V46.8C3.33638 48.7096 4.0394 50.5409 5.29078 51.8912C6.54217 53.2414 8.23941 54 10.0091 54H43.3729C45.1426 54 46.8399 53.2414 48.0913 51.8912C49.3427 50.5409 50.0457 48.7096 50.0457 46.8V43.2C50.9305 43.2 51.7792 42.8207 52.4048 42.1456C53.0305 41.4705 53.382 40.5548 53.382 39.6V32.4C53.382 31.4453 53.0305 30.5296 52.4048 29.8545C51.7792 29.1793 50.9305 28.8 50.0457 28.8V27C50.0457 22.7035 48.4639 18.583 45.6483 15.5449C42.8326 12.5068 39.0139 10.8001 35.032 10.8001H28.3592V6.71768ZM46.7093 27V46.8C46.7093 47.7548 46.3578 48.6705 45.7321 49.3456C45.1064 50.0207 44.2578 50.4 43.3729 50.4H10.0091C9.12427 50.4 8.27565 50.0207 7.64996 49.3456C7.02427 48.6705 6.67276 47.7548 6.67276 46.8V27C6.67276 23.6583 7.90304 20.4535 10.093 18.0905C12.2829 15.7276 15.2531 14.4001 18.3501 14.4001H35.032C38.129 14.4001 41.0992 15.7276 43.2891 18.0905C45.479 20.4535 46.7093 23.6583 46.7093 27Z" fill="#D32A3D"/>
</svg>
