<svg width="52" height="52" viewBox="0 0 52 52" fill="none" xmlns="http://www.w3.org/2000/svg">
<path d="M48.7695 17.936H38.9234L31.5389 9.96802L38.9234 2H48.7695M3.23145 40.5121C3.23145 39.8077 3.49078 39.1321 3.95241 38.634C4.41403 38.1359 5.04013 37.8561 5.69296 37.8561H47.5387C48.1915 37.8561 48.8176 38.1359 49.2793 38.634C49.7409 39.1321 50.0002 39.8077 50.0002 40.5121V49.8081H3.23145V40.5121Z" stroke="#D32A3D" stroke-width="4" stroke-linecap="round" stroke-linejoin="round"/>
<path d="M6.92303 15.2798C9.64194 15.2798 11.8461 12.9015 11.8461 9.96777C11.8461 7.03403 9.64194 4.65576 6.92303 4.65576C4.20411 4.65576 2 7.03403 2 9.96777C2 12.9015 4.20411 15.2798 6.92303 15.2798Z" stroke="#D32A3D" stroke-width="4"/>
<path d="M11.8453 9.96826H31.5374M9.38379 15.2803L19.2298 37.8563" stroke="#D32A3D" stroke-width="4" stroke-linecap="round" stroke-linejoin="round"/>
</svg>
