<svg width="114" height="113" viewBox="0 0 114 113" fill="currentColor" xmlns="http://www.w3.org/2000/svg">
<path d="M27.9303 75.2324L37.3686 84.5987C37.9298 85.1551 37.9706 86.045 37.4669 86.6542C36.7042 87.5753 35.4258 88.9352 33.6125 90.252C31.7824 91.5808 29.7292 92.5714 27.5705 93.243C25.5414 93.8762 21.0489 95.4065 16.7267 97.7523C15.8728 98.2152 14.8535 97.5124 14.9782 96.5482C15.4723 92.7489 17.4991 84.6442 25.7069 75.3091C26.2921 74.6519 27.3067 74.6135 27.9303 75.2324Z" />
<path d="M82.1355 67.9937C82.1355 67.9937 120.925 27.3168 112.436 3.61439C112.055 2.54704 111.225 1.70755 110.162 1.31179C86.5728 -7.47886 45.3923 30.7899 45.3923 30.7899L36.014 28.7967C33.4211 28.245 30.7228 29.0389 28.8423 30.9074L0.553922 58.9943C-0.535016 60.0761 0.0718151 61.9349 1.58769 62.1676L21.2941 65.1826C23.9589 65.5903 26.6788 65.0051 28.9383 63.5348L30.3294 62.6305L40.3721 72.4813L50.1006 82.644L49.1796 84.0231C47.6829 86.2634 47.0616 88.9761 47.4334 91.6457L50.1965 111.388C50.41 112.909 52.2617 113.537 53.3578 112.463L81.8093 84.5364C83.7018 82.6799 84.5293 79.9936 84.0112 77.3936L82.1355 67.9937ZM80.3822 21.083C80.3822 14.4606 85.7525 9.09027 92.3749 9.09027C98.9973 9.09027 104.368 14.4606 104.368 21.083C104.368 27.7054 98.9973 33.0757 92.3749 33.0757C85.7525 33.0757 80.3822 27.7054 80.3822 21.083Z" />
</svg>
