<svg width="51" height="54" viewBox="0 0 51 54" fill="none" xmlns="http://www.w3.org/2000/svg">
<path d="M42.8969 0H50.0463V7.71429H42.8969V0ZM42.8969 11.5714H50.0463V19.2857H42.8969V11.5714ZM32.1729 0H39.3222V7.71429H32.1729V0ZM32.1729 11.5714H39.3222V19.2857H32.1729V11.5714Z" fill="#D32A3D"/>
<path d="M46.4711 26.9998V38.5712H3.5747V7.71408H25.0229V3.85693H3.5747C2.62663 3.85693 1.71739 4.26331 1.047 4.98666C0.376619 5.71002 0 6.6911 0 7.71408V38.5712C0 39.5942 0.376619 40.5753 1.047 41.2986C1.71739 42.022 2.62663 42.4284 3.5747 42.4284H17.8735V50.1426H10.7241V53.9998H39.3217V50.1426H32.1723V42.4284H46.4711C47.4191 42.4284 48.3284 42.022 48.9988 41.2986C49.6691 40.5753 50.0458 39.5942 50.0458 38.5712V26.9998H46.4711ZM28.5976 50.1426H21.4482V42.4284H28.5976V50.1426Z" fill="#D32A3D"/>
</svg>
