<svg width="50" height="54" viewBox="0 0 50 54" fill="none" xmlns="http://www.w3.org/2000/svg">
<path d="M45 0H5C3.67392 0 2.40215 0.568927 1.46447 1.58162C0.526784 2.59432 0 3.96783 0 5.4V37.8C0 39.2322 0.526784 40.6057 1.46447 41.6184C2.40215 42.6311 3.67392 43.2 5 43.2H20V48.6H12.5V54H37.5V48.6H30V43.2H45C46.3261 43.2 47.5979 42.6311 48.5355 41.6184C49.4732 40.6057 50 39.2322 50 37.8V5.4C50 3.96783 49.4732 2.59432 48.5355 1.58162C47.5979 0.568927 46.3261 0 45 0ZM45 37.8H5V5.4H45V37.8ZM36.875 29.7C36.875 30.9531 36.4141 32.155 35.5936 33.0411C34.7731 33.9272 33.6603 34.425 32.5 34.425C31.3397 34.425 30.2269 33.9272 29.4064 33.0411C28.5859 32.155 28.125 30.9531 28.125 29.7L20 25.272C19.3673 25.798 18.6108 26.1222 17.8163 26.2077C17.0217 26.2933 16.2209 26.1368 15.5045 25.756C14.788 25.3752 14.1847 24.7853 13.7628 24.0531C13.3409 23.321 13.1172 22.4759 13.1172 21.6135C13.1172 20.7511 13.3409 19.906 13.7628 19.1739C14.1847 18.4417 14.788 17.8518 15.5045 17.471C16.2209 17.0902 17.0217 16.9337 17.8163 17.0193C18.6108 17.1048 19.3673 17.429 20 17.955L28.125 13.5C28.111 12.4166 28.4383 11.3603 29.0532 10.5042C29.6681 9.64807 30.5341 9.04303 31.5092 8.78829C32.4843 8.53355 33.5106 8.64422 34.4198 9.10215C35.329 9.56008 36.0672 10.3381 36.5132 11.3086C36.9592 12.2791 37.0866 13.3845 36.8746 14.4435C36.6625 15.5025 36.1236 16.4522 35.3461 17.137C34.5686 17.8217 33.5988 18.2008 32.5956 18.2121C31.5924 18.2233 30.6155 17.8661 29.825 17.199L21.775 21.6L29.825 25.947C30.4703 25.3952 31.2472 25.0524 32.0657 24.9584C32.8841 24.8644 33.7104 25.0232 34.4487 25.4162C35.1869 25.8092 35.8068 26.4203 36.2363 27.1786C36.6658 27.9369 36.8872 28.8112 36.875 29.7Z" fill="#D32A3D"/>
</svg>
