<svg width="108" height="114" viewBox="0 0 108 114" fill="currentColor" xmlns="http://www.w3.org/2000/svg">
<path d="M105.104 31.2235C103.117 28.5124 100.045 26.7975 96.691 26.5303L27.3078 21.0352L26.0465 13.8893C24.8934 7.36434 19.7015 2.31161 13.1476 1.34217L11.8869 1.15402L4.38608 0.041191C2.29645 -0.265629 0.352001 1.17451 0.0420639 3.26413C-0.268541 5.35554 1.17449 7.30022 3.26412 7.60904V7.60726L12.0272 8.90623L12.0292 8.91202C15.3218 9.39385 17.9354 11.937 18.5154 15.2185L30.3914 82.5278C31.5058 88.8457 36.9925 93.4484 43.4081 93.4504H92.2125C94.3255 93.4504 96.0368 91.7373 96.0368 89.627C96.0368 87.5149 94.3255 85.8018 92.2125 85.8018H43.4079C40.7064 85.8038 38.3901 83.8591 37.9212 81.199L36.2599 71.7809H90.6641C96.0499 71.7809 100.722 68.0645 101.932 62.8163L107.046 40.657C107.803 37.381 107.093 33.9381 105.104 31.2235Z" />
<path d="M46.3254 97.5503C41.7827 97.5503 38.1016 101.236 38.1016 105.777C38.1016 110.318 41.7827 114 46.3254 114C50.8678 114 54.5512 110.318 54.5512 105.777C54.5509 101.236 50.8678 97.5503 46.3254 97.5503Z" />
<path d="M82.8664 97.5503C78.3229 97.5503 74.6426 101.236 74.6426 105.777C74.6426 110.318 78.3229 114 82.8664 114C87.409 114 91.0922 110.318 91.0922 105.777C91.0922 101.236 87.409 97.5503 82.8664 97.5503Z" />
</svg>
