<svg width="800" height="500" viewBox="0 0 800 500" fill="none" xmlns="http://www.w3.org/2000/svg">
<path d="M184.376 467.225L197.224 462.931C198.825 455.665 198.719 448.097 196.914 440.884C191.753 452.978 176.609 455.941 167.981 465.594C165.311 468.626 163.324 472.252 162.166 476.204C161.007 480.156 160.708 484.332 161.289 488.422L158.586 498.084C164.899 497.516 171.02 495.512 176.528 492.211C182.035 488.91 186.798 484.39 190.488 478.962C192.53 475.895 194.196 472.57 195.449 469.065C189.97 468.487 184.376 467.225 184.376 467.225Z" fill="#F2F2F2"/>
<path d="M639.686 467.225L626.838 462.931C625.237 455.665 625.343 448.097 627.148 440.884C632.309 452.978 647.453 455.941 656.081 465.594C658.75 468.626 660.738 472.252 661.896 476.204C663.054 480.156 663.354 484.332 662.773 488.422L665.476 498.084C659.163 497.516 653.041 495.512 647.534 492.211C642.027 488.91 637.264 484.39 633.574 478.962C631.532 475.895 629.865 472.57 628.612 469.065C634.092 468.487 639.686 467.225 639.686 467.225Z" fill="#F2F2F2"/>
<path d="M170.647 449.358L180.329 439.476C178.687 432.22 175.389 425.497 170.721 419.889C171.219 433.139 158.919 442.908 155.282 455.602C154.176 459.571 153.932 463.751 154.568 467.832C155.204 471.913 156.703 475.792 158.954 479.18L160.624 489.098C166.034 485.623 170.665 480.952 174.197 475.409C177.73 469.866 180.079 463.582 181.085 456.99C181.614 453.286 181.699 449.526 181.337 445.8C176.188 447.858 170.647 449.358 170.647 449.358Z" fill="#F2F2F2"/>
<path d="M196.532 265.374C195.474 265.524 194.398 265.427 193.38 265.091C192.362 264.755 191.426 264.187 190.638 263.429C189.85 262.67 189.23 261.739 188.821 260.7C188.412 259.662 188.224 258.541 188.27 257.418L141.604 207.523L154.631 197.966L196.406 250.016C198.192 250.223 199.844 251.113 201.048 252.518C202.253 253.922 202.927 255.743 202.943 257.636C202.958 259.53 202.314 261.363 201.133 262.789C199.951 264.215 198.314 265.135 196.532 265.374Z" fill="#FFB6B6"/>
<path d="M127.247 185.94C127.247 185.94 123.94 188.029 129.444 194.39C133.852 199.483 153.083 223.967 160.759 229.079C160.343 230.347 160.338 231.724 160.746 232.994C161.154 234.265 161.951 235.356 163.013 236.096L174.815 220.576C174.141 216.127 171.294 216.354 169.694 216.894L162.29 207.195L145.512 177.541L129.612 184.386L127.247 185.94Z" fill="#D32A3D"/>
<path d="M90.3926 483.237H99.1907L103.378 447.479H90.3926V483.237Z" fill="#FFB6B6"/>
<path d="M87.5203 476.888L101.576 476.004V482.35L114.939 492.075C115.599 492.555 116.096 493.245 116.358 494.044C116.619 494.843 116.632 495.709 116.393 496.516C116.154 497.323 115.677 498.029 115.031 498.529C114.385 499.03 113.604 499.3 112.802 499.3H96.0678L93.1835 493.023L92.0573 499.3H85.748L87.5203 476.888Z" fill="#2F2E41"/>
<path d="M139.811 483.237H148.609L152.796 447.479H139.811V483.237Z" fill="#FFB6B6"/>
<path d="M136.94 476.888L150.996 476.004V482.35L164.359 492.075C165.019 492.555 165.516 493.245 165.778 494.044C166.039 494.843 166.052 495.709 165.813 496.516C165.574 497.323 165.097 498.029 164.451 498.529C163.805 499.03 163.024 499.3 162.221 499.3H145.488L142.603 493.023L141.477 499.3H135.168L136.94 476.888Z" fill="#2F2E41"/>
<path d="M86.5966 452.401H86.6922L88.3842 394.259C87.2892 392.034 86.7335 389.557 86.7666 387.05C86.7996 384.544 87.4203 382.085 88.5735 379.892L88.8157 379.43L88.1876 376.362C87.3809 372.42 87.7511 368.312 89.2474 364.601L90.8259 310.365C85.1867 271.853 112.061 246.737 112.061 246.737L107.15 224.967L155.772 219.928L152.32 246.737L160.963 278.03C166.677 336.69 165.64 393.853 156.573 449.235L156.821 449.366C157.711 449.69 158.092 450.989 157.673 452.268C157.255 453.548 156.193 454.322 155.303 453.998L134.042 453.219C133.152 452.895 132.77 451.596 133.189 450.317C133.608 449.038 134.669 448.263 135.559 448.587L137.005 449.358L133.922 393.253L134.264 383.005L133.559 371.378L130.3 319.084L117.965 383.391L105.364 453.049C105.712 453.38 105.956 453.815 106.064 454.296C106.172 454.776 106.139 455.28 105.97 455.741C105.801 456.202 105.503 456.598 105.116 456.876C104.728 457.155 104.27 457.303 103.801 457.302H86.5966C85.9799 457.302 85.3885 457.043 84.9525 456.584C84.5164 456.124 84.2715 455.501 84.2715 454.851C84.2715 454.202 84.5164 453.579 84.9525 453.119C85.3885 452.66 85.9799 452.401 86.5966 452.401Z" fill="#2F2E41"/>
<path d="M552.839 236.618H252.128C242.017 236.606 232.324 232.368 225.174 224.834C218.025 217.3 214.004 207.086 213.992 196.432V60.223C214.003 49.5886 218.01 39.3914 225.136 31.861C232.261 24.3305 241.927 20.0794 252.019 20.0371C298.72 6.41543 348.308 -0.322013 399.427 0.0118228C448.069 0.329667 499.714 7.06711 552.931 20.0371C563.025 20.075 572.695 24.3241 579.825 31.855C586.954 39.3859 590.963 49.5856 590.975 60.223V196.432C590.963 207.086 586.942 217.3 579.793 224.834C572.643 232.368 562.95 236.606 552.839 236.618ZM252.128 21.717C242.44 21.7286 233.151 25.7892 226.301 33.008C219.451 40.2268 215.597 50.0142 215.586 60.2231V196.432C215.597 206.641 219.451 216.428 226.301 223.647C233.151 230.866 242.44 234.926 252.128 234.938H552.839C562.527 234.926 571.815 230.866 578.666 223.647C585.516 216.428 589.37 206.641 589.38 196.432V60.2231C589.37 50.0142 585.516 40.2268 578.666 33.008C571.815 25.7892 562.527 21.7286 552.839 21.717L552.659 21.6953C442.536 -5.15689 344.301 -5.16057 252.34 21.6866L252.128 21.717Z" fill="#E6E6E6"/>
<path d="M246.824 201.071C246.706 201.071 246.588 201.046 246.479 200.998C246.369 200.95 246.27 200.88 246.186 200.792C246.102 200.704 246.036 200.599 245.99 200.484C245.945 200.368 245.922 200.245 245.922 200.12V56.5358C245.922 56.2837 246.017 56.0418 246.186 55.8635C246.355 55.6851 246.585 55.585 246.824 55.585C247.064 55.585 247.293 55.6851 247.462 55.8635C247.632 56.0418 247.727 56.2837 247.727 56.5358V200.12C247.727 200.245 247.703 200.368 247.658 200.484C247.613 200.599 247.546 200.704 247.462 200.792C247.379 200.88 247.279 200.95 247.17 200.998C247.06 201.046 246.943 201.071 246.824 201.071Z" fill="#E6E6E6"/>
<path d="M325.734 201.071C325.616 201.071 325.499 201.046 325.389 200.998C325.28 200.95 325.18 200.88 325.096 200.792C325.012 200.704 324.946 200.599 324.901 200.484C324.855 200.368 324.832 200.245 324.832 200.12V56.5358C324.832 56.2837 324.927 56.0418 325.096 55.8635C325.266 55.6851 325.495 55.585 325.734 55.585C325.974 55.585 326.203 55.6851 326.372 55.8635C326.542 56.0418 326.637 56.2837 326.637 56.5358V200.12C326.637 200.245 326.613 200.368 326.568 200.484C326.523 200.599 326.456 200.704 326.373 200.792C326.289 200.88 326.189 200.95 326.08 200.998C325.97 201.046 325.853 201.071 325.734 201.071Z" fill="#E6E6E6"/>
<path d="M404.645 201.071C404.526 201.071 404.409 201.046 404.299 200.998C404.19 200.95 404.09 200.88 404.006 200.792C403.923 200.704 403.856 200.599 403.811 200.484C403.765 200.368 403.742 200.245 403.742 200.12V56.5358C403.742 56.2837 403.837 56.0418 404.007 55.8635C404.176 55.6851 404.405 55.585 404.645 55.585C404.884 55.585 405.113 55.6851 405.283 55.8635C405.452 56.0418 405.547 56.2837 405.547 56.5358V200.12C405.547 200.245 405.524 200.368 405.478 200.484C405.433 200.599 405.367 200.704 405.283 200.792C405.199 200.88 405.099 200.95 404.99 200.998C404.88 201.046 404.763 201.071 404.645 201.071Z" fill="#E6E6E6"/>
<path d="M483.555 201.071C483.436 201.071 483.319 201.046 483.209 200.998C483.1 200.95 483 200.88 482.917 200.792C482.833 200.704 482.766 200.599 482.721 200.484C482.676 200.368 482.652 200.245 482.652 200.12V56.5358C482.652 56.2837 482.747 56.0418 482.917 55.8635C483.086 55.6851 483.315 55.585 483.555 55.585C483.794 55.585 484.024 55.6851 484.193 55.8635C484.362 56.0418 484.457 56.2837 484.457 56.5358V200.12C484.457 200.245 484.434 200.368 484.389 200.484C484.343 200.599 484.277 200.704 484.193 200.792C484.109 200.88 484.01 200.95 483.9 200.998C483.791 201.046 483.673 201.071 483.555 201.071Z" fill="#E6E6E6"/>
<path d="M239.795 77.9323C239.795 77.8075 239.818 77.6838 239.864 77.5684C239.909 77.453 239.975 77.3482 240.059 77.2599C240.143 77.1716 240.242 77.1015 240.352 77.0538C240.461 77.006 240.579 76.9814 240.697 76.9814H564.269C564.387 76.9814 564.505 77.006 564.614 77.0538C564.723 77.1016 564.823 77.1717 564.907 77.26C564.991 77.3483 565.057 77.4531 565.102 77.5685C565.148 77.6838 565.171 77.8075 565.171 77.9323C565.171 78.0572 565.148 78.1809 565.102 78.2962C565.057 78.4116 564.991 78.5164 564.907 78.6047C564.823 78.693 564.723 78.7631 564.614 78.8108C564.505 78.8586 564.387 78.8832 564.269 78.8832H240.697C240.579 78.8833 240.461 78.8587 240.352 78.8109C240.242 78.7631 240.143 78.6931 240.059 78.6048C239.975 78.5165 239.909 78.4116 239.864 78.2963C239.818 78.1809 239.795 78.0572 239.795 77.9323Z" fill="#E6E6E6"/>
<path d="M239.795 183.762C239.795 183.638 239.818 183.514 239.864 183.398C239.909 183.283 239.975 183.178 240.059 183.09C240.143 183.002 240.242 182.932 240.352 182.884C240.461 182.836 240.579 182.811 240.697 182.812H564.269C564.508 182.812 564.738 182.912 564.907 183.09C565.076 183.268 565.171 183.51 565.171 183.762C565.171 184.015 565.076 184.256 564.907 184.435C564.738 184.613 564.508 184.713 564.269 184.713H240.697C240.579 184.713 240.461 184.689 240.352 184.641C240.242 184.593 240.143 184.523 240.059 184.435C239.975 184.347 239.909 184.242 239.864 184.126C239.818 184.011 239.795 183.887 239.795 183.762Z" fill="#E6E6E6"/>
<path d="M239.795 130.847C239.795 130.722 239.818 130.599 239.864 130.483C239.909 130.368 239.975 130.263 240.059 130.175C240.143 130.087 240.242 130.017 240.352 129.969C240.461 129.921 240.579 129.896 240.697 129.896H564.269C564.508 129.896 564.738 129.997 564.907 130.175C565.076 130.353 565.171 130.595 565.171 130.847C565.171 131.1 565.076 131.341 564.907 131.52C564.738 131.698 564.508 131.798 564.269 131.798H240.697C240.579 131.798 240.461 131.774 240.352 131.726C240.242 131.678 240.143 131.608 240.059 131.52C239.975 131.432 239.909 131.327 239.864 131.211C239.818 131.096 239.795 130.972 239.795 130.847Z" fill="#E6E6E6"/>
<path d="M559.947 201.071C560.066 201.071 560.183 201.046 560.293 200.998C560.402 200.95 560.502 200.88 560.585 200.792C560.669 200.704 560.736 200.599 560.781 200.484C560.826 200.368 560.85 200.245 560.85 200.12V56.5358C560.85 56.2837 560.755 56.0418 560.585 55.8635C560.416 55.6851 560.187 55.585 559.947 55.585C559.708 55.585 559.478 55.6851 559.309 55.8635C559.14 56.0418 559.045 56.2837 559.045 56.5358V200.12C559.045 200.245 559.068 200.368 559.114 200.484C559.159 200.599 559.225 200.704 559.309 200.792C559.393 200.88 559.492 200.95 559.602 200.998C559.711 201.046 559.829 201.071 559.947 201.071Z" fill="#E6E6E6"/>
<path d="M296.043 124.405H273.315C272.064 124.404 270.857 123.927 269.913 123.063C268.969 122.199 268.353 121.006 268.178 119.701C266.774 108.819 266.774 97.7868 268.178 86.9046C268.351 85.616 268.955 84.4347 269.88 83.5729C270.806 82.711 271.992 82.225 273.227 82.2022C280.379 78.8244 288.08 78.8248 296.121 82.2017C296.87 82.2122 297.608 82.3953 298.282 82.7381C298.957 83.081 299.552 83.5753 300.026 84.1863C300.521 84.822 300.874 85.5657 301.062 86.3634C301.249 87.1611 301.266 87.9928 301.11 88.7981C299.284 98.3723 299.284 108.234 301.11 117.808C301.266 118.613 301.249 119.445 301.062 120.243C300.874 121.04 300.521 121.784 300.026 122.42C299.544 123.042 298.936 123.542 298.247 123.886C297.558 124.229 296.805 124.406 296.043 124.405Z" fill="#D32A3D"/>
<path d="M293.663 94.7063H274.534C274.216 94.7063 273.912 94.5736 273.688 94.3373C273.464 94.101 273.338 93.7806 273.338 93.4464C273.338 93.1123 273.464 92.7918 273.688 92.5556C273.912 92.3193 274.216 92.1865 274.534 92.1865H293.663C293.98 92.1865 294.285 92.3193 294.509 92.5556C294.733 92.7918 294.859 93.1123 294.859 93.4464C294.859 93.7806 294.733 94.101 294.509 94.3373C294.285 94.5736 293.98 94.7063 293.663 94.7063Z" fill="white"/>
<path d="M293.663 104.785H274.534C274.216 104.785 273.912 104.653 273.688 104.416C273.464 104.18 273.338 103.86 273.338 103.526C273.338 103.191 273.464 102.871 273.688 102.635C273.912 102.398 274.216 102.266 274.534 102.266H293.663C293.98 102.266 294.285 102.398 294.509 102.635C294.733 102.871 294.859 103.191 294.859 103.526C294.859 103.86 294.733 104.18 294.509 104.416C294.285 104.653 293.98 104.785 293.663 104.785Z" fill="white"/>
<path d="M293.663 114.864H274.534C274.216 114.864 273.912 114.732 273.688 114.495C273.464 114.259 273.338 113.939 273.338 113.605C273.338 113.27 273.464 112.95 273.688 112.714C273.912 112.477 274.216 112.345 274.534 112.345H293.663C293.98 112.345 294.285 112.477 294.509 112.714C294.733 112.95 294.859 113.27 294.859 113.605C294.859 113.939 294.733 114.259 294.509 114.495C294.285 114.732 293.98 114.864 293.663 114.864Z" fill="white"/>
<path d="M459.443 179.839H436.715C435.465 179.838 434.257 179.362 433.313 178.498C432.37 177.634 431.753 176.44 431.578 175.136C430.175 164.254 430.175 153.221 431.578 142.339C431.751 141.051 432.355 139.869 433.281 139.007C434.206 138.146 435.393 137.66 436.628 137.637C443.779 134.259 451.48 134.259 459.522 137.636C460.27 137.647 461.008 137.83 461.683 138.173C462.357 138.516 462.953 139.01 463.427 139.621C463.921 140.257 464.275 141 464.462 141.798C464.65 142.596 464.666 143.427 464.51 144.233C462.685 153.807 462.685 163.668 464.51 173.242C464.666 174.048 464.65 174.879 464.462 175.677C464.275 176.475 463.921 177.219 463.427 177.854C462.944 178.476 462.337 178.977 461.647 179.32C460.958 179.664 460.206 179.841 459.443 179.839Z" fill="#D32A3D"/>
<path d="M457.064 150.141H437.934C437.617 150.141 437.313 150.008 437.089 149.772C436.864 149.536 436.738 149.215 436.738 148.881C436.738 148.547 436.864 148.226 437.089 147.99C437.313 147.754 437.617 147.621 437.934 147.621H457.064C457.381 147.621 457.685 147.754 457.909 147.99C458.133 148.226 458.259 148.547 458.259 148.881C458.259 149.215 458.133 149.536 457.909 149.772C457.685 150.008 457.381 150.141 457.064 150.141Z" fill="white"/>
<path d="M457.064 160.22H437.934C437.617 160.22 437.313 160.087 437.089 159.851C436.864 159.615 436.738 159.294 436.738 158.96C436.738 158.626 436.864 158.305 437.089 158.069C437.313 157.833 437.617 157.7 437.934 157.7H457.064C457.381 157.7 457.685 157.833 457.909 158.069C458.133 158.305 458.259 158.626 458.259 158.96C458.259 159.294 458.133 159.615 457.909 159.851C457.685 160.087 457.381 160.22 457.064 160.22Z" fill="white"/>
<path d="M528.789 124.405H506.061C504.811 124.404 503.603 123.927 502.659 123.063C501.715 122.199 501.099 121.006 500.924 119.701C499.52 108.819 499.52 97.7868 500.924 86.9046C501.097 85.616 501.701 84.4347 502.626 83.5729C503.552 82.711 504.739 82.225 505.974 82.2022C513.125 78.8244 520.826 78.8248 528.867 82.2017C529.616 82.2122 530.354 82.3953 531.028 82.7381C531.703 83.081 532.298 83.5753 532.772 84.1863C533.267 84.822 533.62 85.5657 533.808 86.3634C533.995 87.1611 534.012 87.9928 533.856 88.7981C532.03 98.3723 532.03 108.234 533.856 117.808C534.012 118.613 533.995 119.445 533.808 120.243C533.62 121.04 533.267 121.784 532.772 122.42C532.29 123.042 531.682 123.542 530.993 123.886C530.304 124.229 529.551 124.406 528.789 124.405Z" fill="#FD6584"/>
<path d="M526.409 104.785H507.28C506.963 104.785 506.658 104.653 506.434 104.416C506.21 104.18 506.084 103.86 506.084 103.526C506.084 103.191 506.21 102.871 506.434 102.635C506.658 102.398 506.963 102.266 507.28 102.266H526.409C526.726 102.266 527.031 102.398 527.255 102.635C527.479 102.871 527.605 103.191 527.605 103.526C527.605 103.86 527.479 104.18 527.255 104.416C527.031 104.653 526.726 104.785 526.409 104.785Z" fill="white"/>
<path d="M526.409 114.864H507.28C506.963 114.864 506.658 114.732 506.434 114.495C506.21 114.259 506.084 113.939 506.084 113.605C506.084 113.27 506.21 112.95 506.434 112.714C506.658 112.477 506.963 112.345 507.28 112.345H526.409C526.726 112.345 527.031 112.477 527.255 112.714C527.479 112.95 527.605 113.27 527.605 113.605C527.605 113.939 527.479 114.259 527.255 114.495C527.031 114.732 526.726 114.864 526.409 114.864Z" fill="white"/>
<path d="M145.145 120.698C140.623 113.395 133.239 107.657 125.017 107.172C116.794 106.687 106.912 114.066 102.853 121.659C95.4297 135.547 95.3323 151.473 105.557 161.133C106.945 160.637 112.721 159.925 114.133 159.446L115.028 157.743L116.132 158.778C128.768 160.107 132.657 151.054 152.876 145.346C151.693 136.712 149.667 128 145.145 120.698Z" fill="#2F2E41"/>
<path d="M127.788 155.092C137.016 155.092 144.497 147.208 144.497 137.484C144.497 127.759 137.016 119.876 127.788 119.876C118.559 119.876 111.078 127.759 111.078 137.484C111.078 147.208 118.559 155.092 127.788 155.092Z" fill="#FFB7B7"/>
<path d="M146.301 170.199L136.739 164.154L117.616 162.139L100.713 171.209L100.882 198.916L111.605 227.653L153.38 236.726L158.254 211.471C158.254 211.471 170.684 193.878 157.298 183.802L146.301 170.199Z" fill="#D32A3D"/>
<path d="M134.034 110.743C130.414 109.673 126.587 109.648 122.954 110.671C119.321 111.693 116.015 113.725 113.383 116.554C110.75 119.383 108.887 122.906 107.989 126.754C107.09 130.601 107.189 134.633 108.275 138.426C118.452 139.282 128.512 138.281 136.441 130.693L137.147 124.185L140.04 129.631C142.959 128.766 145.882 127.896 148.809 127.02C147.913 123.182 146.078 119.658 143.485 116.802C140.892 113.945 137.633 111.856 134.034 110.743Z" fill="#2F2E41"/>
<path d="M105.373 289.829C104.464 289.24 103.689 288.447 103.103 287.508C102.516 286.569 102.132 285.505 101.978 284.393C101.823 283.28 101.903 282.145 102.209 281.068C102.516 279.991 103.044 278.998 103.754 278.159L97.5879 208.406L113.414 209.694L114.499 277.854C115.757 279.205 116.502 280.996 116.591 282.887C116.68 284.778 116.108 286.637 114.983 288.113C113.858 289.59 112.259 290.58 110.487 290.896C108.716 291.212 106.896 290.833 105.373 289.829Z" fill="#FFB6B6"/>
<path d="M101.299 171.486C101.299 171.486 97.4837 170.898 97.9256 179.494C98.2794 186.376 96.5979 228.795 99.4712 237.872C98.3875 238.575 97.5567 239.639 97.1096 240.894C96.6625 242.15 96.6246 243.527 97.0018 244.808L115.461 240.662C117.611 236.767 117.166 232.768 115.603 232.12L115.695 219.672L119.774 178.641L104.064 171.86L101.299 171.486Z" fill="#D32A3D"/>
<path d="M195.64 296.284C195.146 295.648 194.792 294.905 194.605 294.107C194.418 293.309 194.401 292.477 194.557 291.672C196.383 282.098 196.383 272.237 194.557 262.662C194.401 261.857 194.418 261.025 194.605 260.228C194.792 259.43 195.146 258.686 195.64 258.051C196.115 257.44 196.71 256.945 197.384 256.602C198.059 256.26 198.797 256.076 199.546 256.066C207.587 252.689 215.288 252.689 222.439 256.066C223.674 256.089 224.861 256.575 225.787 257.437C226.712 258.299 227.316 259.48 227.489 260.769C228.893 271.651 228.893 282.683 227.489 293.566C227.314 294.87 226.698 296.064 225.754 296.928C224.81 297.792 223.602 298.268 222.352 298.269H199.624C198.862 298.271 198.109 298.093 197.42 297.75C196.731 297.407 196.123 296.906 195.64 296.284Z" fill="#D32A3D"/>
<path d="M202.004 268.571H221.134C221.451 268.571 221.755 268.438 221.979 268.202C222.204 267.965 222.33 267.645 222.33 267.311C222.33 266.977 222.204 266.656 221.979 266.42C221.755 266.184 221.451 266.051 221.134 266.051H202.004C201.687 266.051 201.383 266.184 201.159 266.42C200.935 266.656 200.809 266.977 200.809 267.311C200.809 267.645 200.935 267.965 201.159 268.202C201.383 268.438 201.687 268.571 202.004 268.571Z" fill="white"/>
<path d="M202.004 278.65H221.134C221.451 278.65 221.755 278.517 221.979 278.281C222.204 278.044 222.33 277.724 222.33 277.39C222.33 277.056 222.204 276.735 221.979 276.499C221.755 276.263 221.451 276.13 221.134 276.13H202.004C201.687 276.13 201.383 276.263 201.159 276.499C200.935 276.735 200.809 277.056 200.809 277.39C200.809 277.724 200.935 278.044 201.159 278.281C201.383 278.517 201.687 278.65 202.004 278.65Z" fill="white"/>
<path d="M202.004 288.729H221.134C221.451 288.729 221.755 288.596 221.979 288.36C222.204 288.123 222.33 287.803 222.33 287.469C222.33 287.135 222.204 286.814 221.979 286.578C221.755 286.342 221.451 286.209 221.134 286.209H202.004C201.687 286.209 201.383 286.342 201.159 286.578C200.935 286.814 200.809 287.135 200.809 287.469C200.809 287.803 200.935 288.123 201.159 288.36C201.383 288.596 201.687 288.729 202.004 288.729Z" fill="white"/>
<path d="M727.801 489.286H717.998L713.334 449.439L727.803 449.44L727.801 489.286Z" fill="#A0616A"/>
<path d="M730.302 499.3L698.691 499.299V498.878C698.692 495.439 699.988 492.142 702.295 489.71C704.603 487.279 707.732 485.913 710.995 485.913L716.77 481.297L727.543 485.914L730.302 485.914L730.302 499.3Z" fill="#2F2E41"/>
<path d="M682.256 489.286H672.453L667.789 449.439L682.258 449.44L682.256 489.286Z" fill="#A0616A"/>
<path d="M684.757 499.3L653.146 499.299V498.878C653.147 495.439 654.443 492.142 656.75 489.71C659.058 487.279 662.187 485.913 665.45 485.913H665.451L671.225 481.297L681.998 485.914L684.757 485.914L684.757 499.3Z" fill="#2F2E41"/>
<path d="M735.606 234.176L722.646 276.169L681.789 274.758L694.344 234.176H735.606Z" fill="#2F2E41"/>
<path d="M674.421 271.229L751.446 273.347L750.106 312.871C750.106 312.871 751.446 323.458 748.766 326.281C746.087 329.104 744.748 329.104 746.087 334.044C747.427 338.985 740.349 347.054 741.209 347.96C742.069 348.866 744.078 353.807 744.078 353.807L737.38 394.036C737.38 394.036 732.692 463.909 731.352 465.321C730.013 466.732 728.673 465.321 730.013 468.85C731.352 472.379 732.692 470.967 731.352 472.379C730.166 473.727 729.048 475.14 728.003 476.613H711.81C711.81 476.613 710.589 469.555 710.589 468.85C710.589 468.144 709.249 463.909 709.249 463.203C709.249 462.498 710.433 461.25 710.433 461.25C710.843 459.815 711.119 458.342 711.259 456.851C711.259 455.44 715.277 401.094 715.277 401.094L707.24 330.516L687.816 399.683C687.816 399.683 687.816 460.38 686.477 461.792C685.137 463.203 685.137 462.498 685.807 465.321C686.477 468.144 689.156 467.438 687.147 469.555C685.137 471.673 684.468 468.144 685.137 471.673L685.807 475.202L665.714 475.505C665.714 475.505 663.035 469.555 664.374 467.438C665.714 465.321 665.633 465.899 663.999 462.434C662.365 458.969 661.695 458.263 662.365 457.557C663.035 456.851 663.035 453.097 663.035 453.097L666.383 385.567C666.383 385.567 667.053 314.282 667.053 312.165C667.104 311.076 666.913 309.989 666.497 308.99V306.116L669.063 295.932L674.421 271.229Z" fill="#2F2E41"/>
<path d="M681.453 168.538L704.895 159.362L743.742 162.185L752.737 166.609C755.901 168.165 758.476 170.796 760.05 174.08C761.623 177.365 762.103 181.111 761.412 184.717L749.77 245.468L752.78 274.698C752.78 274.698 703.89 313.577 665.713 301.578C665.713 301.578 666.383 290.286 667.052 286.051C667.722 281.816 669.062 281.816 669.732 279.699C670.401 277.582 671.741 279.699 670.401 275.464C669.062 271.229 681.118 241.586 681.118 241.586L681.453 168.538Z" fill="#E6E6E6"/>
<path d="M718.507 173.907L737.617 161.74L731.352 149.834H711.05L703.008 160.1L718.507 173.907Z" fill="#E6E6E6"/>
<path d="M725.083 273.946C726.174 274.013 727.266 273.826 728.282 273.399C729.298 272.973 730.213 272.317 730.962 271.477C731.711 270.638 732.276 269.636 732.618 268.541C732.96 267.447 733.069 266.287 732.94 265.143L756.839 252.887L744.956 245.468L724.083 258.244C722.274 258.601 720.651 259.645 719.523 261.178C718.396 262.711 717.841 264.627 717.964 266.563C718.087 268.498 718.88 270.319 720.192 271.68C721.504 273.041 723.244 273.847 725.083 273.946Z" fill="#A0616A"/>
<path d="M734.471 268.859L730.307 252.77L752.997 221.093C745.653 211.762 743.075 197.984 744.888 177.78C744.486 175.602 744.884 173.343 746.001 171.462C747.118 169.58 748.871 168.214 750.906 167.641C752.941 167.068 755.106 167.329 756.965 168.373C758.825 169.416 760.239 171.164 760.923 173.263C766.057 189.043 774.99 223.004 773.826 224.843C772.486 226.961 772.027 227.901 774.134 229.924C776.633 232.323 775.308 242.546 774.167 244.013C773.128 245.35 734.471 268.859 734.471 268.859Z" fill="#E6E6E6"/>
<path d="M614.344 248.957C615.364 249.374 616.458 249.549 617.548 249.471C618.639 249.394 619.701 249.065 620.658 248.508C621.616 247.952 622.445 247.181 623.089 246.249C623.733 245.318 624.176 244.25 624.385 243.119L650.7 239.18L641.55 228.277L617.964 233.689C616.138 233.444 614.29 233.913 612.77 235.008C611.251 236.103 610.165 237.747 609.718 239.629C609.272 241.511 609.497 243.5 610.349 245.219C611.202 246.939 612.623 248.269 614.344 248.957Z" fill="#A0616A"/>
<path d="M625.635 246.639L629.63 230.503L662.712 210.863C665.103 194.904 666.601 189.701 677.724 173.135C678.406 171.035 679.819 169.286 681.677 168.24C683.535 167.195 685.7 166.931 687.735 167.502C689.771 168.073 691.525 169.437 692.644 171.317C693.762 173.198 694.163 175.456 693.763 177.635C690.755 194.013 677.147 237.907 675.465 238.58C673.932 239.194 625.635 246.639 625.635 246.639Z" fill="#E6E6E6"/>
<path d="M720.97 142.423C732.437 142.423 741.733 132.627 741.733 120.543C741.733 108.46 732.437 98.6641 720.97 98.6641C709.503 98.6641 700.207 108.46 700.207 120.543C700.207 132.627 709.503 142.423 720.97 142.423Z" fill="#A0616A"/>
<path d="M698.983 104.672C699.534 99.4392 706.707 94.2064 719.398 90.718C732.088 87.2295 738.709 102.346 738.709 102.346C747.537 106.998 742.295 131.708 739.537 129.382C739.509 129.359 739.481 129.336 739.454 129.314C737.655 127.918 736.145 126.15 735.016 124.118C733.887 122.086 733.163 119.833 732.888 117.496L732.254 111.475C729.347 113.821 726.072 115.808 722.556 115.218L726.859 110.753C722.781 112.623 718.702 114.493 714.624 116.363L718.674 110.49L718.483 110.292C716.587 111.976 714.41 113.275 712.064 114.122C709.387 114.93 706.181 114.493 704.347 112.285C703.853 111.676 703.48 110.969 703.25 110.205C699.921 112.608 699.259 117.754 699.259 117.754C699.259 117.754 698.431 109.905 698.983 104.672Z" fill="#2F2E41"/>
<path d="M615.67 263.167H592.942C591.691 263.166 590.484 262.69 589.54 261.826C588.596 260.962 587.98 259.768 587.805 258.464C586.401 247.582 586.401 236.55 587.805 225.667C587.978 224.379 588.582 223.197 589.507 222.336C590.433 221.474 591.619 220.988 592.854 220.965C600.005 217.587 607.706 217.588 615.748 220.964C616.497 220.975 617.235 221.158 617.909 221.501C618.584 221.844 619.179 222.338 619.653 222.949C620.148 223.585 620.501 224.328 620.689 225.126C620.876 225.924 620.893 226.756 620.737 227.561C618.911 237.135 618.911 246.996 620.737 256.571C620.893 257.376 620.876 258.208 620.689 259.005C620.501 259.803 620.148 260.547 619.653 261.182C619.171 261.804 618.563 262.305 617.874 262.648C617.185 262.992 616.432 263.169 615.67 263.167Z" fill="#3F3D56"/>
<path d="M613.29 233.468H594.16C593.843 233.468 593.539 233.335 593.315 233.099C593.091 232.863 592.965 232.542 592.965 232.208C592.965 231.874 593.091 231.554 593.315 231.317C593.539 231.081 593.843 230.948 594.16 230.948H613.29C613.607 230.948 613.911 231.081 614.136 231.317C614.36 231.554 614.486 231.874 614.486 232.208C614.486 232.542 614.36 232.863 614.136 233.099C613.911 233.335 613.607 233.468 613.29 233.468Z" fill="white"/>
<path d="M613.29 243.547H594.16C593.843 243.547 593.539 243.414 593.315 243.178C593.091 242.942 592.965 242.621 592.965 242.287C592.965 241.953 593.091 241.633 593.315 241.396C593.539 241.16 593.843 241.027 594.16 241.027H613.29C613.607 241.027 613.911 241.16 614.136 241.396C614.36 241.633 614.486 241.953 614.486 242.287C614.486 242.621 614.36 242.942 614.136 243.178C613.911 243.414 613.607 243.547 613.29 243.547Z" fill="white"/>
<path d="M613.29 253.626H594.16C593.843 253.626 593.539 253.493 593.315 253.257C593.091 253.021 592.965 252.7 592.965 252.366C592.965 252.032 593.091 251.712 593.315 251.475C593.539 251.239 593.843 251.106 594.16 251.106H613.29C613.607 251.106 613.911 251.239 614.136 251.475C614.36 251.712 614.486 252.032 614.486 252.366C614.486 252.7 614.36 253.021 614.136 253.257C613.911 253.493 613.607 253.626 613.29 253.626Z" fill="white"/>
<path d="M518.441 61.1818C526.805 61.1818 533.586 54.0369 533.586 45.2232C533.586 36.4095 526.805 29.2646 518.441 29.2646C510.077 29.2646 503.297 36.4095 503.297 45.2232C503.297 54.0369 510.077 61.1818 518.441 61.1818Z" fill="#E6E6E6"/>
<path d="M526.214 38.5726C525.986 38.3436 525.684 38.2158 525.369 38.2158C525.054 38.2158 524.751 38.3436 524.523 38.5726C521.31 41.2733 518.424 44.3799 515.93 47.8225C515.317 46.5741 514.705 45.3256 514.093 44.0771C513.386 42.6361 511.322 43.9091 512.028 45.3489C512.923 47.175 513.819 49.0011 514.715 50.8272C514.823 51.0136 514.974 51.1676 515.155 51.2745C515.336 51.3814 515.54 51.4375 515.747 51.4375C515.954 51.4375 516.158 51.3814 516.339 51.2745C516.52 51.1676 516.671 51.0136 516.779 50.8272C519.437 46.8826 522.614 43.3563 526.214 40.3544C526.437 40.1171 526.562 39.797 526.562 39.4635C526.562 39.13 526.437 38.8099 526.214 38.5726Z" fill="white"/>
<path d="M444.312 61.1818C452.676 61.1818 459.457 54.0369 459.457 45.2232C459.457 36.4095 452.676 29.2646 444.312 29.2646C435.948 29.2646 429.168 36.4095 429.168 45.2232C429.168 54.0369 435.948 61.1818 444.312 61.1818Z" fill="#E6E6E6"/>
<path d="M452.087 38.5726C451.86 38.3436 451.557 38.2158 451.242 38.2158C450.927 38.2158 450.624 38.3436 450.396 38.5726C447.183 41.2733 444.297 44.3799 441.803 47.8225C441.19 46.5741 440.578 45.3256 439.966 44.0771C439.259 42.6361 437.195 43.9091 437.901 45.3489C438.797 47.175 439.692 49.0011 440.588 50.8272C440.696 51.0136 440.847 51.1676 441.028 51.2745C441.209 51.3814 441.413 51.4375 441.62 51.4375C441.827 51.4375 442.031 51.3814 442.212 51.2745C442.393 51.1676 442.544 51.0136 442.652 50.8272C445.31 46.8826 448.487 43.3563 452.087 40.3544C452.31 40.1171 452.435 39.797 452.435 39.4635C452.435 39.13 452.31 38.8099 452.087 38.5726Z" fill="white"/>
<path d="M288.086 59.5021C296.45 59.5021 303.23 52.3572 303.23 43.5435C303.23 34.7298 296.45 27.585 288.086 27.585C279.722 27.585 272.941 34.7298 272.941 43.5435C272.941 52.3572 279.722 59.5021 288.086 59.5021Z" fill="#E6E6E6"/>
<path d="M295.861 36.8929C295.633 36.6639 295.33 36.5361 295.015 36.5361C294.7 36.5361 294.398 36.6639 294.17 36.8929C290.956 39.5936 288.07 42.7002 285.576 46.1429C284.964 44.8944 284.351 43.6459 283.739 42.3974C283.032 40.9564 280.968 42.2294 281.674 43.6692C282.57 45.4953 283.466 47.3214 284.361 49.1475C284.469 49.3339 284.621 49.488 284.802 49.5948C284.982 49.7017 285.186 49.7579 285.394 49.7579C285.601 49.7579 285.805 49.7017 285.985 49.5948C286.166 49.488 286.318 49.3339 286.426 49.1475C289.084 45.2029 292.261 41.6766 295.861 38.6747C296.083 38.4374 296.208 38.1173 296.208 37.7838C296.208 37.4503 296.083 37.1302 295.861 36.8929Z" fill="white"/>
<path d="M107.151 125.016C112.874 125.016 117.513 120.127 117.513 114.097C117.513 108.066 112.874 103.178 107.151 103.178C101.428 103.178 96.7891 108.066 96.7891 114.097C96.7891 120.127 101.428 125.016 107.151 125.016Z" fill="#2F2E41"/>
<path d="M225.309 499C225.309 499.132 225.285 499.262 225.238 499.383C225.19 499.505 225.12 499.615 225.032 499.708C224.944 499.801 224.839 499.875 224.724 499.925C224.609 499.975 224.485 500 224.361 500H0.948521C0.696958 500 0.455695 499.895 0.277813 499.707C0.0999316 499.52 0 499.266 0 499C0 498.735 0.0999316 498.481 0.277813 498.294C0.455695 498.106 0.696958 498.001 0.948521 498.001H224.361C224.485 498.001 224.609 498.026 224.724 498.076C224.839 498.126 224.944 498.2 225.032 498.293C225.12 498.386 225.19 498.496 225.238 498.618C225.285 498.739 225.309 498.869 225.309 499Z" fill="#CCCCCC"/>
<path d="M800.001 499C800.001 499.132 799.977 499.262 799.929 499.383C799.882 499.505 799.812 499.615 799.723 499.708C799.635 499.801 799.531 499.875 799.415 499.925C799.3 499.975 799.177 500 799.052 500H575.64C575.388 500 575.147 499.895 574.969 499.707C574.791 499.52 574.691 499.266 574.691 499C574.691 498.735 574.791 498.481 574.969 498.294C575.147 498.106 575.388 498.001 575.64 498.001H799.052C799.177 498.001 799.3 498.026 799.415 498.076C799.531 498.126 799.635 498.2 799.723 498.293C799.812 498.386 799.882 498.496 799.929 498.618C799.977 498.739 800.001 498.869 800.001 499Z" fill="#CCCCCC"/>
<path d="M104.03 103.145C102.236 102.619 100.371 103.499 98.6967 104.358L92.7422 107.411C96.8646 107.793 100.987 108.174 105.109 108.555L105.565 107.652C106.992 106.391 105.824 103.67 104.03 103.145Z" fill="#2F2E41"/>
</svg>
