<svg width="117" height="114" viewBox="0 0 117 114" fill="currentColor" xmlns="http://www.w3.org/2000/svg">
<path d="M2.75247 52.4519L25.4757 73.3063L19.1637 102.376C18.5325 106.168 19.7949 109.959 22.9509 111.855C24.2133 113.119 26.1069 113.751 28.0005 113.751C29.2629 113.751 30.5254 113.751 31.7878 113.119C31.7878 113.119 32.419 113.119 32.419 112.487L58.2982 97.9523L84.1775 112.487C84.1775 112.487 84.8087 112.487 84.8087 113.119C87.9647 114.383 91.7519 114.383 94.2767 112.487C97.4327 110.591 98.6952 106.8 98.0639 103.008L91.7519 73.9382C94.2767 72.0424 98.0639 68.2507 101.851 64.459L113.844 53.7158L114.475 53.0838C117 50.556 117.631 46.7643 116.369 43.6046C115.106 40.4448 112.582 37.917 108.794 37.2851H108.163L78.4967 34.1253L66.5039 6.95146C66.5039 6.95146 66.5039 6.31951 65.8727 6.31951C65.2415 1.89585 62.0854 0 58.9294 0C55.7734 0 52.6174 1.89585 50.7238 5.0556C50.7238 5.0556 50.7238 5.68756 50.0926 5.68756L38.0998 32.8614L8.43329 36.0212H7.80208C4.64607 36.6531 1.49007 39.1809 0.227662 42.3407C-0.40354 46.1324 0.227661 49.9241 2.75247 52.4519Z" />
</svg>
