<svg width="206" height="209" viewBox="0 0 206 209" fill="none" xmlns="http://www.w3.org/2000/svg">
<path d="M113.83 71.0105L113.83 71.0103C106.437 68.7199 98.475 68.7198 91.0752 71.0105L91.075 71.0105C81.1683 74.0763 75.9549 80.1575 73.1844 85.452C71.7905 88.116 71.0117 90.5911 70.5829 92.3935C70.3689 93.2931 70.2432 94.0201 70.1718 94.5127C70.1361 94.7588 70.114 94.9459 70.1013 95.0661C70.0976 95.101 70.0947 95.1303 70.0924 95.1537C70.0908 95.1706 70.0895 95.1845 70.0886 95.1952L70.0866 95.2178L70.0865 95.2196L70.0865 95.2202L70.0864 95.221L70.0863 95.2224L69.9539 97.0753H68.0917H37.2754C31.356 97.0753 25.4548 95.7361 20.1845 92.9103L20.1843 92.9102C14.4418 89.8304 10.7131 85.8259 8.41831 82.5811C7.27124 80.9592 6.47968 79.5236 5.97017 78.4804C5.71524 77.9584 5.53033 77.5335 5.40639 77.231C5.3444 77.0797 5.2976 76.959 5.26487 76.8719C5.2485 76.8283 5.23565 76.7932 5.22616 76.7668L5.22509 76.7638C2.80052 70.5934 2.26822 65.408 2.9563 61.0786C3.64664 56.735 5.54395 53.39 7.75405 50.8818C9.95122 48.3883 12.4504 46.7275 14.3808 45.6925C15.3502 45.1727 16.1887 44.804 16.7935 44.5624C17.0962 44.4415 17.3415 44.352 17.5167 44.2911C17.6043 44.2606 17.6745 44.2372 17.7257 44.2205C17.7513 44.2122 17.7722 44.2056 17.7881 44.2006L17.8082 44.1943L17.8155 44.192L17.8184 44.1911C17.8197 44.1907 17.8208 44.1904 18.4034 46.1037L17.8208 44.1904L19.9514 43.5416L20.3681 45.7294C20.4175 45.9887 20.4727 46.2398 20.5334 46.4828L20.5349 46.4887C22.6646 55.1189 32.1002 60.0326 40.3508 56.7842L40.3512 56.7841C42.9189 55.7737 44.8297 54.1754 46.1079 52.807C46.3313 52.5678 46.5341 52.3371 46.7164 52.1195L43.8435 50.6002C42.3321 52.2678 40.7362 53.375 39.1167 54.0369C37.1012 54.8607 35.1725 54.9444 33.5257 54.7006L33.5248 54.7005C29.7561 54.1409 26.7055 51.5757 25.1359 48.2947L25.1354 48.2936C23.2049 44.2519 23.5226 40.243 24.579 36.9559C27.0013 29.407 33.8212 24.0791 41.6803 23.3845L41.681 23.3845C45.9123 23.012 49.6539 23.8552 52.3149 24.7726C53.6505 25.2331 54.7301 25.7178 55.4838 26.0922C55.7667 26.2327 56.0044 26.358 56.1935 26.4612H57.6848C59.5002 24.6791 61.4126 23.6991 62.9393 23.1636C63.7897 22.8654 64.522 22.7043 65.0565 22.6172C65.3242 22.5735 65.5436 22.5481 65.7053 22.5334C65.7861 22.5261 65.8527 22.5213 65.9037 22.5183C65.9293 22.5168 65.951 22.5157 65.9686 22.515L65.9921 22.514L65.9962 22.5139C73.2958 22.2511 77.336 25.1655 79.4297 28.4645C80.4334 30.046 80.9353 31.6284 81.1888 32.8032C81.3164 33.3944 81.3836 33.894 81.4192 34.2556C81.437 34.4368 81.447 34.5844 81.4526 34.6928C81.4528 34.6956 81.4529 34.6983 81.453 34.701C82.2533 39.2769 80.2743 42.7637 78.249 44.9923C77.3527 45.9785 76.4246 46.7481 75.6677 47.3013L77.1395 49.9272C81.3741 47.3881 83.3013 43.9972 84.1918 41.1394C84.6981 39.5145 84.8718 38.0462 84.9184 36.9897C84.9417 36.4632 84.9331 36.0447 84.9199 35.7672C84.9133 35.6287 84.9055 35.5259 84.9001 35.4632C84.8973 35.4318 84.8952 35.4105 84.8941 35.3997L84.8939 35.3979L84.8937 35.3962L84.8934 35.3937L84.8932 35.3916L84.8828 35.3065L84.8801 35.2125C84.6656 27.481 80.6185 23.5825 76.5795 21.5099C74.5183 20.4522 72.4499 19.8739 70.8838 19.5621C70.1049 19.407 69.4614 19.3201 69.0204 19.2723C68.8001 19.2485 68.6313 19.2345 68.5222 19.2266C68.4677 19.2227 68.4283 19.2203 68.4049 19.219L68.3842 19.2179L68.3826 19.2179L68.3821 19.2179L68.3813 19.2178L68.38 19.2178L64.2804 19.054L66.9401 15.9244L68.4641 17.2195C66.9401 15.9244 66.9406 15.9238 66.9411 15.9232L66.9423 15.9218L66.9449 15.9187L66.9519 15.9106L66.9721 15.8872C66.9884 15.8685 67.0102 15.8437 67.0377 15.8129C67.0927 15.7513 67.1701 15.666 67.2703 15.5593C67.4706 15.346 67.7618 15.0469 68.1455 14.6804C68.9126 13.9475 70.0505 12.9439 71.5715 11.8168C74.6139 9.56225 79.1916 6.81149 85.3981 4.7475L85.3998 4.74694C96.4459 1.08435 108.438 1.08435 119.484 4.74694L119.485 4.74728C125.699 6.81111 130.282 9.56169 133.328 11.8161C134.85 12.9432 135.99 13.9467 136.758 14.6795C137.142 15.046 137.433 15.3451 137.634 15.5584C137.734 15.6651 137.812 15.7504 137.867 15.8119C137.879 15.826 137.891 15.8389 137.901 15.8504C137.913 15.8642 137.923 15.8762 137.932 15.8863L137.953 15.9096L137.96 15.9177L137.962 15.9209L137.963 15.9222C137.964 15.9228 137.964 15.9234 136.441 17.2195L137.964 15.9234L140.628 19.0538L136.525 19.2178L136.524 19.2178L136.523 19.2179L136.523 19.2179L136.521 19.2179L136.5 19.219C136.477 19.2203 136.438 19.2227 136.383 19.2266C136.274 19.2345 136.105 19.2485 135.885 19.2723C135.444 19.3201 134.8 19.407 134.021 19.5621C132.455 19.8739 130.387 20.4522 128.326 21.5099C124.287 23.5825 120.24 27.481 120.025 35.2125L120.022 35.3065L120.012 35.3916L120.012 35.3937L120.012 35.3962L120.011 35.3979L120.011 35.3997C120.01 35.4105 120.008 35.4318 120.005 35.4632C120 35.5259 119.992 35.6287 119.985 35.7672C119.972 36.0447 119.964 36.4632 119.987 36.9897C120.033 38.0462 120.207 39.5145 120.713 41.1394C121.604 43.9972 123.531 47.3881 127.766 49.9272L129.238 47.3013C128.481 46.7481 127.553 45.9785 126.656 44.9923C124.631 42.7637 122.652 39.2769 123.452 34.701C123.452 34.6983 123.453 34.6956 123.453 34.6928C123.458 34.5845 123.468 34.4369 123.486 34.2558C123.522 33.8944 123.589 33.3949 123.716 32.804C123.97 31.6296 124.472 30.0479 125.476 28.4669C127.569 25.1691 131.609 22.255 138.908 22.5138L138.913 22.514L138.937 22.515C138.954 22.5157 138.976 22.5168 139.002 22.5183C139.053 22.5214 139.119 22.5261 139.2 22.5335C139.361 22.5482 139.581 22.5735 139.848 22.6172C140.382 22.7044 141.114 22.8655 141.964 23.1638C143.49 23.6993 145.402 24.6794 147.219 26.4612H148.712C148.901 26.358 149.139 26.2327 149.421 26.0922C150.175 25.7178 151.255 25.2331 152.59 24.7726C155.251 23.8553 158.992 23.0122 163.223 23.3844C171.084 24.0713 177.912 29.4075 180.327 36.9577L180.327 36.9591C181.374 40.2402 181.702 44.2493 179.77 48.2936L179.769 48.2947C178.2 51.5757 175.149 54.1409 171.38 54.7005L171.38 54.7006C169.731 54.9447 167.802 54.8584 165.788 54.0339C164.169 53.3715 162.574 52.2648 161.063 50.5997L158.19 52.1187C158.373 52.3364 158.576 52.5673 158.8 52.8065C160.079 54.1755 161.99 55.7738 164.554 56.7842L113.83 71.0105ZM113.83 71.0105C123.737 74.0763 128.95 80.1575 131.721 85.452C133.115 88.116 133.894 90.5911 134.322 92.3935C134.536 93.2931 134.662 94.0201 134.733 94.5127C134.769 94.7588 134.791 94.9459 134.804 95.0661C134.81 95.1263 134.814 95.1696 134.817 95.1952L134.819 95.2178M113.83 71.0105L134.819 95.2178M134.819 95.2178L134.819 95.2196L134.819 95.2202L134.819 95.221L134.819 95.2224L134.951 97.0753H136.814H167.63C173.549 97.0753 179.45 95.7361 184.721 92.9103L184.721 92.9102C190.464 89.8304 194.192 85.8259 196.487 82.5811C197.634 80.9592 198.426 79.5236 198.935 78.4804C199.19 77.9584 199.375 77.5335 199.499 77.231C199.524 77.1704 199.546 77.1147 199.566 77.064C199.596 76.9883 199.621 76.9241 199.64 76.8719C199.657 76.8283 199.67 76.7932 199.679 76.7668L199.68 76.7641C202.106 70.5937 202.64 65.4083 201.952 61.0788C201.262 56.735 199.364 53.3898 197.154 50.8816C194.956 48.3881 192.456 46.7274 190.525 45.6923C189.556 45.1726 188.717 44.8039 188.112 44.5624C187.809 44.4415 187.564 44.352 187.388 44.291C187.301 44.2605 187.231 44.2371 187.179 44.2205C187.154 44.2122 187.133 44.2055 187.117 44.2005L187.097 44.1942L187.09 44.192L187.087 44.1911C187.085 44.1907 187.084 44.1903 186.502 46.1037L187.084 44.1903L184.954 43.5418L184.537 45.7295C184.503 45.9093 184.465 46.0733 184.42 46.2715C184.403 46.3447 184.385 46.4225 184.366 46.5075C182.227 55.1259 172.799 60.03 164.555 56.7844L134.819 95.2178Z" fill="#F8334E" stroke="white" stroke-width="4"/>
<path d="M115.552 125.332H114.344H102.456H90.5609H89.3537L88.7947 124.271L88.7943 124.27L88.794 124.269L88.7932 124.268L88.7852 124.253C88.7751 124.235 88.7569 124.203 88.7305 124.157C88.6777 124.067 88.5927 123.925 88.4751 123.744C88.2394 123.38 87.876 122.861 87.3836 122.273C86.392 121.09 84.9177 119.673 82.954 118.649L82.9443 118.644L82.9443 118.644C82.3079 118.307 81.5772 117.897 80.8933 117.364L80.8913 117.363C78.4274 115.438 72.694 109.98 72.1931 100.556L115.552 125.332ZM115.552 125.332L116.111 124.27M115.552 125.332L116.111 124.27M116.111 124.27L116.111 124.269M116.111 124.27L116.111 124.269M116.111 124.269L116.112 124.268M116.111 124.269L116.112 124.268M116.112 124.268L116.113 124.267M116.112 124.268L116.113 124.267M116.113 124.267L116.12 124.252M116.113 124.267L116.12 124.252M125.735 82.2356L125.736 82.237C127.815 84.4259 129.616 87.5372 130.862 90.7561C132.106 93.9693 132.876 97.4952 132.712 100.556C132.211 109.979 126.479 115.436 124.014 117.362L125.735 82.2356ZM125.735 82.2356C122.792 79.1421 118.573 75.9741 112.546 74.0376L112.546 74.0375M125.735 82.2356L112.546 74.0375M112.546 74.0375C106 71.9354 98.9119 71.9356 92.36 74.0373L92.359 74.0376M112.546 74.0375L92.359 74.0376M92.359 74.0376C86.3324 75.9741 82.113 79.1421 79.17 82.2356L79.1687 82.237M92.359 74.0376L79.1687 82.237M79.1687 82.237C77.0899 84.4262 75.2887 87.5395 74.0429 90.7589M79.1687 82.237L74.0429 90.7589M116.12 124.252C116.131 124.234 116.149 124.201 116.175 124.156M116.12 124.252L116.175 124.156M116.175 124.156C116.228 124.065 116.313 123.923 116.431 123.742M116.175 124.156L116.431 123.742M116.431 123.742C116.666 123.378 117.03 122.859 117.522 122.27M116.431 123.742L117.522 122.27M117.522 122.27C118.513 121.086 119.986 119.671 121.947 118.651L117.522 122.27ZM74.0429 90.7589C72.7993 93.9723 72.0292 97.4978 72.193 100.555L74.0429 90.7589Z" fill="#F8334E" stroke="white" stroke-width="4"/>
<path d="M88.3693 139.33H116.537C119.489 139.33 121.888 136.931 121.888 133.978C121.888 131.016 119.486 128.627 116.537 128.627H88.3693C85.4071 128.627 83.0178 131.029 83.0178 133.978C83.0178 136.941 85.4196 139.33 88.3693 139.33Z" fill="#F8334E" stroke="white" stroke-width="4"/>
<path d="M88.3693 153.32H116.537C119.486 153.32 121.888 150.931 121.888 147.969C121.888 145.006 119.486 142.617 116.537 142.617H88.3693C85.4071 142.617 83.0178 145.019 83.0178 147.969C83.0178 150.931 85.4196 153.32 88.3693 153.32Z" fill="#F8334E" stroke="white" stroke-width="4"/>
<path d="M91.8752 156.543H89.8752V158.543V162.344C89.8752 165.054 92.0737 167.239 94.77 167.239H110.15C112.854 167.239 115.033 165.048 115.045 162.353H115.045V162.344V158.543V156.543H113.045H91.8752Z" fill="#F8334E" stroke="white" stroke-width="4"/>
<path d="M65.3965 204.002V206.002H67.3965H89.5426C95.8053 206.002 100.873 200.925 100.873 194.671V181.698V179.698V179.691H98.8732V177.698H91.791H89.791V179.698V193.153C89.791 194.325 88.8385 195.278 87.6667 195.278H67.3965H65.3965V197.278V204.002Z" fill="#F8334E" stroke="white" stroke-width="4"/>
<path d="M137.524 206.002H139.524V204.002V197.278V195.278H137.524H117.253C116.082 195.278 115.129 194.325 115.129 193.153V179.698V177.698H113.129H106.04V179.691H104.04V179.698V181.698V194.671C104.04 200.925 109.108 206.002 115.37 206.002H137.524Z" fill="#F8334E" stroke="white" stroke-width="4"/>
<path d="M30.8656 169.239L34.2798 172.653V167.825V151.32V149.32H32.2798H25.043H23.043V151.32V167.881V172.709L26.4572 169.295L28.2773 167.475C28.5124 167.246 28.8813 167.254 29.1021 167.475L30.8656 169.239Z" fill="#F8334E" stroke="white" stroke-width="4"/>
<path d="M55.1473 155.448C55.1563 152.062 52.4089 149.32 49.03 149.32H39.1022H37.1022V151.32V176.614C37.1022 177.119 36.6908 177.53 36.1864 177.53H34.9779C34.8061 177.53 34.6402 177.46 34.5232 177.343L30.0335 172.853L28.6193 171.439L27.2051 172.853L22.5538 177.504C22.4326 177.626 22.2749 177.692 22.0991 177.692H20.9679C20.4635 177.692 20.0521 177.28 20.0521 176.776V151.32V149.32H18.0521H8.1243C4.74329 149.32 2 152.064 2 155.445V196.343C2 199.724 4.74329 202.468 8.1243 202.468H49.023C52.404 202.468 55.1473 199.724 55.1473 196.343V155.448ZM55.1473 155.448C55.1473 155.449 55.1473 155.45 55.1473 155.451L53.1473 155.445M55.1473 155.448V155.445H53.1473M53.1473 155.445V196.343C53.1473 198.62 51.2994 200.468 49.023 200.468H8.1243C5.84785 200.468 4 198.62 4 196.343V155.445C4 153.168 5.84785 151.32 8.1243 151.32H16.0521H18.0521V153.32V176.776C18.0521 178.385 19.359 179.692 20.9679 179.692H22.0991C22.8017 179.692 23.4692 179.418 23.9681 178.919L27.2051 175.682L28.6193 174.267L30.0335 175.682L33.109 178.757C33.6008 179.249 34.2753 179.53 34.9779 179.53H36.1864C37.7953 179.53 39.1022 178.223 39.1022 176.614V153.32V151.32H41.1022H49.03C51.3064 151.32 53.1543 153.168 53.1473 155.445Z" fill="#F8334E" stroke="white" stroke-width="4"/>
<path d="M170.334 183.508C178.474 183.508 185.072 176.909 185.072 168.769C185.072 160.63 178.474 154.031 170.334 154.031C162.194 154.031 155.596 160.63 155.596 168.769C155.596 176.909 162.194 183.508 170.334 183.508Z" fill="#F8334E" stroke="white" stroke-width="4"/>
<path d="M152.521 168.751C152.533 159.073 160.649 150.949 170.32 150.949L170.323 150.949C180.177 150.936 188.16 158.92 188.148 168.774V168.776C188.148 178.45 180.022 186.576 170.348 186.576H170.346C160.492 186.588 152.508 178.605 152.521 168.751ZM152.521 168.751L150.521 168.748L152.521 168.751ZM200.278 162.946L200.262 162.944L200.245 162.941L196.682 162.408C196.016 159.616 194.911 156.999 193.476 154.632L195.616 151.738C195.617 151.737 195.618 151.736 195.619 151.735C196.711 150.264 196.53 148.241 195.254 146.976C195.252 146.974 195.251 146.973 195.249 146.971L194.745 146.467L192.672 144.394L192.159 143.881L190.745 145.295L192.159 143.881C190.875 142.597 188.86 142.455 187.415 143.512L187.407 143.518L184.525 145.646C182.148 144.177 179.528 143.078 176.731 142.414L176.199 138.893C176.198 138.891 176.198 138.889 176.198 138.888C175.929 137.071 174.366 135.777 172.583 135.777H171.845H168.908H168.17C166.392 135.777 164.815 137.06 164.554 138.894L164.022 142.416C161.23 143.092 158.611 144.19 156.23 145.647L153.352 143.523C153.351 143.522 153.35 143.521 153.349 143.52C151.878 142.427 149.855 142.609 148.59 143.885L148.089 144.386L145.983 146.443L145.974 146.451L145.966 146.46L145.453 146.972L145.453 146.972C144.169 148.257 144.028 150.272 145.084 151.717L145.084 151.717L145.091 151.726L147.233 154.623C145.776 157.001 144.691 159.619 144.028 162.401L140.472 162.933C140.471 162.933 140.47 162.933 140.468 162.934C138.651 163.202 137.356 164.765 137.356 166.549V167.287V170.224V170.961C137.356 172.739 138.639 174.316 140.472 174.577L144.059 175.123C144.733 177.889 145.828 180.489 147.28 182.853L145.116 185.793C145.114 185.795 145.113 185.797 145.112 185.799C144.021 187.269 144.202 189.291 145.478 190.556C145.48 190.557 145.481 190.559 145.483 190.561L145.987 191.065L147.384 189.668L145.987 191.065L148.06 193.138L148.573 193.651L149.987 192.236L148.573 193.651C149.857 194.935 151.872 195.076 153.317 194.019L153.324 194.015L156.288 191.83C158.647 193.267 161.234 194.356 164.001 195.025L164.547 198.653C164.548 198.654 164.548 198.656 164.548 198.657C164.816 200.475 166.38 201.768 168.163 201.768H168.901H171.838H172.576C174.354 201.768 175.931 200.485 176.192 198.651L176.738 195.026C179.505 194.362 182.093 193.273 184.452 191.83L187.408 194.009C187.409 194.01 187.411 194.012 187.413 194.013C188.883 195.104 190.905 194.922 192.17 193.647C192.172 193.645 192.173 193.644 192.175 193.642L192.679 193.138L194.752 191.065L194.752 191.065L195.265 190.552C195.265 190.552 195.265 190.552 195.265 190.552C196.549 189.268 196.69 187.253 195.634 185.807L195.627 185.799L195.621 185.79L193.433 182.864C194.883 180.501 195.978 177.902 196.652 175.137L200.239 174.591C200.241 174.591 200.243 174.591 200.246 174.59C202.062 174.321 203.354 172.758 203.354 170.975V170.238V167.301V166.563C203.354 164.747 202.02 163.237 200.278 162.946Z" fill="#F8334E" stroke="white" stroke-width="4"/>
</svg>
