<svg width="220" height="199" viewBox="0 0 220 199" fill="none" xmlns="http://www.w3.org/2000/svg">
<circle cx="113.898" cy="89.7364" r="89.7364" fill="black"/>
<circle cx="186.709" cy="181.012" r="5.22037" stroke="#FF7A2E" stroke-width="1.13816"/>
<circle cx="53.5529" cy="195.487" r="2.89472" fill="black"/>
<path d="M10.5903 6.60868C10.5425 6.08256 11.175 5.7809 11.5537 6.14918L16.7245 11.1768C16.8435 11.2926 17.0073 11.3505 17.1727 11.3355L24.3551 10.6829C24.8812 10.6351 25.1829 11.2676 24.8146 11.6464L19.787 16.8171C19.6712 16.9362 19.6132 17.0999 19.6283 17.2653L20.2809 24.4477C20.3287 24.9738 19.6962 25.2755 19.3174 24.9072L14.1467 19.8796C14.0276 19.7638 13.8639 19.7059 13.6985 19.7209L6.51605 20.3735C5.98994 20.4213 5.68828 19.7888 6.05655 19.41L11.0842 14.2393C11.1999 14.1202 11.2579 13.9565 11.2429 13.7911L10.5903 6.60868Z" fill="#D32A3D"/>
<g clip-path="url(#clip0_1490_13581)">
<path d="M170.489 70.9002H58.4126C58.4197 70.8807 58.4279 70.8616 58.437 70.843C58.5773 70.5149 58.7304 70.1903 58.8951 69.8739C59.0888 69.4969 59.2998 69.1268 59.5272 68.7672C60.3304 67.4854 61.3199 66.332 62.4626 65.3453L109.384 24.7706C110.797 23.5566 112.593 22.8896 114.451 22.8896C116.308 22.8896 118.105 23.5566 119.517 24.7706L166.438 65.3453C167.58 66.3314 168.569 67.484 169.372 68.7648C169.604 69.1244 169.81 69.4945 170.004 69.8716C170.175 70.1985 170.331 70.5348 170.476 70.8745L170.489 70.9002Z" fill="#D32A3D"/>
<path d="M170.489 70.9004L169.186 72.027L124.213 110.918L123.633 111.417L118.657 108.074C117.413 107.234 115.948 106.785 114.45 106.785C112.952 106.785 111.488 107.234 110.244 108.074L105.267 111.421L104.687 110.925L59.7128 72.0305L58.4092 70.9051H170.489V70.9004Z" fill="#577BC1"/>
<path d="M154.73 34.3301H74.1708C67.205 34.3301 61.5581 40.0144 61.5581 47.0264V104.802C61.5581 111.814 67.205 117.498 74.1708 117.498H154.73C161.696 117.498 167.342 111.814 167.342 104.802V47.0264C167.342 40.0144 161.696 34.3301 154.73 34.3301Z" fill="white"/>
<g style="mix-blend-mode:multiply" opacity="0.68">
<g style="mix-blend-mode:multiply" opacity="0.68">
<path d="M170.499 70.9305C168.753 72.6117 166.996 74.2824 165.229 75.9426C163.338 77.7327 161.436 79.5104 159.523 81.2756C155.705 84.8154 151.864 88.3295 148.001 91.818L145.101 94.4366L142.195 97.0425C140.262 98.7828 138.32 100.515 136.369 102.24C132.58 105.61 128.773 108.964 124.947 112.301L123.633 111.421L118.657 108.079C117.413 107.238 115.948 106.79 114.45 106.79C112.952 106.79 111.488 107.238 110.244 108.079L105.267 111.421L104.687 110.925L59.7128 72.0303L58.4092 70.9049C58.4163 70.8854 58.4244 70.8663 58.4335 70.8477L58.5043 70.9049L59.5144 71.7139C60.0213 72.1237 60.542 72.5195 61.0546 72.9223C62.0845 73.7255 63.1017 74.5416 64.1269 75.3506C66.1751 76.9695 68.2136 78.599 70.2425 80.2389C74.3041 83.5125 78.3432 86.8118 82.36 90.1368L85.3754 92.6294L88.3793 95.1324C90.3846 96.7973 92.3748 98.4808 94.3708 100.153L100.339 105.202L105.376 109.497L108.721 107.232L109.262 106.867C109.345 106.811 109.461 106.735 109.571 106.664C109.681 106.592 109.795 106.528 109.906 106.461C110.363 106.195 110.842 105.971 111.337 105.792C112.585 105.337 113.916 105.161 115.238 105.277C116.56 105.392 117.841 105.796 118.992 106.461C119.108 106.528 119.224 106.592 119.329 106.665C119.435 106.737 119.554 106.811 119.636 106.867L120.177 107.232L123.523 109.498C127.179 106.373 130.845 103.259 134.523 100.158C136.516 98.4831 138.505 96.8031 140.509 95.1383L143.509 92.6376L146.524 90.1473C150.538 86.8301 154.573 83.5339 158.629 80.2587C160.656 78.6243 162.692 76.9972 164.736 75.3775C166.629 73.8714 168.534 72.3774 170.449 70.8955C170.459 70.8864 170.469 70.8785 170.481 70.8722L170.49 70.8955C170.489 70.9095 170.496 70.92 170.499 70.9305Z" fill="#E2E2E2"/>
</g>
</g>
<path d="M105.267 111.421L60.0225 141.822L59.9692 141.776L59.9541 141.764C59.1 141.035 58.4136 140.128 57.9424 139.105C57.4712 138.083 57.2264 136.969 57.2251 135.842V76.7466C57.2256 74.7401 57.6296 72.7544 58.4127 70.9092L59.7152 72.0358L104.692 110.929L105.267 111.421Z" fill="#D32A3D"/>
<path d="M171.675 76.7474V135.915C171.663 137.03 171.413 138.129 170.942 139.137C170.471 140.146 169.79 141.041 168.945 141.761C168.94 141.767 168.934 141.772 168.927 141.775C168.911 141.789 168.895 141.805 168.878 141.819L144.198 125.234L123.633 111.422L124.213 110.923L169.19 72.0319L170.491 70.9053C170.496 70.9147 170.5 70.925 170.503 70.9356C171.278 72.7738 171.677 74.7504 171.675 76.7474Z" fill="#D32A3D"/>
<path d="M168.878 141.818L168.827 141.86C168.821 141.866 168.814 141.872 168.806 141.877C168.778 141.901 168.751 141.925 168.723 141.947C167.295 143.085 165.527 143.702 163.705 143.698H65.1942C63.3747 143.701 61.6076 143.084 60.1815 141.947L60.0922 141.874L60.0725 141.858L60.0215 141.816L105.267 111.42L110.244 108.077C111.488 107.237 112.952 106.789 114.45 106.789C115.948 106.789 117.413 107.237 118.657 108.077L123.634 111.42L144.198 125.238L168.878 141.818Z" fill="#D32A3D"/>
<ellipse cx="96.0113" cy="61.6753" rx="3.81501" ry="3.17918" fill="black"/>
<ellipse cx="135.433" cy="61.6753" rx="3.81501" ry="3.17918" fill="black"/>
<path d="M98.5547 51.5023L95.3755 50.8664L92.1963 51.5023L90.2888 53.4098L89.0172 55.9531" stroke="black"/>
<path d="M138.612 51.5023L135.433 50.8664L132.254 51.5023L130.346 53.4098L129.075 55.9531" stroke="black"/>
<path d="M125.26 72.4836L122.716 75.6628L119.537 76.9345L116.994 77.5703H113.815L110.636 76.2986L107.456 72.4836" stroke="black" stroke-width="1.2"/>
</g>
<circle cx="188.158" cy="124.565" r="31.842" fill="#00AD45"/>
<path fill-rule="evenodd" clip-rule="evenodd" d="M185.447 133.046L182.208 135.205C181.776 135.421 181.273 135.133 181.273 134.701V129.951L194.515 120.019L178.682 128.44L174.579 125.633C174.004 125.201 174.148 124.338 174.795 124.122L201.424 114.478C201.784 114.334 202.072 114.766 201.856 115.125L189.837 134.989C189.621 135.349 189.045 135.493 188.614 135.205L185.447 133.046L185.447 133.046Z" fill="white"/>
<defs>
<clipPath id="clip0_1490_13581">
<rect width="114.45" height="120.809" fill="white" transform="translate(57.2251 22.8896)"/>
</clipPath>
</defs>
</svg>
