<svg width="700" height="400" viewBox="0 0 700 400" fill="none" xmlns="http://www.w3.org/2000/svg">
<g clip-path="url(#clip0_217_1246)">
<path d="M569.487 383.687H328.722C324.7 383.687 321.43 387.343 321.43 391.839C321.43 396.335 324.7 400 328.722 400H569.487C573.509 400 576.788 396.334 576.788 391.839C576.788 387.343 573.509 383.687 569.487 383.687Z" fill="#E6E6E6"/>
<path d="M759.929 221.142L757.737 240.662L752.294 289.146H642.965C643.819 278.279 644.986 262.638 646.233 245.753C646.355 244.067 646.484 242.37 646.607 240.662C649.734 198.218 653.155 150.188 653.155 150.188L667.528 153.181L695.415 158.978L706.779 161.339L737.208 167.673C752.38 170.825 762.816 195.383 759.929 221.142Z" fill="#F2F2F2"/>
<path d="M677.232 71.6436L690.676 97.9455L664.836 118.418L653.812 86.0883L677.232 71.6436Z" fill="#FFB6B6"/>
<path d="M660.116 96.5266C678.511 96.5266 693.423 79.856 693.423 59.2916C693.423 38.7273 678.511 22.0566 660.116 22.0566C641.721 22.0566 626.809 38.7273 626.809 59.2916C626.809 79.856 641.721 96.5266 660.116 96.5266Z" fill="#FFB6B6"/>
<path d="M657.723 67.6157C655.078 63.116 656.116 60.7625 653.902 59.1088C653.902 59.1088 653.011 58.4434 646.634 58.064C645.207 46.5769 643.425 45.1839 643.424 45.1838C641.37 43.5783 638.322 44.1 636.426 45.0819C632.415 47.1587 632.88 51.6448 630.18 52.5033C626.449 53.6891 619.662 47.0038 618.993 39.3505C618.448 33.1075 622.046 27.044 623.473 27.3648C624.888 27.6829 628.275 22.8481 630.104 22.9227C631.353 22.9736 636.457 20.4937 637.83 20.6876C639.329 20.8994 644.273 23.7835 644.479 23.1246C645.911 18.5456 645.49 17.2751 646.705 15.9651C648.857 13.6439 652.378 15.2603 657.902 16.1282C669.268 17.9137 671.252 13.724 677.077 16.5638C680.019 17.9983 682.481 21.867 687.285 29.5458C694.003 40.2846 697.363 45.654 697.384 51.9166C697.406 58.3033 694.64 57.8979 693.424 67.3529C692.072 77.878 694.946 82.6906 691.806 86.11C689.379 88.7527 684.447 89.3801 681.855 87.0607C677.418 83.0897 683.225 73.5076 678.315 66.507C675.301 62.2097 669.239 60.2976 666.463 62.4218C663.323 64.8236 665.053 71.8734 662.845 72.5419C660.955 73.1144 658.184 68.3998 657.723 67.6157Z" fill="#2F2E41"/>
<path d="M735.31 214.268C734.381 232.026 730.691 237.632 729.399 258.604C729.117 263.209 728.947 268.553 728.947 274.927C728.947 276.552 728.955 278.123 728.955 279.658C728.955 282.926 728.899 286.014 728.559 289.146C728.301 291.647 727.857 294.166 727.122 296.82H655.387C655.379 296.802 655.379 296.784 655.37 296.766C654.951 294.725 654.684 292.775 654.482 290.907C654.417 290.311 654.361 289.724 654.313 289.146C654.248 288.469 654.191 287.801 654.135 287.142C653.917 284.515 653.699 282.032 653.182 279.658C652.488 276.38 651.227 273.293 648.643 270.314C647.585 269.095 646.528 268.147 645.494 267.317C645.292 267.163 645.098 267.009 644.896 266.856C642.037 264.662 639.332 263.082 636.99 258.604C636.95 258.541 636.918 258.469 636.885 258.406C636.482 257.62 635.432 255.562 634.672 252.818C633.873 249.965 633.389 246.38 634.261 242.715C636.336 234.03 644.024 233.164 650.307 224.388C650.985 223.441 651.656 222.393 652.294 221.229C655.136 216.064 655.903 211.515 656.808 206.107C656.953 205.231 657.082 204.364 657.187 203.525C657.268 202.893 657.341 202.27 657.398 201.656C657.898 196.501 657.656 192.059 657.066 188.087C655.145 175.078 649.475 167.025 653.481 155.351C654.741 151.686 656.525 148.933 658.326 146.576C662.137 141.584 666.054 138.343 665.376 131.897C664.689 125.397 660.28 124.503 659.788 118.824C659.537 115.954 660.377 112.929 661.952 109.959V109.95C666.991 100.389 679.573 91.5869 687.568 91.8669C689.045 91.9123 690.354 92.2821 691.444 92.9953C695.393 95.5953 693.746 101.274 699.794 109.237C704.292 115.15 709.379 117.515 711.31 118.635C718.957 123.095 725.176 136.248 729.399 153.067C729.431 153.194 729.464 153.32 729.496 153.456C732.105 163.991 733.946 175.953 734.859 188.087C735.246 193.224 735.472 198.388 735.52 203.498C735.561 207.578 735.48 211.118 735.31 214.268Z" fill="#D32A3D"/>
<path d="M681.593 275.107L680.131 279.657L679.211 282.51L677.078 289.146L674.607 296.819H658.723L661.387 289.146L662.623 285.57L664.674 279.657L668.114 269.727L681.593 275.107Z" fill="#FFB6B6"/>
<path d="M729.65 151.514C729.61 152.101 729.553 152.751 729.497 153.455C728.867 160.623 727.381 173.452 725.209 188.086C724.062 195.805 722.721 204.03 721.211 212.2C717.965 229.831 713.927 247.192 709.364 258.604C708.549 260.662 707.709 262.522 706.853 264.165C706.199 265.42 705.512 266.656 704.793 267.875C702.468 271.875 699.859 275.667 697.154 279.206C697.049 279.359 696.928 279.504 696.807 279.657C696.371 280.234 695.918 280.804 695.466 281.372C693.253 284.162 690.992 286.762 688.804 289.145C686.139 292.052 683.571 294.625 681.269 296.819H655.476L655.371 296.765L651.656 294.923C651.656 294.923 652.714 293.533 654.483 290.906C654.846 290.373 655.233 289.786 655.654 289.145C656.17 288.36 656.728 287.493 657.325 286.554C658.569 284.586 659.982 282.275 661.5 279.657C664.44 274.592 667.791 268.363 671.175 261.15C671.563 260.31 671.958 259.461 672.354 258.603C672.362 258.577 672.378 258.549 672.386 258.522C673.057 257.06 673.719 255.552 674.381 254.017C679.993 240.963 681.601 230.129 682.061 226.618C682.707 221.652 683.603 214.709 683.361 207.072C683.199 202.035 682.545 196.708 680.987 191.417V191.409C680.664 190.298 680.3 189.188 679.888 188.086C679.153 186.109 678.281 184.159 677.247 182.236C672.685 173.768 668.979 173.416 666.031 164.189C665.158 161.454 663.18 155.279 663.785 148.76V148.751C663.859 147.948 663.979 147.135 664.141 146.323V146.314C664.181 146.088 664.238 145.854 664.295 145.628C664.755 143.633 665.514 141.655 666.669 139.777C668.922 136.13 671.998 133.963 674.752 132.673L674.761 132.663C677.942 131.183 680.688 130.867 681.221 130.813C693.019 129.639 702.169 140.725 707.168 146.783C709.098 149.121 710.867 151.081 712.482 152.678C725.055 165.228 728.504 157.21 729.4 153.067C729.537 152.426 729.61 151.875 729.65 151.514Z" fill="#D32A3D"/>
<path d="M665.553 341.544H232.662C228.64 341.544 225.361 345.2 225.361 349.696C225.361 354.201 228.64 357.857 232.662 357.857H665.553C669.575 357.857 672.846 354.201 672.846 349.696C672.846 345.2 669.575 341.544 665.553 341.544Z" fill="#E6E6E6"/>
<path d="M280.832 73.3748L308.114 60.5391L319.816 87.357L291.147 100.439L280.832 73.3748Z" fill="#FFB6B6"/>
<path opacity="0.1" d="M280.832 73.3748L308.114 60.5391L319.816 87.357L291.147 100.439L280.832 73.3748Z" fill="black"/>
<path d="M284.711 63.1555L311.625 97.8226C311.625 97.8226 292.902 163.886 274.179 169.773C255.456 175.66 220.936 204.44 220.936 204.44L177.639 173.044L198.702 138.377C198.702 138.377 249.605 60.5391 263.063 60.5391C276.52 60.5391 284.711 63.1555 284.711 63.1555Z" fill="#D32A3D"/>
<path d="M248.346 289.146H185.694L181.733 283.227L165.561 259.058L161.84 253.498C161.84 253.498 147.798 224.718 150.723 198.554C153.649 172.39 184.074 166.503 184.074 166.503H185.326L222.573 203.093L220.35 237.145L232.145 259.058L248.346 289.146Z" fill="#2F2E41"/>
<path d="M198.527 289.146H181.734V261.347L198.527 289.146Z" fill="#2F2E41"/>
<path d="M560.713 246.943L558.624 259.057L553.44 289.145H449.299C450.112 282.402 451.224 272.695 452.412 262.216C452.529 261.17 452.651 260.117 452.768 259.057C455.747 232.716 459.006 202.909 459.006 202.909L472.697 204.767L499.26 208.364L510.084 209.83L539.07 213.761C553.522 215.716 563.463 230.957 560.713 246.943Z" fill="#F2F2F2"/>
<path d="M708.091 289.146H651.605C652.466 288.014 652.951 287.36 652.951 287.36L669.884 284.233L704.773 277.797C704.773 277.797 706.364 282.395 708.091 289.146Z" fill="#2F2E41"/>
<path d="M468.497 86.457L493.061 125.294L450.213 126.724L445.613 90.2269L468.497 86.457Z" fill="#A0616A"/>
<path opacity="0.1" d="M468.497 86.457L493.061 125.294L450.213 126.724L445.613 90.2269L468.497 86.457Z" fill="black"/>
<path d="M347.357 166.924C344.205 156.759 336.959 150.338 331.173 152.582C325.387 154.825 323.253 164.883 326.407 175.051C327.617 179.132 329.684 182.829 332.434 185.834L346.276 228.714L364.137 221.024L348.595 179.568C349.092 175.304 348.667 170.968 347.357 166.924Z" fill="#A0616A"/>
<path d="M513.634 147.135L513.6 186.714L510.306 201.333L503.531 231.402L498.599 259.057L494.924 279.661L493.614 287.02C492.625 287.759 491.642 288.466 490.659 289.146H405.077C400.215 285.882 397.494 283.344 397.494 283.344C397.494 283.344 398.84 281.931 400.379 279.661C402.976 275.828 406.118 269.549 404.193 263.551C403.79 262.295 403.684 260.765 403.807 259.057C404.591 247.794 415.158 228.747 415.158 228.747L412.97 200.476L412.01 188.088L418.776 127.682L440.828 113.35L444.635 112.939L482.216 110.669L497.749 111.67L498.457 111.886L513.634 147.135Z" fill="#CCCCCC"/>
<path d="M515.304 289.145H496.581L495.756 279.661L495.738 279.471L501.039 279.066L514.83 278.013L515.07 283.69L515.257 288.047L515.304 289.145Z" fill="#FFB6B6"/>
<path d="M519.912 156.704L527.777 208.293L521.359 259.057L520.358 266.959L518.591 280.91L518.047 285.201L518.065 285.666L518.199 289.146H495.966L495.147 279.661L495.076 278.811L493.403 259.384L493.374 259.057L489.822 217.862L496.785 188.088L497.3 185.896V185.89L500.329 134.909L497.983 111.741L497.96 111.525C498.006 111.558 498.047 111.591 498.094 111.624C498.217 111.709 498.34 111.794 498.457 111.885C512.125 121.579 520.269 138.585 519.912 156.704Z" fill="#CCCCCC"/>
<path d="M426.74 137.567L418.19 127.681C418.19 127.681 399.888 136.905 398.975 142.023C398.063 147.14 365.747 222.304 365.747 222.304L351.688 180.325L333.387 193.985C333.387 193.985 348.071 259.16 361.805 262.219C375.538 265.279 421.565 185.079 421.565 185.079L426.74 137.567Z" fill="#CCCCCC"/>
<path d="M773.904 258.604H108.088C98.6639 258.604 91 267.18 91 277.716C91 288.251 98.6639 296.819 108.088 296.819H773.904C783.328 296.819 791 288.252 791 277.716C791 267.18 783.328 258.604 773.904 258.604Z" fill="#E6E6E6"/>
<path d="M509.736 200.367L508.442 267.898C508.317 274.435 503.54 279.661 497.692 279.661H386.569C380.859 279.661 376.144 274.671 375.832 268.297L372.53 200.765C372.193 193.879 377.098 188.088 383.267 188.088H498.986C505.015 188.088 509.866 193.628 509.736 200.367Z" fill="#3F3D56"/>
<path d="M330.348 89.6758C345.031 89.6758 356.934 76.369 356.934 59.9541C356.934 43.5393 345.031 30.2324 330.348 30.2324C315.665 30.2324 303.762 43.5393 303.762 59.9541C303.762 76.369 315.665 89.6758 330.348 89.6758Z" fill="#FFB6B6"/>
<path d="M285.881 137.722L288.807 173.043L308.7 262.655L291.513 269.389L262.477 171.735L258.467 132.489L285.881 137.722Z" fill="#FFB6B6"/>
<path d="M277.967 200.367L276.672 267.898C276.547 274.435 271.771 279.661 265.922 279.661H154.8C149.089 279.661 144.375 274.671 144.063 268.297L140.761 200.765C140.424 193.879 145.328 188.088 151.497 188.088H267.216C273.245 188.088 278.096 193.628 277.967 200.367Z" fill="#3F3D56"/>
<path d="M311.868 280.118C323.464 280.118 332.864 275.47 332.864 269.736C332.864 264.002 323.464 259.354 311.868 259.354C300.272 259.354 290.871 264.002 290.871 269.736C290.871 275.47 300.272 280.118 311.868 280.118Z" fill="#FFB6B6"/>
<path d="M244.631 143.123L256.625 71.659C256.625 71.659 289.976 66.4262 291.146 78.854C292.316 91.2819 290.31 152.018 290.31 152.018L244.631 143.123Z" fill="#D32A3D"/>
<path d="M319.616 64.6273C319.616 64.6273 336.062 58.0654 342.999 54.5348C349.937 51.0042 363.719 75.6299 364.026 62.6243C364.332 49.6186 359.57 44.1646 359.57 44.1646C359.57 44.1646 358.381 15.7129 332.74 19.2701C332.74 19.2701 338.38 5.03536 319.867 2.83423C301.354 0.633091 272.553 50.6111 275.132 58.0801C277.711 65.549 280.803 71.7239 273.485 79.7099C266.168 87.6958 252.464 132.766 262.89 144.895C273.316 157.023 274 162.286 266.857 169.831C259.714 177.376 242.829 193.783 261.085 196.631C279.342 199.479 259.415 197.352 273.025 183.968C286.636 170.584 306.497 171.131 299.081 149.657C291.665 128.184 304.549 97.4132 302.937 92.7451C301.325 88.077 306.549 58.4344 306.549 58.4344C306.549 58.4344 318.707 56.4375 319.616 64.6273Z" fill="#2F2E41"/>
<path d="M455.363 100.514C471.347 100.514 484.304 86.0286 484.304 68.1599C484.304 50.2911 471.347 35.8057 455.363 35.8057C439.379 35.8057 426.422 50.2911 426.422 68.1599C426.422 86.0286 439.379 100.514 455.363 100.514Z" fill="#A0616A"/>
<path d="M457.672 24.6621C456.835 25.2086 455.713 24.3817 455.445 23.3401C455.176 22.2985 455.489 21.1925 455.799 20.1654L457.361 14.995C458.468 11.328 459.643 7.53282 462.042 4.74175C465.662 0.529087 471.415 -0.542596 476.594 0.2338C483.245 1.23085 489.808 5.25701 492.9 11.9148C495.993 18.5726 494.676 27.8626 489.088 32.0163C497.052 42.221 499.828 53.5937 499.39 67.1275C498.952 80.6613 485.759 93.1168 477.156 102.651C475.234 101.349 473.488 95.247 474.544 93.0304C475.601 90.8137 474.087 88.2457 475.395 86.2039C476.704 84.1621 477.799 87.4132 476.476 85.3831C475.641 84.102 478.899 81.1548 477.658 80.388C471.657 76.6794 469.661 68.3166 465.891 61.9126C461.345 54.1882 453.564 48.9571 445.329 48.0893C440.793 47.6112 436.001 48.4771 432.283 51.4212C428.565 54.3653 426.158 59.6263 427.02 64.6279C424.787 62.0932 423.676 58.3787 424.095 54.8522C424.514 51.3257 426.455 48.0646 429.203 46.27C427.532 40.0935 428.963 32.9889 432.841 28.2093C436.719 23.4298 452.449 24.2439 458.11 25.5018L457.672 24.6621Z" fill="#2F2E41"/>
<path d="M458.551 48.2764C466.049 49.1812 471.463 56.4422 476.034 63.1477C478.669 67.0126 481.429 71.2808 481.363 76.1397C481.296 81.0521 478.358 85.2657 476.954 89.9212C474.659 97.5308 476.896 106.585 482.359 111.799C476.961 112.944 471.125 108.419 470.193 102.365C469.108 95.3178 473.887 88.5161 473.321 81.3933C472.822 75.118 468.399 70.2884 464.638 65.5964C460.877 60.9043 457.345 54.6782 459.076 48.6824L458.551 48.2764Z" fill="#2F2E41"/>
<path d="M570.648 262.693C563.221 267.415 559.38 275.527 562.069 280.811C564.758 286.094 572.958 286.548 580.387 281.823C583.378 279.981 585.93 277.365 587.831 274.194L619.073 253.74L610.175 237.555L580.321 259.437C576.91 259.643 573.593 260.759 570.648 262.693Z" fill="#FFB6B6"/>
<path d="M676.427 112.705C675.493 112.292 667.301 108.824 659.822 113.403C651.231 118.663 649.904 130.67 649.439 134.881C648.364 144.61 651.531 146.79 652.2 156.639C653.451 175.066 656.749 154.045 651.482 162.456C649.658 165.367 631.036 210.483 620.767 219.32C600.793 236.506 588.109 248.61 588.109 248.61L602.589 266.194C602.589 266.194 625.47 259.379 645.694 244.699C666.438 229.64 676.811 222.111 684.836 207.381C685.527 206.113 702.062 174.722 693.181 140.011C691.156 132.093 687.445 117.587 676.427 112.705Z" fill="#D32A3D"/>
<path d="M751.197 200.367L749.903 267.898C749.778 274.435 745.001 279.661 739.152 279.661H628.03C622.32 279.661 617.605 274.671 617.293 268.297L613.991 200.765C613.654 193.879 618.559 188.088 624.728 188.088H740.447C746.476 188.088 751.327 193.628 751.197 200.367Z" fill="#3F3D56"/>
</g>
<defs>
<clipPath id="clip0_217_1246">
<rect width="700" height="400" fill="white"/>
</clipPath>
</defs>
</svg>
