<svg width="122" height="124" viewBox="0 0 122 124" fill="none" xmlns="http://www.w3.org/2000/svg">
<path d="M48.6608 18.25L60.993 5.75M36.3286 87L85.6574 37M60.993 118.25L73.3252 105.75M88.7405 105.75C92.8289 105.75 96.7498 104.104 99.6407 101.174C102.532 98.2433 104.156 94.269 104.156 90.125C104.156 85.981 102.532 82.0067 99.6407 79.0765C96.7498 76.1462 92.8289 74.5 88.7405 74.5C84.6521 74.5 80.7312 76.1462 77.8402 79.0765C74.9493 82.0067 73.3252 85.981 73.3252 90.125C73.3252 94.269 74.9493 98.2433 77.8402 101.174C80.7312 104.104 84.6521 105.75 88.7405 105.75ZM33.2455 49.5C37.3339 49.5 41.2548 47.8538 44.1458 44.9235C47.0367 41.9933 48.6608 38.019 48.6608 33.875C48.6608 29.731 47.0367 25.7567 44.1458 22.8265C41.2548 19.8962 37.3339 18.25 33.2455 18.25C29.1571 18.25 25.2362 19.8962 22.3453 22.8265C19.4544 25.7567 17.8303 29.731 17.8303 33.875C17.8303 38.019 19.4544 41.9933 22.3453 44.9235C25.2362 47.8538 29.1571 49.5 33.2455 49.5ZM20.9133 118.25C25.0017 118.25 28.9226 116.604 31.8136 113.674C34.7045 110.743 36.3286 106.769 36.3286 102.625C36.3286 98.481 34.7045 94.5067 31.8136 91.5764C28.9226 88.6462 25.0017 87 20.9133 87C16.8249 87 12.904 88.6462 10.0131 91.5764C7.12215 94.5067 5.49805 98.481 5.49805 102.625C5.49805 106.769 7.12215 110.743 10.0131 113.674C12.904 116.604 16.8249 118.25 20.9133 118.25ZM101.073 37C105.161 37 109.082 35.3538 111.973 32.4235C114.864 29.4933 116.488 25.519 116.488 21.375C116.488 17.231 114.864 13.2567 111.973 10.3265C109.082 7.3962 105.161 5.75 101.073 5.75C96.9843 5.75 93.0634 7.3962 90.1725 10.3265C87.2815 13.2567 85.6574 17.231 85.6574 21.375C85.6574 25.519 87.2815 29.4933 90.1725 32.4235C93.0634 35.3538 96.9843 37 101.073 37Z" stroke="#F32845" stroke-width="10" stroke-linecap="round" stroke-linejoin="round"/>
</svg>
