<svg width="50" height="52" viewBox="0 0 50 52" fill="none" xmlns="http://www.w3.org/2000/svg">
<path d="M11.9048 51.7418V17.07L26.1905 1.20103C26.7857 0.534266 27.4897 0.144876 28.3024 0.0328595C29.1167 -0.0773789 29.9008 0.0897567 30.6548 0.534266C31.4087 0.978776 31.9643 1.60109 32.3214 2.40121C32.6786 3.20133 32.7579 4.02367 32.5595 4.86824L29.881 17.07H45.2381C46.5079 17.07 47.619 17.6034 48.5714 18.6703C49.5238 19.7371 50 20.9817 50 22.4041V27.7383C50 28.0494 49.9603 28.3828 49.881 28.7384C49.8016 29.094 49.7222 29.4274 49.6429 29.7386L42.5 48.5413C42.1429 49.4303 41.5476 50.186 40.7143 50.8083C39.881 51.4306 39.0079 51.7418 38.0952 51.7418H11.9048ZM16.6667 19.337V46.4077H38.0952L45.2381 27.7383V22.4041H23.8095L27.0238 7.73533L16.6667 19.337ZM4.7619 51.7418C3.45238 51.7418 2.33175 51.2199 1.4 50.1762C0.466667 49.1307 0 47.8746 0 46.4077V22.4041C0 20.9373 0.466667 19.6811 1.4 18.6356C2.33175 17.5919 3.45238 17.07 4.7619 17.07H11.9048V22.4041H4.7619V46.4077H11.9048V51.7418H4.7619Z" fill="#D32A3D" fill-opacity="0.8"/>
</svg>
