<svg width="50" height="52" viewBox="0 0 50 52" fill="none" xmlns="http://www.w3.org/2000/svg">
<path d="M25 25.8709C21.5625 25.8709 18.6198 24.6043 16.1719 22.0711C13.724 19.5379 12.5 16.4927 12.5 12.9354C12.5 9.3782 13.724 6.33298 16.1719 3.79979C18.6198 1.2666 21.5625 0 25 0C28.4375 0 31.3802 1.2666 33.8281 3.79979C36.276 6.33298 37.5 9.3782 37.5 12.9354C37.5 16.4927 36.276 19.5379 33.8281 22.0711C31.3802 24.6043 28.4375 25.8709 25 25.8709ZM0 51.7418V42.687C0 40.8545 0.456251 39.1696 1.36875 37.6325C2.27917 36.0974 3.48958 34.9257 5 34.1172C8.22917 32.4464 11.5104 31.1928 14.8438 30.3563C18.1771 29.5219 21.5625 29.1048 25 29.1048C28.4375 29.1048 31.8229 29.5219 35.1562 30.3563C38.4896 31.1928 41.7708 32.4464 45 34.1172C46.5104 34.9257 47.7208 36.0974 48.6313 37.6325C49.5438 39.1696 50 40.8545 50 42.687V51.7418H0ZM6.25 45.2741H43.75V42.687C43.75 42.0941 43.6073 41.5551 43.3219 41.0701C43.0344 40.585 42.6562 40.2077 42.1875 39.9382C39.375 38.483 36.5365 37.391 33.6719 36.6623C30.8073 35.9358 27.9167 35.5725 25 35.5725C22.0833 35.5725 19.1927 35.9358 16.3281 36.6623C13.4635 37.391 10.625 38.483 7.8125 39.9382C7.34375 40.2077 6.96667 40.585 6.68125 41.0701C6.39375 41.5551 6.25 42.0941 6.25 42.687V45.2741ZM25 19.4032C26.7188 19.4032 28.1906 18.7693 29.4156 17.5017C30.6385 16.2361 31.25 14.7141 31.25 12.9354C31.25 11.1568 30.6385 9.63475 29.4156 8.36924C28.1906 7.10156 26.7188 6.46772 25 6.46772C23.2812 6.46772 21.8104 7.10156 20.5875 8.36924C19.3625 9.63475 18.75 11.1568 18.75 12.9354C18.75 14.7141 19.3625 16.2361 20.5875 17.5017C21.8104 18.7693 23.2812 19.4032 25 19.4032Z" fill="#D32A3D" fill-opacity="0.8"/>
</svg>
