<svg width="114" height="114" viewBox="0 0 114 114" fill="currentColor" xmlns="http://www.w3.org/2000/svg">
<path d="M113.468 25.0061C113.294 24.0765 112.73 22.3257 110.402 24.6539L95.5336 39.5214C93.4852 41.5698 90.1339 41.5698 88.0855 39.5214L74.4777 25.9139C72.4293 23.8655 72.4293 20.5139 74.4777 18.4655L89.3459 3.59771C91.6428 1.30045 89.4413 0.595049 88.2659 0.403145C78.8454 -1.13472 68.8463 1.72706 61.5819 8.99211C52.9989 17.5751 50.3201 29.2395 54.0239 39.9924C54.2385 40.6155 55.096 42.4549 53.5684 43.9829C53.5684 43.9829 34.8154 62.7356 28.7198 68.8311C27.34 70.2113 26.4805 69.3851 26.4805 69.3851C24.6882 67.5931 21.7553 67.5931 19.9633 69.3851L1.34399 88.0044C-0.447997 89.7967 -0.447997 92.7293 1.34399 94.5219L19.4781 112.656C21.2701 114.448 24.203 114.448 25.9953 112.656L44.6143 94.0364C46.4067 92.2441 46.4067 89.3116 44.6143 87.5192C44.6143 87.5192 43.9435 86.5047 45.1683 85.2799C51.2642 79.1841 70.0168 60.4314 70.0168 60.4314C71.6024 58.8455 72.795 59.5614 73.2802 59.7362C84.1263 63.6447 96.3153 61.1098 105.007 52.4182C112.459 44.9655 115.279 34.6365 113.468 25.0061ZM28.9295 96.94C25.652 100.218 20.3376 100.218 17.0598 96.94C13.7822 93.6622 13.7822 88.3477 17.0598 85.0699C20.3376 81.7921 25.652 81.7921 28.9295 85.0699C32.2074 88.3477 32.2074 93.6622 28.9295 96.94Z" />
</svg>
