<svg width="37" height="37" viewBox="0 0 37 37" fill="none" xmlns="http://www.w3.org/2000/svg">
<path d="M36.1584 18.7256C36.0702 8.76507 27.9349 0.752592 17.9993 0.840587C8.06368 0.928583 0.0715959 9.08389 0.159812 19.0444C0.237161 27.7779 6.49332 34.995 14.7159 36.6004L14.6072 24.3302L11.0073 24.3621L10.9594 18.9488L14.5592 18.9169L14.5193 14.4058C14.4885 10.9232 17.2892 8.0652 20.7631 8.03444L25.2629 7.99458L25.3109 13.4079L21.711 13.4398C20.7211 13.4486 19.9183 14.2677 19.9271 15.2602L19.959 18.8691L25.3588 18.8212L25.4068 24.2345L20.007 24.2824L20.118 36.8232C29.1997 35.8405 36.2413 28.0906 36.1584 18.7256Z" fill="white"/>
</svg>
