<svg width="38" height="37" viewBox="0 0 38 37" fill="none" xmlns="http://www.w3.org/2000/svg">
<path fill-rule="evenodd" clip-rule="evenodd" d="M18.9989 36.0173C28.94 36.0267 37.0066 27.9755 37.0161 18.0344C37.0255 8.09329 28.9743 0.0267514 19.0332 0.0172879C9.09207 0.00782432 1.02553 8.05902 1.01607 18.0001C1.0066 27.9413 9.0578 36.0078 18.9989 36.0173ZM12.7733 10.5116C11.6688 10.5105 10.7725 11.4051 10.7714 12.5097L10.7595 25.0097C10.7585 26.1142 11.653 27.0105 12.7576 27.0116L25.2576 27.0235C26.3622 27.0245 27.2585 26.1299 27.2595 25.0254L27.2714 12.5254C27.2725 11.4208 26.3779 10.5245 25.2733 10.5235L12.7733 10.5116Z" fill="white"/>
<path d="M23.7645 18.7716C23.762 21.395 21.6334 23.5196 19.01 23.5171C16.3867 23.5146 14.262 21.386 14.2645 18.7626C14.267 16.1393 16.3957 14.0146 19.0191 14.0171C21.6424 14.0196 23.767 16.1483 23.7645 18.7716Z" stroke="white"/>
<circle cx="19.0154" cy="18.767" r="1.75" transform="rotate(0.0545433 19.0154 18.767)" stroke="white"/>
<path d="M25.7708 13.0738C25.7702 13.7365 25.2324 14.2733 24.5697 14.2726C23.907 14.272 23.3702 13.7342 23.3708 13.0715C23.3715 12.4087 23.9092 11.872 24.572 11.8726C25.2347 11.8733 25.7715 12.411 25.7708 13.0738Z" stroke="white" stroke-width="0.6"/>
</svg>
