<svg width="34" height="37" viewBox="0 0 34 37" fill="none" xmlns="http://www.w3.org/2000/svg">
<path d="M16.8659 0.850626C7.55099 0.933124 0.0713704 9.05843 0.159413 18.9993C0.247455 28.9402 7.86981 36.9317 17.1847 36.8492C26.4996 36.7667 33.9792 28.6414 33.8911 18.7005C33.8031 8.75969 26.1807 0.768128 16.8659 0.850626ZM12.9627 26.3468L9.54739 26.3771L9.4435 14.6475L12.8588 14.6173L12.9627 26.3468ZM11.1173 13.1926C10.0386 13.2022 9.33393 12.3928 9.32499 11.3841C9.31588 10.3547 10.0274 9.55715 11.129 9.5474C12.2305 9.53764 12.9122 10.3229 12.9424 11.352C12.9513 12.3607 12.2628 13.1825 11.1173 13.1926ZM25.4364 26.2363L22.0211 26.2666L21.9635 19.7662C21.9501 18.2532 21.4456 17.2301 20.2105 17.241C19.2671 17.2494 18.7128 17.9499 18.471 18.6215C18.3818 18.8604 18.3619 19.1981 18.3649 19.5337L18.4248 26.2966L15.0077 26.3268L14.937 18.3396C14.924 16.8753 14.8692 15.6514 14.8142 14.5981L17.7815 14.5718L17.9523 16.1997L18.0209 16.1991C18.4638 15.4302 19.5554 14.2917 21.3983 14.2754C23.6454 14.2555 25.3444 15.8474 25.375 19.301L25.4364 26.2363Z" fill="white"/>
</svg>
