<svg width="29" height="20" viewBox="0 0 29 20" fill="white" xmlns="http://www.w3.org/2000/svg">
<path d="M0 1.42143C0 0.635714 0.6467 0 1.44275 0H13.0573C13.4399 1.12351e-08 13.8069 0.149757 14.0774 0.416327C14.348 0.682896 14.5 1.04444 14.5 1.42143C14.5 1.79841 14.348 2.15996 14.0774 2.42653C13.8069 2.6931 13.4399 2.84286 13.0573 2.84286H1.44275C1.06011 2.84286 0.69314 2.6931 0.422572 2.42653C0.152004 2.15996 0 1.79841 0 1.42143ZM0 10C0 9.21429 0.6467 8.57857 1.44275 8.57857H27.5572C27.9399 8.57857 28.3069 8.72833 28.5774 8.9949C28.848 9.26147 29 9.62301 29 10C29 10.377 28.848 10.7385 28.5774 11.0051C28.3069 11.2717 27.9399 11.4214 27.5572 11.4214H1.44275C1.06011 11.4214 0.69314 11.2717 0.422572 11.0051C0.152004 10.7385 0 10.377 0 10ZM1.44275 17.1571C1.06011 17.1571 0.69314 17.3069 0.422572 17.5735C0.152004 17.84 0 18.2016 0 18.5786C0 18.9556 0.152004 19.3171 0.422572 19.5837C0.69314 19.8502 1.06011 20 1.44275 20H18.8573C19.2399 20 19.6069 19.8502 19.8774 19.5837C20.148 19.3171 20.3 18.9556 20.3 18.5786C20.3 18.2016 20.148 17.84 19.8774 17.5735C19.6069 17.3069 19.2399 17.1571 18.8573 17.1571H1.44275Z" fill="white"/>
</svg>
